<svg id="Capa_1" data-name="Capa 1" xmlns="http://www.w3.org/2000/svg" width="400" height="400" viewBox="0 0 400 400">
  <defs>
    <style>
      .cls-1 {
        fill: #f4f4f4;
      }

      .cls-2 {
        fill: #1f1b36;
      }

      .cls-3 {
        fill: #1f1f1f;
      }
    </style>
  </defs>
  <title>bigbox</title>
  <g id="Grupo_279" data-name="Grupo 279">
    <g id="Sustracción_2" data-name="Sustracción 2">
      <path id="Trazado_402" data-name="Trazado 402" class="cls-1" d="M308.13,301.38h-246a159.88,159.88,0,1,1,246,0Z"/>
    </g>
    <g id="Grupo_261" data-name="Grupo 261">
      <path id="Trazado_481" data-name="Trazado 481" class="cls-2" d="M331.8,315.83H310.34a1.35,1.35,0,0,1-.07-2.7H331.8a1.35,1.35,0,0,1,0,2.7Z"/>
    </g>
    <g id="Grupo_262" data-name="Grupo 262">
      <path id="Trazado_482" data-name="Trazado 482" class="cls-2" d="M289.41,315.83H91.1a1.35,1.35,0,0,1,0-2.7H289.41a1.35,1.35,0,0,1,0,2.7Z"/>
    </g>
    <g id="Grupo_255" data-name="Grupo 255">
      <g id="Grupo_252" data-name="Grupo 252">
        <path id="Trazado_473" data-name="Trazado 473" class="cls-2" d="M404.53,302.72h-42a1.25,1.25,0,0,1-1-1.39,1.23,1.23,0,0,1,1-1.31h42a1.25,1.25,0,0,1,1,1.39A1.23,1.23,0,0,1,404.53,302.72Z"/>
      </g>
      <g id="Grupo_253" data-name="Grupo 253">
        <path id="Trazado_474" data-name="Trazado 474" class="cls-2" d="M354.29,302.72H339.67a1.2,1.2,0,0,1-1.06-1.31,1.24,1.24,0,0,1,1-1.39h14.67a1.2,1.2,0,0,1,1.06,1.31,1.24,1.24,0,0,1-1,1.39Z"/>
      </g>
      <g id="Grupo_254" data-name="Grupo 254">
        <path id="Trazado_475" data-name="Trazado 475" class="cls-2" d="M330.91,302.72h-316c-.5,0-.9-.64-.89-1.39s.41-1.29.89-1.31h316c.51,0,.91.64.9,1.39s-.41,1.29-.9,1.31Z"/>
      </g>
    </g>
  </g>
  <g>
    <path class="cls-3" d="M116.35,158.54a5.6,5.6,0,1,1,5.61-5.61A5.61,5.61,0,0,1,116.35,158.54Z"/>
    <g>
      <path class="cls-3" d="M147.76,253.09c-1.57-.27-3.18-.41-4.72-.83-8.17-2.23-13.64-7.43-16.65-15.29-.34-.88-.63-1.78-1-2.77h5c1.09,0,2.18,0,3.27,0a1,1,0,0,1,1.1.7,16,16,0,1,0,19.19-21.75,24.39,24.39,0,0,0-5.49-.46,23.91,23.91,0,0,1-22.77-18.46c-3.18-13.56,4.41-25.14,15.1-29,15.93-5.71,30.12,4.48,32.62,17.82,1.9,10.09-1.06,18.56-9.34,24.94l-.32.27c1.54,1.52,3.19,2.92,4.57,4.54,10.69,12.57,6.15,34.51-12.65,39.5-1.46.38-3,.53-4.47.78Zm17.71-64.88a16,16,0,0,0-16-16.11c-8.42-.14-16.12,8-16.06,16.24.06,8.54,7.72,16.15,16.26,15.92A16,16,0,0,0,165.47,188.21Z"/>
      <path class="cls-3" d="M59,148.6h8.42v20.83c1.48-1,2.8-2.05,4.27-2.83,15.08-7.93,33.37.88,35.91,17.73,1.59,10.51-2.9,20-11.8,25.16a24.49,24.49,0,0,1-15.16,3c-7.91-.78-13.85-4.75-18.12-11.32a22.6,22.6,0,0,1-3.36-9.86,4.3,4.3,0,0,0-.16-.69Zm40.42,39.61a15.94,15.94,0,0,0-16-16.11C75.08,172,67.33,180,67.38,188.31a16.48,16.48,0,0,0,16.28,16C91.92,204.17,99.64,197,99.42,188.21Z"/>
      <path class="cls-3" d="M186.89,148.58v20.91c.25-.18.43-.27.57-.4,8.77-7.67,25.53-8,34.93,4.15,7.82,10.1,7.3,28.58-8.23,36.82a24.43,24.43,0,0,1-14.08,2.48,23.38,23.38,0,0,1-17.35-10.16,22.34,22.34,0,0,1-4.25-13.28q0-19.72,0-39.44v-1.08Zm16,23.54c-8.72-.21-15.74,8-16.08,15.28-.46,9.48,7.61,16.56,15.27,16.87a16.28,16.28,0,0,0,16.75-15.68C219,179.6,211.77,172,202.92,172.12Z"/>
      <path class="cls-3" d="M255.17,163.69A24.21,24.21,0,0,1,279.68,188c0,14-10.5,24.64-24.45,24.67a24.22,24.22,0,0,1-24.53-24.21C230.49,175.43,241.42,163.43,255.17,163.69Zm.11,8.43c-8.33-.26-16.12,7.69-16.11,16.09s7.08,15.69,15.22,16a16.23,16.23,0,0,0,16.84-15.67A16.06,16.06,0,0,0,255.28,172.12Z"/>
      <path class="cls-3" d="M277.68,164c2.72,0,5.25.15,7.76,0a3.69,3.69,0,0,1,3.81,2c2.91,4.55,6,9,9,13.47l.52.74,1.71-2.54c2.88-4.34,5.78-8.68,8.65-13a1.3,1.3,0,0,1,1.26-.65c3,0,6.09,0,9.31,0l-.53.88q-7.32,10.89-14.64,21.76a1.36,1.36,0,0,0,0,1.83q7.53,11.18,15,22.4c.12.18.22.36.4.64-.3,0-.52.06-.74.06-2.86,0-5.71,0-8.57,0a1.29,1.29,0,0,1-1.24-.67q-5.08-7.58-10.2-15.13l-.47-.64L294.13,202c-2,3-4.06,6-6.12,9a1.2,1.2,0,0,1-.8.52c-3.16,0-6.31,0-9.47,0a2.16,2.16,0,0,1-.33-.09c.94-1.38,1.85-2.71,2.75-4.05q6.48-9.58,13-19.15a1,1,0,0,0,0-1.35q-7.41-11-14.8-22C278.13,164.66,278,164.39,277.68,164Z"/>
      <path class="cls-3" d="M112.2,166.9h8.28v44.48H112.2Z"/>
      <path class="cls-3" d="M286.13,224.7l-2.24.77c-.1-.22-.17-.36-.24-.5a3,3,0,0,0-5.75.5,17.12,17.12,0,0,0,0,4.35,2.85,2.85,0,0,0,2.95,2.42,3.18,3.18,0,0,0,3.16-2.65H280.7v-2h5.37v6.58h-2l-.1-1.37a5.53,5.53,0,0,1-3.36,1.68,4.78,4.78,0,0,1-4.92-2.65,8.7,8.7,0,0,1,.38-8.5,5.75,5.75,0,0,1,8.4-1A14.78,14.78,0,0,1,286.13,224.7Z"/>
      <path class="cls-3" d="M262.85,234.19c-.81,0-1.52,0-2.21,0a1,1,0,0,1-.58-.52c-.57-1.29-1.13-2.58-1.62-3.9a1,1,0,0,0-1.14-.74c-.45,0-.91,0-1.46,0v5.13h-2.61V221.31a.82.82,0,0,1,.28-.11c2,0,4,0,5.94.15a3.82,3.82,0,0,1,3.31,5.15c-.34,1.06-1.23,1.53-2.19,2Zm-7-10.59v3.47a28.11,28.11,0,0,0,3.33-.47,1.37,1.37,0,0,0,1-1.66,1.45,1.45,0,0,0-1.36-1.31A29,29,0,0,0,255.89,223.6Z"/>
      <path class="cls-3" d="M313.73,221a5.37,5.37,0,0,1,5.66,5.2,15,15,0,0,1-.1,3.79c-.54,3-2.73,4.63-5.82,4.51a5.5,5.5,0,0,1-5.29-5,10.39,10.39,0,0,1,.31-4.67A5.11,5.11,0,0,1,313.73,221Zm3.2,6.79-.07,0c-.05-.54-.07-1.08-.15-1.61a5.21,5.21,0,0,0-.27-1,2.64,2.64,0,0,0-2.59-1.86,2.61,2.61,0,0,0-2.65,1.88,7.78,7.78,0,0,0,0,5.11,2.76,2.76,0,0,0,2.65,1.93,2.68,2.68,0,0,0,2.63-1.93A20.31,20.31,0,0,0,316.93,227.75Z"/>
      <path class="cls-3" d="M237.8,221.25v1.16c0,2.39,0,4.78,0,7.17a2.31,2.31,0,0,0,2,2.43,2.4,2.4,0,0,0,2.84-1.36,4.24,4.24,0,0,0,.27-1.5c0-2.6,0-5.21,0-7.89h2.51s.08.09.08.13c0,3,.1,5.92,0,8.87-.1,2.5-1.72,4-4.36,4.17-1.72.12-3.5,0-4.74-1.38a4.16,4.16,0,0,1-1.08-2.3c-.12-3.14,0-6.29,0-9.5Z"/>
      <path class="cls-3" d="M265,221.23h8.63v2.23h-6v2.82h3.62v2h-3.63v3.62h6v2.27H265Z"/>
      <path class="cls-3" d="M287.08,234.19c.92-2.85,1.81-5.58,2.69-8.3.45-1.37.9-2.73,1.33-4.1a.71.71,0,0,1,.79-.61c2.13,0,2.13-.06,2.79,2l3.42,10.51c0,.13.07.26.14.52-.79,0-1.5,0-2.22,0-.15,0-.34-.22-.42-.38a7.83,7.83,0,0,1-.34-1c-.53-1.63-.53-1.64-2.22-1.63-.8,0-1.8-.21-2.35.19s-.61,1.39-.81,2.14c-.14.54-.37.77-.95.71S287.8,234.19,287.08,234.19Zm7-5-1.33-4.11h-.18c-.43,1.34-.87,2.69-1.33,4.11Z"/>
      <path class="cls-3" d="M191.24,229.72q.85-2.78,1.73-5.56c.16-.51.31-1,.47-1.55.44-1.42.45-1.42,2-1.42h.91c-.09.38-.16.69-.25,1-1.14,3.77-2.29,7.53-3.41,11.3-.17.56-.42.79-1,.73s-1.14,0-1.74,0l-4-13a20.71,20.71,0,0,1,2.25,0c.19,0,.4.38.48.63.81,2.61,1.6,5.23,2.39,7.85Z"/>
      <path class="cls-3" d="M202.09,221.26c2.43-.27,2.44-.27,3.09,1.85s1.35,4.44,2.1,6.91c.34-1.07.6-1.91.86-2.75.55-1.79,1.11-3.57,1.63-5.37.15-.53.37-.78.95-.72s1.08,0,1.7,0a6.41,6.41,0,0,1-.12.67c-1.18,3.9-2.37,7.79-3.54,11.69-.15.5-.37.69-.9.65s-1.19,0-1.83,0C204.71,229.88,203.41,225.6,202.09,221.26Z"/>
      <path class="cls-3" d="M223.69,221.22h9.84a17.49,17.49,0,0,1,0,1.92c0,.13-.37.33-.58.34-1,0-1.94,0-3,0v10.64h-2.61V223.49h-3.6Z"/>
      <path class="cls-3" d="M307.54,234.15h-7.83V221.24h2.53v10.67h5.3Z"/>
      <path class="cls-3" d="M198,221.23h2.46v12.9H198Z"/>
      <path class="cls-3" d="M214.08,234.13V221.26h2.48v12.87Z"/>
      <path class="cls-3" d="M213.64,220.17c.68-.79,1.35-1.59,2.05-2.37a.88.88,0,0,1,.59-.18c.71,0,1.43,0,2.4,0a38.76,38.76,0,0,1-3.23,2.55c-.43.29-1.13.16-1.71.23Z"/>
    </g>
  </g>
</svg>
