<svg id="Capa_1" data-name="Capa 1" xmlns="http://www.w3.org/2000/svg" width="400" height="400" viewBox="0 0 400 400">
  <defs>
    <style>
      .cls-1 {
        fill: #f4f4f4;
      }

      .cls-2 {
        fill: #1f1b36;
      }
    </style>
  </defs>
  <title>capacitacionUtn</title>
  <g id="Grupo_279" data-name="Grupo 279">
    <g id="Sustracción_2" data-name="Sustracción 2">
      <path id="Trazado_402" data-name="Trazado 402" class="cls-1" d="M308.13,301.38h-246a159.88,159.88,0,1,1,246,0Z"/>
    </g>
    <g id="Grupo_261" data-name="Grupo 261">
      <path id="Trazado_481" data-name="Trazado 481" class="cls-2" d="M331.8,315.83H310.34a1.35,1.35,0,0,1-.07-2.7H331.8a1.35,1.35,0,0,1,0,2.7Z"/>
    </g>
    <g id="Grupo_262" data-name="Grupo 262">
      <path id="Trazado_482" data-name="Trazado 482" class="cls-2" d="M289.41,315.83H91.1a1.35,1.35,0,0,1,0-2.7H289.41a1.35,1.35,0,0,1,0,2.7Z"/>
    </g>
    <g id="Grupo_255" data-name="Grupo 255">
      <g id="Grupo_252" data-name="Grupo 252">
        <path id="Trazado_473" data-name="Trazado 473" class="cls-2" d="M404.53,302.72h-42a1.25,1.25,0,0,1-1-1.39,1.23,1.23,0,0,1,1-1.31h42a1.25,1.25,0,0,1,1,1.39A1.23,1.23,0,0,1,404.53,302.72Z"/>
      </g>
      <g id="Grupo_253" data-name="Grupo 253">
        <path id="Trazado_474" data-name="Trazado 474" class="cls-2" d="M354.29,302.72H339.67a1.2,1.2,0,0,1-1.06-1.31,1.24,1.24,0,0,1,1-1.39h14.67a1.2,1.2,0,0,1,1.06,1.31,1.24,1.24,0,0,1-1,1.39Z"/>
      </g>
      <g id="Grupo_254" data-name="Grupo 254">
        <path id="Trazado_475" data-name="Trazado 475" class="cls-2" d="M330.91,302.72h-316c-.5,0-.9-.64-.89-1.39s.41-1.29.89-1.31h316c.51,0,.91.64.9,1.39s-.41,1.29-.9,1.31Z"/>
      </g>
    </g>
  </g>
  <g>
    <path class="cls-2" d="M196.48,105v33.83c15-6.33,22.57-17.34,23.55-33.2h22.56c-.23,13.29-4.14,25.15-12.24,35.58s-18.69,16.86-31.13,21h3.14c12.5,0,25,.06,37.5,0,2.41,0,3.35.55,3.28,3.14-.18,6.38-.06,12.77-.06,19.56H199.34c27.07,9.29,41.45,27.94,43.49,56.61H220c-1-15.62-8.41-26.67-23.46-33.08v33.1H173.74V208.87c-12.1,2.24-21.27,14.95-23.72,32.56H127.53A57.67,57.67,0,0,1,139.7,206c8-10.38,18.64-16.93,31.13-21H127.74V162.24h42.88c-26.89-9.37-41.36-27.86-43.32-56.53h22.79c1,15.75,8.49,26.8,23.59,33.12V105Z"/>
    <path class="cls-2" d="M139.47,285c-9.3-3.55-11.91-7.39-11.9-17.57q0-9.44.08-18.87c0-.17.15-.35.33-.75h10.9c.05,1,.14,2.06.14,3.12,0,6.29,0,12.58,0,18.87,0,4.37,2.3,6.75,6.24,6.77s6.21-2.29,6.25-6.72c.06-6.49.12-13,0-19.47,0-2.31.75-3,2.93-2.83,2.67.16,5.37,0,8.53,0v20.13c0,9.87-2.54,13.69-11.5,17.28Z"/>
    <path class="cls-2" d="M242.85,284.56c-3.45,0-6.53.14-9.59-.1-.84-.06-1.78-1.12-2.35-1.95-3.93-5.65-7.77-11.37-12.17-17.84v19.62H208V247.65c3.29,0,6.55-.12,9.78.09.74,0,1.54,1.14,2.07,1.91,3.46,5,6.84,10.08,10.27,15.12.53.78,1.12,1.52,2.22,3v-20h10.56Z"/>
    <path class="cls-2" d="M191.07,284.56c-3.61,0-6.69,0-9.77,0-1.86,0-1.73-1.23-1.73-2.44V256.74c-3.15,0-6.1-.1-9,0-2,.1-2.92-.54-2.74-2.69.16-2,0-4,0-6.22h34.45v8.75H191.07Z"/>
  </g>
</svg>
