<svg id="Capa_1" data-name="Capa 1" xmlns="http://www.w3.org/2000/svg" width="400" height="400" viewBox="0 0 400 400">
  <defs>
    <style>
      .cls-1 {
        fill: #f4f4f4;
      }

      .cls-2 {
        fill: #1f1b36;
      }
    </style>
  </defs>
  <title>estudioErgonomia</title>
  <g id="Grupo_279" data-name="Grupo 279">
    <g id="Sustracción_2" data-name="Sustracción 2">
      <path id="Trazado_402" data-name="Trazado 402" class="cls-1" d="M308.13,301.38h-246a159.88,159.88,0,1,1,246,0Z"/>
    </g>
    <g id="Grupo_261" data-name="Grupo 261">
      <path id="Trazado_481" data-name="Trazado 481" class="cls-2" d="M331.8,315.83H310.34a1.35,1.35,0,0,1-.07-2.7H331.8a1.35,1.35,0,0,1,0,2.7Z"/>
    </g>
    <g id="Grupo_262" data-name="Grupo 262">
      <path id="Trazado_482" data-name="Trazado 482" class="cls-2" d="M289.41,315.83H91.1a1.35,1.35,0,0,1,0-2.7H289.41a1.35,1.35,0,0,1,0,2.7Z"/>
    </g>
    <g id="Grupo_255" data-name="Grupo 255">
      <g id="Grupo_252" data-name="Grupo 252">
        <path id="Trazado_473" data-name="Trazado 473" class="cls-2" d="M404.53,302.72h-42a1.25,1.25,0,0,1-1-1.39,1.23,1.23,0,0,1,1-1.31h42a1.25,1.25,0,0,1,1,1.39A1.23,1.23,0,0,1,404.53,302.72Z"/>
      </g>
      <g id="Grupo_253" data-name="Grupo 253">
        <path id="Trazado_474" data-name="Trazado 474" class="cls-2" d="M354.29,302.72H339.67a1.2,1.2,0,0,1-1.06-1.31,1.24,1.24,0,0,1,1-1.39h14.67a1.2,1.2,0,0,1,1.06,1.31,1.24,1.24,0,0,1-1,1.39Z"/>
      </g>
      <g id="Grupo_254" data-name="Grupo 254">
        <path id="Trazado_475" data-name="Trazado 475" class="cls-2" d="M330.91,302.72h-316c-.5,0-.9-.64-.89-1.39s.41-1.29.89-1.31h316c.51,0,.91.64.9,1.39s-.41,1.29-.9,1.31Z"/>
      </g>
    </g>
  </g>
  <g>
    <path class="cls-2" d="M255.87,184.79a2.49,2.49,0,0,0-.7-4.88h-9.43c.44-9.18.63-36-11.69-43.41l5.83-41.43-10.4-1.46-10.14,72.15,10.4,1.46,3.51-25c7.28,7.1,8,27.28,7.49,37.72H222.81a2.49,2.49,0,0,0-.7,4.88H179.38v9h82.94v-9Z"/>
    <path class="cls-2" d="M129.65,128.07a20.59,20.59,0,0,0,29,0,20.29,20.29,0,0,0,0-29,20.45,20.45,0,0,0-34.94,14.44A19.79,19.79,0,0,0,129.65,128.07Z"/>
    <path class="cls-2" d="M216.67,215.85c-.47-5.72-1.91-9.7-4.29-11.93s-6.28-3.34-11.69-3.34H171.16l-4-17a8.4,8.4,0,0,0,3.57.84l25.58.23h.08a8.32,8.32,0,0,0,.07-16.64l-21.6-.19L155.56,143.4a8.22,8.22,0,0,0-2.93-2.34,17.31,17.31,0,0,0-9.86-2.74,17.55,17.55,0,0,0-12.52,5.13,14.92,14.92,0,0,0-4.89,12.29q.47,11,4.29,29.1,1.44,7.4,3.58,15.74,2.39,13.85,7.27,19t15.63,5.13H196.4l4,48.42q1,11.44,11.69,10.73,9.3-.46,8.59-11.92Z"/>
    <path class="cls-2" d="M182.3,231.59H156.13q-23.38,0-27.67-21.7-8.12-41.5-8.35-43.42-1-6.19-6.92-5-5.49,1.2-4,6.92L117.72,212a40.32,40.32,0,0,0,8.83,18.61q9.54,11.93,23.85,11.93h32.14q7.86,0,7.87-5Q190.41,231.59,182.3,231.59Z"/>
  </g>
</svg>
