<svg id="Capa_1" data-name="Capa 1" xmlns="http://www.w3.org/2000/svg" width="400" height="400" viewBox="0 0 400 400">
  <defs>
    <style>
      .cls-1 {
        fill: #f4f4f4;
      }

      .cls-2 {
        fill: #1f1b36;
      }
    </style>
  </defs>
  <title>examenPreocupacional</title>
  <g id="Grupo_279" data-name="Grupo 279">
    <g id="Sustracción_2" data-name="Sustracción 2">
      <path id="Trazado_402" data-name="Trazado 402" class="cls-1" d="M308.13,301.38h-246a159.88,159.88,0,1,1,246,0Z"/>
    </g>
    <g id="Grupo_261" data-name="Grupo 261">
      <path id="Trazado_481" data-name="Trazado 481" class="cls-2" d="M331.8,315.83H310.34a1.35,1.35,0,0,1-.07-2.7H331.8a1.35,1.35,0,0,1,0,2.7Z"/>
    </g>
    <g id="Grupo_262" data-name="Grupo 262">
      <path id="Trazado_482" data-name="Trazado 482" class="cls-2" d="M289.41,315.83H91.1a1.35,1.35,0,0,1,0-2.7H289.41a1.35,1.35,0,0,1,0,2.7Z"/>
    </g>
    <g id="Grupo_255" data-name="Grupo 255">
      <g id="Grupo_252" data-name="Grupo 252">
        <path id="Trazado_473" data-name="Trazado 473" class="cls-2" d="M404.53,302.72h-42a1.25,1.25,0,0,1-1-1.39,1.23,1.23,0,0,1,1-1.31h42a1.25,1.25,0,0,1,1,1.39A1.23,1.23,0,0,1,404.53,302.72Z"/>
      </g>
      <g id="Grupo_253" data-name="Grupo 253">
        <path id="Trazado_474" data-name="Trazado 474" class="cls-2" d="M354.29,302.72H339.67a1.2,1.2,0,0,1-1.06-1.31,1.24,1.24,0,0,1,1-1.39h14.67a1.2,1.2,0,0,1,1.06,1.31,1.24,1.24,0,0,1-1,1.39Z"/>
      </g>
      <g id="Grupo_254" data-name="Grupo 254">
        <path id="Trazado_475" data-name="Trazado 475" class="cls-2" d="M330.91,302.72h-316c-.5,0-.9-.64-.89-1.39s.41-1.29.89-1.31h316c.51,0,.91.64.9,1.39s-.41,1.29-.9,1.31Z"/>
      </g>
    </g>
  </g>
  <g>
    <path class="cls-2" d="M122.44,246.47v9.43a3.13,3.13,0,0,0,.93,2.23,9.48,9.48,0,1,0,5.36-4.82v-6.84a18.86,18.86,0,1,1,37.72,0v6.84a9.34,9.34,0,0,0-3.14-.55,9.46,9.46,0,1,0,8.5,5.37,3.13,3.13,0,0,0,.93-2.23v-9.43a25.15,25.15,0,0,0-50.3,0Zm9.43,12.58a3.14,3.14,0,1,1-3.14,3.14A3.15,3.15,0,0,1,131.87,259.05Zm31.44,6.28a3.14,3.14,0,1,1,3.14-3.14A3.15,3.15,0,0,1,163.31,265.33Z"/>
    <path class="cls-2" d="M223,246.47a12.58,12.58,0,1,0,12.57-12.57A12.59,12.59,0,0,0,223,246.47Zm12.57-6.29a6.29,6.29,0,1,1-6.28,6.29A6.29,6.29,0,0,1,235.61,240.18Z"/>
    <path class="cls-2" d="M255.42,216,213.61,203.4V189.89a2.93,2.93,0,0,0-.08-.67c15-10.13,25.23-30.28,25.23-53.45,0-15.86-4.76-29.28-13.75-38.83C216.54,88,204.68,83,191.6,83s-24.94,5-33.41,13.94c-9,9.55-13.74,23-13.74,38.83,0,23.17,10.24,43.32,25.22,53.45a3.62,3.62,0,0,0-.07.67V203.4L127.79,216A25.14,25.14,0,0,0,109.87,240v31.59a12.57,12.57,0,0,0,12.57,12.58H260.76a12.58,12.58,0,0,0,12.58-12.58V240A25.15,25.15,0,0,0,255.42,216ZM191.6,89.29c21.6,0,36.92,14.58,40.21,37.15l-.16,0c-40.3.53-43.49-22.92-43.6-23.89a3.15,3.15,0,0,0-6.19-.41c-1.91,8-5.57,13.61-10.87,16.54-7.74,4.27-16.88,1.73-18.26,1.31C157.79,101.13,172.15,89.29,191.6,89.29Zm-40.86,46.48a64.69,64.69,0,0,1,.7-9.62c3.12.88,13.29,3.11,22.53-2a26.26,26.26,0,0,0,11-12,32.82,32.82,0,0,0,4.54,6.3c6,6.51,17.89,14.18,40.89,14.18h1.34a2.91,2.91,0,0,0,.66-.08c.05,1,.08,2.08.08,3.14,0,29.84-18.33,54.12-40.87,54.12S150.74,165.61,150.74,135.77Zm40.86,88.7a24.88,24.88,0,0,1-10.46-2.29l-5.26-14V192.71a37.42,37.42,0,0,0,31.43,0v15.47l-5.25,14A24.9,24.9,0,0,1,191.6,224.47Zm7.6,5.35-7.6,20.27L184,229.82a31.52,31.52,0,0,0,15.2,0Zm67.85,41.8a6.29,6.29,0,0,1-6.29,6.29H122.44a6.3,6.3,0,0,1-6.29-6.29V240A18.75,18.75,0,0,1,129.6,222l14.85-4.46v3.81h6.29v-5.69l19.08-5.73,18.84,50.25a3.15,3.15,0,0,0,5.89,0l18.84-50.25,19.08,5.73V233.9h6.29V217.51L253.61,222A18.74,18.74,0,0,1,267.05,240Z"/>
  </g>
</svg>
