<svg id="Capa_1" data-name="Capa 1" xmlns="http://www.w3.org/2000/svg" width="174" height="124" viewBox="0 0 174 124">
  <defs>
    <style>
      .cls-1 {
        fill: #f4f4f4;
      }

      .cls-2 {
        fill: #1f1b36;
      }
    </style>
  </defs>
  <title>lapiceras</title>
  <g>
    <path id="Trazado_402" data-name="Trazado 402" class="cls-1" d="M126.44,111.65H27.78a64.12,64.12,0,1,1,98.66,0Z"/>
    <path id="Trazado_481" data-name="Trazado 481" class="cls-2" d="M135.94,117.45h-8.61a.53.53,0,0,1-.55-.53.52.52,0,0,1,.52-.55h8.64a.52.52,0,0,1,.52.55A.53.53,0,0,1,135.94,117.45Z"/>
    <path id="Trazado_482" data-name="Trazado 482" class="cls-2" d="M118.93,117.45H39.39a.54.54,0,0,1-.52-.56.52.52,0,0,1,.52-.52h79.54a.53.53,0,0,1,.53.55A.55.55,0,0,1,118.93,117.45Z"/>
    <g id="Grupo_252" data-name="Grupo 252">
      <path id="Trazado_473" data-name="Trazado 473" class="cls-2" d="M165.11,112.19H148.26a.51.51,0,0,1-.41-.56.5.5,0,0,1,.41-.52h16.85a.49.49,0,0,1,.4.55A.49.49,0,0,1,165.11,112.19Z"/>
    </g>
    <g id="Grupo_253" data-name="Grupo 253">
      <path id="Trazado_474" data-name="Trazado 474" class="cls-2" d="M145,112.19H139.1c-.23,0-.42-.23-.43-.53a.49.49,0,0,1,.4-.55H145c.23,0,.42.23.43.52a.51.51,0,0,1-.41.56Z"/>
    </g>
    <g id="Grupo_254" data-name="Grupo 254">
      <path id="Trazado_475" data-name="Trazado 475" class="cls-2" d="M135.58,112.19H8.84c-.2,0-.36-.26-.35-.56s.16-.51.35-.52H135.58c.2,0,.36.26.36.55s-.17.52-.36.53Z"/>
    </g>
    <path class="cls-2" d="M86.14,55.09l.07,0,0,0Z"/>
    <rect class="cls-2" x="46.01" y="63.81" width="38.02" height="9.62" transform="translate(-28.72 80.86) rotate(-53.98)"/>
    <path class="cls-2" d="M99.23,22.33c-1.14-.87-2.55-.92-3.17-.12l-1.28,1.68a4.44,4.44,0,0,0-4.59,1.8l-16,21.44a5,5,0,0,0-.93,2.19l7.44,5.56a4.93,4.93,0,0,0,1.83-1.51L95.11,36.51l.72,2.73L88.08,50.58c-3,.3-4.53,1.29-4.52,3h0a.18.18,0,0,0,0,.16.26.26,0,0,0,0,.27,4.65,4.65,0,0,0,4,2.08c1.08-.08,2.59-.8,2.64-2L99.94,40,98,32.64l.53-.7a4.41,4.41,0,0,0,.41-5l1.24-1.61C100.79,24.56,100.37,23.21,99.23,22.33ZM86.14,55.09h0l0,0Z"/>
    <path class="cls-2" d="M92.94,96.73c-.26-.08-.72-.26-1-.08-.47.32-.53.46-1.11.31a8.3,8.3,0,0,0-4.75-.25c-3.41-2.1-7,1-10.51.81-1.61-.08-3.22-.25-4.84-.18a4.41,4.41,0,0,0-2.62.7,2,2,0,0,0-2.79-.21c-.7.52-1.61-.15-2.34-.39a2.11,2.11,0,0,0-2.06.37c-2.45-.9-5.43-.64-8-.83-1.66-.12-3.3,0-5-.16a8.89,8.89,0,0,0-2.58-.08l7-4.42L57.21,88l-3.94-2.92-3.93-2.92L46.6,88,44,97.44a.41.41,0,0,0-.06.2h0a.58.58,0,0,0,.93.4c.86-.72,2.82-.22,3.81-.06,1.44.24,3,0,4.44.07,2.5.18,5.41-.09,7.76.87a.52.52,0,0,0,.52-.13c1.12-1.12,2.51.58,3.82.27a2.49,2.49,0,0,0,.86-.5c.66-.48,1.22.14,1.71.6a.53.53,0,0,0,.83-.11c.31-.58,1.32-.6,1.88-.65a24.35,24.35,0,0,1,3.08,0c.9.06,1.79.14,2.68.15a9.92,9.92,0,0,0,3-.63,14.84,14.84,0,0,1,4.15-1,4,4,0,0,1,2.06.57c.63.36.75.15,1.46,0,1.33-.31,2.87.23,4.14.56a.93.93,0,0,0,1-.26c.54-.52,1.59.38,2,.75s1.25-.28.75-.75A4.54,4.54,0,0,0,92.94,96.73Z"/>
  </g>
</svg>
