<svg id="Capa_1" data-name="Capa 1" xmlns="http://www.w3.org/2000/svg" width="400" height="400" viewBox="0 0 400 400">
  <defs>
    <style>
      .cls-1 {
        fill: #f4f4f4;
      }

      .cls-2 {
        fill: #1f1b36;
      }
    </style>
  </defs>
  <title>lapiceras</title>
  <g id="Grupo_279" data-name="Grupo 279">
    <g id="Sustracción_2" data-name="Sustracción 2">
      <path id="Trazado_402" data-name="Trazado 402" class="cls-1" d="M308.13,301.38h-246a159.88,159.88,0,1,1,246,0Z"/>
    </g>
    <g id="Grupo_261" data-name="Grupo 261">
      <path id="Trazado_481" data-name="Trazado 481" class="cls-2" d="M331.8,315.83H310.34a1.35,1.35,0,0,1-.07-2.7H331.8a1.35,1.35,0,0,1,0,2.7Z"/>
    </g>
    <g id="Grupo_262" data-name="Grupo 262">
      <path id="Trazado_482" data-name="Trazado 482" class="cls-2" d="M289.41,315.83H91.1a1.35,1.35,0,0,1,0-2.7H289.41a1.35,1.35,0,0,1,0,2.7Z"/>
    </g>
    <g id="Grupo_255" data-name="Grupo 255">
      <g id="Grupo_252" data-name="Grupo 252">
        <path id="Trazado_473" data-name="Trazado 473" class="cls-2" d="M404.53,302.72h-42a1.25,1.25,0,0,1-1-1.39,1.23,1.23,0,0,1,1-1.31h42a1.25,1.25,0,0,1,1,1.39A1.23,1.23,0,0,1,404.53,302.72Z"/>
      </g>
      <g id="Grupo_253" data-name="Grupo 253">
        <path id="Trazado_474" data-name="Trazado 474" class="cls-2" d="M354.29,302.72H339.67a1.2,1.2,0,0,1-1.06-1.31,1.24,1.24,0,0,1,1-1.39h14.67a1.2,1.2,0,0,1,1.06,1.31,1.24,1.24,0,0,1-1,1.39Z"/>
      </g>
      <g id="Grupo_254" data-name="Grupo 254">
        <path id="Trazado_475" data-name="Trazado 475" class="cls-2" d="M330.91,302.72h-316c-.5,0-.9-.64-.89-1.39s.41-1.29.89-1.31h316c.51,0,.91.64.9,1.39s-.41,1.29-.9,1.31Z"/>
      </g>
    </g>
  </g>
  <g>
    <path class="cls-2" d="M218.89,173.61l.17.08-.05-.08Z"/>
    <rect class="cls-2" x="119.78" y="195.14" width="93.91" height="23.77" transform="translate(-98.76 220.14) rotate(-53.98)"/>
    <path class="cls-2" d="M251.21,92.71c-2.81-2.15-6.31-2.29-7.83-.31l-3.17,4.14c-3.85-1.05-8.43.62-11.32,4.47L189.28,154a12.19,12.19,0,0,0-2.31,5.39l18.37,13.75a12.25,12.25,0,0,0,4.53-3.73L241,127.72l1.79,6.74-19.14,28c-7.55.75-11.21,3.17-11.17,7.38h.11a.48.48,0,0,0,0,.42.59.59,0,0,0,0,.66,11.49,11.49,0,0,0,9.94,5.13c2.68-.19,6.4-2,6.52-4.94L253,136.21l-4.78-18,1.31-1.75c2.92-3.9,3.19-8.85,1-12.25l3.05-4C255.07,98.21,254,94.86,251.21,92.71Zm-32.32,80.9H219l.05.08Z"/>
    <path class="cls-2" d="M235.67,276.43c-.65-.19-1.78-.63-2.43-.19-1.18.79-1.32,1.14-2.76.77-3.81-1-7.93-1.92-11.73-.62-8.42-5.18-17.15,2.39-25.95,2-4-.18-8-.61-11.94-.44-2.06.09-4.8.31-6.48,1.73-2.15-1.75-4.3-2.43-6.88-.52-1.74,1.28-4-.36-5.79-1a5.22,5.22,0,0,0-5.09.93c-6.05-2.24-13.42-1.6-19.73-2.06-4.11-.3-8.14.13-12.26-.4a21.76,21.76,0,0,0-6.36-.19l17.39-10.92,11.76-10.66-9.71-7.2-9.71-7.2-6.77,14.35-6.38,23.36a1,1,0,0,0-.13.49v0h0a1.41,1.41,0,0,0,2.29,1c2.12-1.76,7-.53,9.39-.13,3.58.59,7.35-.11,11,.16,6.16.45,13.35-.23,19.17,2.16a1.3,1.3,0,0,0,1.28-.34c2.77-2.75,6.2,1.45,9.43.69A6.48,6.48,0,0,0,169.4,281c1.61-1.19,3,.34,4.2,1.48a1.33,1.33,0,0,0,2.06-.26c.77-1.44,3.25-1.5,4.65-1.61a55.23,55.23,0,0,1,7.61.1c2.2.13,4.41.33,6.62.35a23.46,23.46,0,0,0,7.37-1.56c3.35-1.07,6.68-2.28,10.24-2.37a9.64,9.64,0,0,1,5.1,1.39c1.56.88,1.85.36,3.6,0,3.28-.74,7.09.58,10.24,1.39a2.29,2.29,0,0,0,2.57-.65c1.31-1.27,3.92,1,4.88,1.86,1.23,1.16,3.08-.69,1.85-1.85A11.42,11.42,0,0,0,235.67,276.43Z"/>
  </g>
</svg>
