<svg id="Capa_1" data-name="Capa 1" xmlns="http://www.w3.org/2000/svg" width="400" height="400" viewBox="0 0 400 400">
  <defs>
    <style>
      .cls-1 {
        fill: #f4f4f4;
      }

      .cls-2 {
        fill: #1f1b36;
      }
    </style>
  </defs>
  <title>medicionCargaFuego</title>
  <g id="Grupo_279" data-name="Grupo 279">
    <g id="Sustracción_2" data-name="Sustracción 2">
      <path id="Trazado_402" data-name="Trazado 402" class="cls-1" d="M308.13,301.38h-246a159.88,159.88,0,1,1,246,0Z"/>
    </g>
    <g id="Grupo_261" data-name="Grupo 261">
      <path id="Trazado_481" data-name="Trazado 481" class="cls-2" d="M331.8,315.83H310.34a1.35,1.35,0,0,1-.07-2.7H331.8a1.35,1.35,0,0,1,0,2.7Z"/>
    </g>
    <g id="Grupo_262" data-name="Grupo 262">
      <path id="Trazado_482" data-name="Trazado 482" class="cls-2" d="M289.41,315.83H91.1a1.35,1.35,0,0,1,0-2.7H289.41a1.35,1.35,0,0,1,0,2.7Z"/>
    </g>
    <g id="Grupo_255" data-name="Grupo 255">
      <g id="Grupo_252" data-name="Grupo 252">
        <path id="Trazado_473" data-name="Trazado 473" class="cls-2" d="M404.53,302.72h-42a1.25,1.25,0,0,1-1-1.39,1.23,1.23,0,0,1,1-1.31h42a1.25,1.25,0,0,1,1,1.39A1.23,1.23,0,0,1,404.53,302.72Z"/>
      </g>
      <g id="Grupo_253" data-name="Grupo 253">
        <path id="Trazado_474" data-name="Trazado 474" class="cls-2" d="M354.29,302.72H339.67a1.2,1.2,0,0,1-1.06-1.31,1.24,1.24,0,0,1,1-1.39h14.67a1.2,1.2,0,0,1,1.06,1.31,1.24,1.24,0,0,1-1,1.39Z"/>
      </g>
      <g id="Grupo_254" data-name="Grupo 254">
        <path id="Trazado_475" data-name="Trazado 475" class="cls-2" d="M330.91,302.72h-316c-.5,0-.9-.64-.89-1.39s.41-1.29.89-1.31h316c.51,0,.91.64.9,1.39s-.41,1.29-.9,1.31Z"/>
      </g>
    </g>
  </g>
  <g>
    <g>
      <path class="cls-2" d="M221.94,284.74H181a15,15,0,0,1-15-15V165.08a35.46,35.46,0,0,1,70.92,0V269.76A15,15,0,0,1,221.94,284.74ZM201.47,135.88a29.24,29.24,0,0,0-29.21,29.2V269.76a8.74,8.74,0,0,0,8.73,8.73h40.95a8.74,8.74,0,0,0,8.73-8.73V165.08A29.23,29.23,0,0,0,201.47,135.88Z"/>
      <path class="cls-2" d="M233.44,243.51H188.92a3.13,3.13,0,0,1-3.12-3.13v-57a3.13,3.13,0,0,1,3.12-3.13h44.52a3.13,3.13,0,1,1,0,6.25H192.05v50.77h41.39a3.13,3.13,0,0,1,0,6.26Z"/>
      <path class="cls-2" d="M201.47,135.88a10.72,10.72,0,1,1,10.72-10.72A10.73,10.73,0,0,1,201.47,135.88Zm0-15.19a4.47,4.47,0,1,0,4.46,4.47A4.48,4.48,0,0,0,201.47,120.69Z"/>
      <path class="cls-2" d="M207,133.49a3.13,3.13,0,0,1-.37-6.23L222,125.43l-14.69-2.75a3.12,3.12,0,0,1-1-5.8l16.36-9.19-33.61,7.44,0,0s0,0,0,.06h0l7.07,3.71a3.13,3.13,0,0,1-2.9,5.54l-7.07-3.71A6.29,6.29,0,0,1,187.75,109l44.78-9.92a4.56,4.56,0,0,1,3.22,8.43l-18.83,10.58,17.11,3.2a4.56,4.56,0,0,1-.3,9l-26.37,3.14A2.36,2.36,0,0,1,207,133.49Z"/>
    </g>
    <path class="cls-2" d="M142.54,202.5a3.13,3.13,0,0,1-3.13-3.12V170.73a43.54,43.54,0,0,1,43.49-43.49H194a3.13,3.13,0,1,1,0,6.25H182.9a37.28,37.28,0,0,0-37.23,37.24v28.65A3.13,3.13,0,0,1,142.54,202.5Z"/>
    <path class="cls-2" d="M153.09,260.4H130.66a3.13,3.13,0,0,1-3.11-3.52l7.09-56.29a3.14,3.14,0,0,1,3.11-2.74h8.75a3.13,3.13,0,0,1,3.11,2.77l6.59,56.29a3.13,3.13,0,0,1-3.11,3.49Zm-18.89-6.25h15.38l-5.86-50H140.5Z"/>
  </g>
</svg>
