<svg id="Capa_1" data-name="Capa 1" xmlns="http://www.w3.org/2000/svg" width="400" height="400" viewBox="0 0 400 400">
  <defs>
    <style>
      .cls-1 {
        fill: #f4f4f4;
      }

      .cls-2 {
        fill: #1f1b36;
      }
    </style>
  </defs>
  <title>medicionIluminacion</title>
  <g id="Grupo_279" data-name="Grupo 279">
    <g id="Sustracción_2" data-name="Sustracción 2">
      <path id="Trazado_402" data-name="Trazado 402" class="cls-1" d="M308.13,301.38h-246a159.88,159.88,0,1,1,246,0Z"/>
    </g>
    <g id="Grupo_261" data-name="Grupo 261">
      <path id="Trazado_481" data-name="Trazado 481" class="cls-2" d="M331.8,315.83H310.34a1.35,1.35,0,0,1-.07-2.7H331.8a1.35,1.35,0,0,1,0,2.7Z"/>
    </g>
    <g id="Grupo_262" data-name="Grupo 262">
      <path id="Trazado_482" data-name="Trazado 482" class="cls-2" d="M289.41,315.83H91.1a1.35,1.35,0,0,1,0-2.7H289.41a1.35,1.35,0,0,1,0,2.7Z"/>
    </g>
    <g id="Grupo_255" data-name="Grupo 255">
      <g id="Grupo_252" data-name="Grupo 252">
        <path id="Trazado_473" data-name="Trazado 473" class="cls-2" d="M404.53,302.72h-42a1.25,1.25,0,0,1-1-1.39,1.23,1.23,0,0,1,1-1.31h42a1.25,1.25,0,0,1,1,1.39A1.23,1.23,0,0,1,404.53,302.72Z"/>
      </g>
      <g id="Grupo_253" data-name="Grupo 253">
        <path id="Trazado_474" data-name="Trazado 474" class="cls-2" d="M354.29,302.72H339.67a1.2,1.2,0,0,1-1.06-1.31,1.24,1.24,0,0,1,1-1.39h14.67a1.2,1.2,0,0,1,1.06,1.31,1.24,1.24,0,0,1-1,1.39Z"/>
      </g>
      <g id="Grupo_254" data-name="Grupo 254">
        <path id="Trazado_475" data-name="Trazado 475" class="cls-2" d="M330.91,302.72h-316c-.5,0-.9-.64-.89-1.39s.41-1.29.89-1.31h316c.51,0,.91.64.9,1.39s-.41,1.29-.9,1.31Z"/>
      </g>
    </g>
  </g>
  <g>
    <path class="cls-2" d="M181.05,218.14a30.63,30.63,0,0,0,11.8,0,29.32,29.32,0,0,0,1.09-5.23q.23-8.41.06-16.82c-.08-3.72,1.39-6.31,5-7.15,7.24-1.7,14.54-3.2,21.84-4.66a10.1,10.1,0,0,1,4,.24,5.82,5.82,0,0,1,3.29,9.4c-1.81,2.28-4.29,3.06-7,3.32a33.4,33.4,0,0,0-13.18,3.68,46.35,46.35,0,0,0-.18,16.53c3.2,1.77,6.46,1,9.57,1.26,4.08.31,5.21,1.4,5,5.5-.2,5.12-1.21,10-4.51,14.21a95.39,95.39,0,0,0-6.29,9.26c-2.33,3.81-4.42,7.76-7,12.33-11.08.64-23,.84-35.31.37-2.55-9.11-8.49-16-13.84-23.19-3.76-5.09-3.92-10.83-3.5-16.66,2.15-2.66,5-1.91,7.53-1.77,8.09.44,8.32-1.51,8.22-8-.21-13.12,1.41-11.6-9.64-17.51-2.81-1.5-5.4-3.39-8.07-5.14a17,17,0,0,1-3.16-2.38,6.06,6.06,0,0,1,1.88-10,43.68,43.68,0,0,1,8.36-2.55c7.77-1.75,15.57-3.36,23.36-5,2.08-.43,4.18-.76,6.26-1.18,2.6-.52,5.19-1.09,7.79-1.63,9.11-1.92,18.22-3.9,27.36-5.69,2.85-.56,5.81,1.35,7.15,4a4.88,4.88,0,0,1-1.54,6.39,23.59,23.59,0,0,1-7.26,3.08c-11.18,2.38-22.44,4.44-33.63,6.76-4.91,1-9.75,2.42-15.16,3.78.66,1.25,1,2.93,1.82,3.29,6.63,2.79,7.69,8.09,7.22,14.43-.29,4-.11,8,0,12A38.77,38.77,0,0,0,181.05,218.14Z"/>
    <path class="cls-2" d="M152.36,163.27c-3.61,0-6.34-1.36-7.07-3.43a6.84,6.84,0,0,1,3.07-8.23,15.3,15.3,0,0,1,4.41-1.78c15.35-3.12,30.72-6.11,46.06-9.25,6.75-1.38,13.45-3.06,20.18-4.56a17.36,17.36,0,0,1,3.9-.59,7.2,7.2,0,0,1,6.42,5.13c.5,2.21-1.07,5.31-3.63,6.54a28.32,28.32,0,0,1-6,2.08c-7.26,1.64-14.55,3.16-21.84,4.68-6,1.24-11.94,2.36-17.89,3.62-8,1.7-16.06,3.5-24.1,5.23C154.57,163,153.24,163.13,152.36,163.27Z"/>
    <path class="cls-2" d="M180,120.19a56.38,56.38,0,0,1,.88-6.34c.92-3.39,3.11-4.94,6.38-4.85s5.51,1.66,5.87,5.26a61.56,61.56,0,0,1,.07,11.91c-.16,1.56-1.76,3.16-3.06,4.38a7.79,7.79,0,0,1-3.61,1.49c-7.51,1.6-15,3.09-22.58,4.65-2.6.54-5.17,1.24-7.78,1.7a21.27,21.27,0,0,1-5.49.45c-3.17-.29-5.09-2.19-5.46-4.87-.46-3.31.8-5.79,4.08-6.84,4-1.29,8.18-2.25,12.33-3.17C167.56,122.65,173.52,121.51,180,120.19Z"/>
    <path class="cls-2" d="M173.76,268.09c9.48-.21,18.07-.71,26.88.29-3.93,8-6.3,9.45-14.85,9.27C179.9,277.53,177,275.4,173.76,268.09Z"/>
  </g>
</svg>
