<svg id="Capa_1" data-name="Capa 1" xmlns="http://www.w3.org/2000/svg" width="400" height="400" viewBox="0 0 400 400">
  <defs>
    <style>
      .cls-1 {
        fill: #f4f4f4;
      }

      .cls-2 {
        fill: #1f1b36;
      }
    </style>
  </defs>
  <title>medicionSonora</title>
  <g id="Grupo_279" data-name="Grupo 279">
    <g id="Sustracción_2" data-name="Sustracción 2">
      <path id="Trazado_402" data-name="Trazado 402" class="cls-1" d="M308.13,301.38h-246a159.88,159.88,0,1,1,246,0Z"/>
    </g>
    <g id="Grupo_261" data-name="Grupo 261">
      <path id="Trazado_481" data-name="Trazado 481" class="cls-2" d="M331.8,315.83H310.34a1.35,1.35,0,0,1-.07-2.7H331.8a1.35,1.35,0,0,1,0,2.7Z"/>
    </g>
    <g id="Grupo_262" data-name="Grupo 262">
      <path id="Trazado_482" data-name="Trazado 482" class="cls-2" d="M289.41,315.83H91.1a1.35,1.35,0,0,1,0-2.7H289.41a1.35,1.35,0,0,1,0,2.7Z"/>
    </g>
    <g id="Grupo_255" data-name="Grupo 255">
      <g id="Grupo_252" data-name="Grupo 252">
        <path id="Trazado_473" data-name="Trazado 473" class="cls-2" d="M404.53,302.72h-42a1.25,1.25,0,0,1-1-1.39,1.23,1.23,0,0,1,1-1.31h42a1.25,1.25,0,0,1,1,1.39A1.23,1.23,0,0,1,404.53,302.72Z"/>
      </g>
      <g id="Grupo_253" data-name="Grupo 253">
        <path id="Trazado_474" data-name="Trazado 474" class="cls-2" d="M354.29,302.72H339.67a1.2,1.2,0,0,1-1.06-1.31,1.24,1.24,0,0,1,1-1.39h14.67a1.2,1.2,0,0,1,1.06,1.31,1.24,1.24,0,0,1-1,1.39Z"/>
      </g>
      <g id="Grupo_254" data-name="Grupo 254">
        <path id="Trazado_475" data-name="Trazado 475" class="cls-2" d="M330.91,302.72h-316c-.5,0-.9-.64-.89-1.39s.41-1.29.89-1.31h316c.51,0,.91.64.9,1.39s-.41,1.29-.9,1.31Z"/>
      </g>
    </g>
  </g>
  <g>
    <path class="cls-2" d="M182.7,135.31a51.53,51.53,0,0,0-19.31-12.78,50.35,50.35,0,0,0-24-2.61,37.93,37.93,0,0,0-17.47,6.72,39.65,39.65,0,0,0-11.43,12.84,50.21,50.21,0,0,0-6.3,21.2,44.16,44.16,0,0,0,3.06,20.26,4,4,0,1,0,7.37-3.19c-4.25-9.81-3.08-23.91,2.84-34.3,3.55-6.22,10.41-14,22.94-15.57,14-1.77,26.62,2.73,36.54,13,13.81,14.3,20,38.07,16.07,62.05-7.76,47.76-37.93,68.24-63.58,71.49-5.4.69-10.58-.8-13.85-4a11.6,11.6,0,0,1-3.48-9.77,4,4,0,1,0-8-.76A19.62,19.62,0,0,0,110,276.22a23.84,23.84,0,0,0,16.78,6.41,28.62,28.62,0,0,0,3.67-.24,72.81,72.81,0,0,0,23.15-7,77.43,77.43,0,0,0,20.93-15.21A89.2,89.2,0,0,0,191,236.51a117.47,117.47,0,0,0,9.91-32.28,92.86,92.86,0,0,0-1.7-38.74C196,153.62,190.31,143.18,182.7,135.31Z"/>
    <path class="cls-2" d="M121.82,221.4c-2.77,2-4.59,5.58-5.13,10a23.33,23.33,0,0,0,1.59,11.6c2.36,5.58,6.69,8.7,11.84,8.7a13.34,13.34,0,0,0,2.33-.2c8.83-1.55,18.43-9.43,26.35-21.62,7.49-11.55,12.1-25,12.33-35.88a27.9,27.9,0,0,0-4.93-16.49,27.37,27.37,0,0,0-12.73-10.06,24.17,24.17,0,0,0-14.81-.84,25.86,25.86,0,0,0-9.88,5.1,28,28,0,0,1,3-20.14c2.53-4.44,5.93-6.78,10.71-7.39,8.75-1.11,16.36,1.62,22.62,8.11,10.28,10.63,14.74,29,11.66,48a87.34,87.34,0,0,1-10.22,30,3.66,3.66,0,0,0,1.33,5,3.7,3.7,0,0,0,1.83.49,3.63,3.63,0,0,0,3.15-1.82,94.87,94.87,0,0,0,11.11-32.51c3.44-21.18-1.77-41.95-13.61-54.21a34.43,34.43,0,0,0-13.18-8.73A33.43,33.43,0,0,0,141.54,137c-7,.9-12.47,4.6-16.12,11a36.26,36.26,0,0,0-4.56,19.87,33.93,33.93,0,0,0,3.06,11.88l.12.24c.17.37.34.73.53,1.09a44.8,44.8,0,0,0,10.76,13.37,3.65,3.65,0,0,0,4.79-5.5,38.8,38.8,0,0,1-8.44-10c5.57-5.49,12.46-7.19,19.21-4.63a20.37,20.37,0,0,1,12.94,19.58c-.19,9.62-4.36,21.6-11.15,32.06s-14.75,17.22-21.49,18.4c-2.74.48-4.82-.92-6.2-4.15-2.11-5-1.14-11.25,1.12-12.9,4.83-3.51,10.24-8.59,9.21-16.72a16.72,16.72,0,0,0-4.46-9.59,16.31,16.31,0,0,0-9.76-4.76,3.65,3.65,0,0,0-.94,7.23,8.79,8.79,0,0,1,7.92,8C128.53,215.07,126.84,217.75,121.82,221.4Z"/>
    <path class="cls-2" d="M230,201.06a44.46,44.46,0,0,1,13.11-31.67,4,4,0,0,0-5.67-5.68,52.77,52.77,0,0,0,0,74.69,4,4,0,1,0,5.67-5.67A44.49,44.49,0,0,1,230,201.06Z"/>
    <path class="cls-2" d="M246,201.06a28.52,28.52,0,0,1,8.41-20.3,4,4,0,0,0-5.67-5.67,36.71,36.71,0,0,0,0,51.93,4,4,0,1,0,5.67-5.67A28.52,28.52,0,0,1,246,201.06Z"/>
    <path class="cls-2" d="M262.13,201.06a12.5,12.5,0,0,1,3.7-8.92,4,4,0,1,0-5.68-5.68,20.65,20.65,0,0,0,0,29.19,4,4,0,1,0,5.68-5.68A12.5,12.5,0,0,1,262.13,201.06Z"/>
  </g>
</svg>
