<svg id="Capa_1" data-name="Capa 1" xmlns="http://www.w3.org/2000/svg" width="400" height="400" viewBox="0 0 400 400">
  <defs>
    <style>
      .cls-1 {
        fill: #f4f4f4;
      }

      .cls-2 {
        fill: #1f1b36;
      }
    </style>
  </defs>
  <title>medicionPuestaTierra</title>
  <g id="Grupo_279" data-name="Grupo 279">
    <g id="Sustracción_2" data-name="Sustracción 2">
      <path id="Trazado_402" data-name="Trazado 402" class="cls-1" d="M308.13,301.38h-246a159.88,159.88,0,1,1,246,0Z"/>
    </g>
    <g id="Grupo_261" data-name="Grupo 261">
      <path id="Trazado_481" data-name="Trazado 481" class="cls-2" d="M331.8,315.83H310.34a1.35,1.35,0,0,1-.07-2.7H331.8a1.35,1.35,0,0,1,0,2.7Z"/>
    </g>
    <g id="Grupo_262" data-name="Grupo 262">
      <path id="Trazado_482" data-name="Trazado 482" class="cls-2" d="M289.41,315.83H91.1a1.35,1.35,0,0,1,0-2.7H289.41a1.35,1.35,0,0,1,0,2.7Z"/>
    </g>
    <g id="Grupo_255" data-name="Grupo 255">
      <g id="Grupo_252" data-name="Grupo 252">
        <path id="Trazado_473" data-name="Trazado 473" class="cls-2" d="M404.53,302.72h-42a1.25,1.25,0,0,1-1-1.39,1.23,1.23,0,0,1,1-1.31h42a1.25,1.25,0,0,1,1,1.39A1.23,1.23,0,0,1,404.53,302.72Z"/>
      </g>
      <g id="Grupo_253" data-name="Grupo 253">
        <path id="Trazado_474" data-name="Trazado 474" class="cls-2" d="M354.29,302.72H339.67a1.2,1.2,0,0,1-1.06-1.31,1.24,1.24,0,0,1,1-1.39h14.67a1.2,1.2,0,0,1,1.06,1.31,1.24,1.24,0,0,1-1,1.39Z"/>
      </g>
      <g id="Grupo_254" data-name="Grupo 254">
        <path id="Trazado_475" data-name="Trazado 475" class="cls-2" d="M330.91,302.72h-316c-.5,0-.9-.64-.89-1.39s.41-1.29.89-1.31h316c.51,0,.91.64.9,1.39s-.41,1.29-.9,1.31Z"/>
      </g>
    </g>
  </g>
  <g>
    <path class="cls-2" d="M153.73,249.74a63.17,63.17,0,0,1,11.54-109.4l8.48-19.47A79.21,79.21,0,0,0,148.34,265.4Z"/>
    <polygon class="cls-2" points="190.8 178.84 235.82 109.98 191.59 109.98 151.59 201.77 182.91 201.77 154.8 283.54 228.72 178.84 190.8 178.84"/>
    <path class="cls-2" d="M235.18,132.88l-8.77,13.42A63.24,63.24,0,0,1,190.5,261.62c-1.81,0-3.58-.12-5.35-.27l-10.37,14.7a79.26,79.26,0,0,0,60.4-143.17Z"/>
  </g>
</svg>
