<svg id="Capa_1" data-name="Capa 1" xmlns="http://www.w3.org/2000/svg" width="400" height="400" viewBox="0 0 400 400">
  <defs>
    <style>
      .cls-1 {
        fill: #f4f4f4;
      }

      .cls-2 {
        fill: #1f1b36;
      }
    </style>
  </defs>
  <title>mochila</title>
  <g id="Grupo_279" data-name="Grupo 279">
    <g id="Sustracción_2" data-name="Sustracción 2">
      <path id="Trazado_402" data-name="Trazado 402" class="cls-1" d="M308.13,301.38h-246a159.88,159.88,0,1,1,246,0Z"/>
    </g>
    <g id="Grupo_261" data-name="Grupo 261">
      <path id="Trazado_481" data-name="Trazado 481" class="cls-2" d="M331.8,315.83H310.34a1.35,1.35,0,0,1-.07-2.7H331.8a1.35,1.35,0,0,1,0,2.7Z"/>
    </g>
    <g id="Grupo_262" data-name="Grupo 262">
      <path id="Trazado_482" data-name="Trazado 482" class="cls-2" d="M289.41,315.83H91.1a1.35,1.35,0,0,1,0-2.7H289.41a1.35,1.35,0,0,1,0,2.7Z"/>
    </g>
    <g id="Grupo_255" data-name="Grupo 255">
      <g id="Grupo_252" data-name="Grupo 252">
        <path id="Trazado_473" data-name="Trazado 473" class="cls-2" d="M404.53,302.72h-42a1.25,1.25,0,0,1-1-1.39,1.23,1.23,0,0,1,1-1.31h42a1.25,1.25,0,0,1,1,1.39A1.23,1.23,0,0,1,404.53,302.72Z"/>
      </g>
      <g id="Grupo_253" data-name="Grupo 253">
        <path id="Trazado_474" data-name="Trazado 474" class="cls-2" d="M354.29,302.72H339.67a1.2,1.2,0,0,1-1.06-1.31,1.24,1.24,0,0,1,1-1.39h14.67a1.2,1.2,0,0,1,1.06,1.31,1.24,1.24,0,0,1-1,1.39Z"/>
      </g>
      <g id="Grupo_254" data-name="Grupo 254">
        <path id="Trazado_475" data-name="Trazado 475" class="cls-2" d="M330.91,302.72h-316c-.5,0-.9-.64-.89-1.39s.41-1.29.89-1.31h316c.51,0,.91.64.9,1.39s-.41,1.29-.9,1.31Z"/>
      </g>
    </g>
  </g>
  <g>
    <path class="cls-2" d="M199,172.84H175.06A28.5,28.5,0,0,0,146.6,201.3V234a2.69,2.69,0,0,0,2.69,2.69h75.42A2.68,2.68,0,0,0,227.4,234V201.3A28.49,28.49,0,0,0,199,172.84ZM222,231.28H152v-30a23.1,23.1,0,0,1,23.08-23.08H199A23.1,23.1,0,0,1,222,201.3Z"/>
    <path class="cls-2" d="M224.71,241.66H149.29a2.69,2.69,0,0,0-2.69,2.69V270.9a2.69,2.69,0,0,0,2.69,2.69h75.42a2.68,2.68,0,0,0,2.69-2.69V244.35A2.68,2.68,0,0,0,224.71,241.66ZM222,268.21H152V247h70Z"/>
    <path class="cls-2" d="M215,195.67a2.69,2.69,0,0,0-2.69-2.69H161.67a2.69,2.69,0,1,0,0,5.38h50.67A2.7,2.7,0,0,0,215,195.67Z"/>
    <path class="cls-2" d="M253.08,140.58a8,8,0,0,0-3.56-9.62l-6.93-4a9.72,9.72,0,0,0-13.29,3.57l-11.61,20.1c-1.33-.6-2.68-1.16-4.06-1.66-2.79-16.34-13.37-33-26.63-33s-23.84,16.62-26.63,33c-1.38.5-2.73,1.06-4.05,1.66l-11.61-20.1a9.74,9.74,0,0,0-13.3-3.57l-6.93,4a8,8,0,0,0-3.56,9.63l8.29,41.11a49.77,49.77,0,0,0-2.15,14.52v81.2A10.56,10.56,0,0,0,137.61,288H236.4A10.56,10.56,0,0,0,247,277.42v-81.2a50.1,50.1,0,0,0-2.15-14.52Zm-15.3,26.79,6.78-11.75-3.45,17.15A49.51,49.51,0,0,0,237.78,167.37ZM234,133.2a4.37,4.37,0,0,1,6-1.59l6.93,4a2.68,2.68,0,0,1,1,3.64l-13.62,23.59a50.56,50.56,0,0,0-11.74-9.71ZM187,121.38c9.33,0,17.82,12.84,20.81,25.9a51.14,51.14,0,0,0-5.71-1C199.79,136.49,194.37,127,187,127s-12.79,9.5-15.1,19.33a51.14,51.14,0,0,0-5.71,1C169.18,134.22,177.67,121.38,187,121.38ZM196.48,146h-19c2.13-7.75,6.13-13.67,9.48-13.67S194.35,138.29,196.48,146Zm-69.31-10.43,6.93-4a4.37,4.37,0,0,1,6,1.59l11.5,19.93a50.77,50.77,0,0,0-11.74,9.71L126.2,139.25A2.67,2.67,0,0,1,127.17,135.61Zm2.27,20,6.78,11.75a49.51,49.51,0,0,0-3.33,5.4Zm112.13,121.8a5.18,5.18,0,0,1-5.17,5.17H137.61a5.18,5.18,0,0,1-5.17-5.17v-81.2a44.85,44.85,0,0,1,44.8-44.8h19.52a44.86,44.86,0,0,1,44.81,44.8Z"/>
    <path class="cls-2" d="M213.8,203.06a2.69,2.69,0,0,0-5.38,0v7.58a7.36,7.36,0,1,0,5.38,0Zm-2.69,16.41a2,2,0,1,1,2-2A2,2,0,0,1,211.11,219.47Z"/>
  </g>
</svg>
