<svg id="Capa_1" data-name="Capa 1" xmlns="http://www.w3.org/2000/svg" width="174" height="124" viewBox="0 0 174 124">
  <defs>
    <style>
      .cls-1 {
        fill: #f4f4f4;
      }

      .cls-2 {
        fill: #1f1b36;
      }
    </style>
  </defs>
  <title>mochila</title>
  <g>
    <path id="Trazado_402" data-name="Trazado 402" class="cls-1" d="M125,109.84H30a61.78,61.78,0,1,1,95.05,0Z"/>
    <path id="Trazado_481" data-name="Trazado 481" class="cls-2" d="M134.15,115.42h-8.29a.53.53,0,0,1-.54-.51.51.51,0,0,1,.51-.53h8.32a.5.5,0,0,1,.5.53A.52.52,0,0,1,134.15,115.42Z"/>
    <path id="Trazado_482" data-name="Trazado 482" class="cls-2" d="M117.77,115.42H41.13a.52.52,0,0,1-.5-.54.51.51,0,0,1,.5-.5h76.64a.51.51,0,0,1,.5.53A.52.52,0,0,1,117.77,115.42Z"/>
    <g id="Grupo_252" data-name="Grupo 252">
      <path id="Trazado_473" data-name="Trazado 473" class="cls-2" d="M162.25,110.36H146a.48.48,0,0,1-.39-.54.47.47,0,0,1,.39-.51h16.23a.48.48,0,0,1,.39.54A.47.47,0,0,1,162.25,110.36Z"/>
    </g>
    <g id="Grupo_253" data-name="Grupo 253">
      <path id="Trazado_474" data-name="Trazado 474" class="cls-2" d="M142.84,110.36h-5.65a.47.47,0,0,1-.41-.51.48.48,0,0,1,.39-.54h5.67c.22,0,.4.22.41.51a.48.48,0,0,1-.39.54Z"/>
    </g>
    <g id="Grupo_254" data-name="Grupo 254">
      <path id="Trazado_475" data-name="Trazado 475" class="cls-2" d="M133.8,110.36H11.7c-.19,0-.35-.25-.34-.54s.15-.5.34-.51H133.8c.2,0,.35.25.35.54s-.16.5-.35.51Z"/>
    </g>
    <path class="cls-2" d="M86.53,51.92H75.26A13.46,13.46,0,0,0,61.82,65.36V80.78a1.27,1.27,0,0,0,1.27,1.27H98.7A1.26,1.26,0,0,0,100,80.78V65.36A13.45,13.45,0,0,0,86.53,51.92Zm10.9,27.59H64.36V65.36a10.91,10.91,0,0,1,10.9-10.9H86.53a10.91,10.91,0,0,1,10.9,10.9Z"/>
    <path class="cls-2" d="M98.7,84.41H63.09a1.27,1.27,0,0,0-1.27,1.27V98.22a1.27,1.27,0,0,0,1.27,1.27H98.7A1.26,1.26,0,0,0,100,98.22V85.68A1.26,1.26,0,0,0,98.7,84.41ZM97.43,97H64.36V87H97.43Z"/>
    <path class="cls-2" d="M94.12,62.7a1.27,1.27,0,0,0-1.27-1.27H68.93a1.27,1.27,0,0,0,0,2.54H92.85A1.27,1.27,0,0,0,94.12,62.7Z"/>
    <path class="cls-2" d="M112.09,36.7a3.82,3.82,0,0,0-1.68-4.55l-3.28-1.89a4.59,4.59,0,0,0-6.27,1.68l-5.48,9.5c-.63-.29-1.26-.56-1.92-.79-1.31-7.71-6.31-15.56-12.57-15.56S69.64,32.94,68.32,40.65c-.65.24-1.29.5-1.91.79l-5.48-9.5a4.6,4.6,0,0,0-6.28-1.68l-3.27,1.89A3.82,3.82,0,0,0,49.7,36.7l3.91,19.4a23.62,23.62,0,0,0-1,6.86v38.33a5,5,0,0,0,5,5h46.63a5,5,0,0,0,5-5V63a24,24,0,0,0-1-6.86Zm-7.22,12.64,3.2-5.54-1.63,8.09A23.54,23.54,0,0,0,104.87,49.34Zm-1.81-16.13a2,2,0,0,1,1.25-1,2,2,0,0,1,1.55.2l3.28,1.89a1.27,1.27,0,0,1,.46,1.72L103.17,47.2a23.94,23.94,0,0,0-5.54-4.58ZM80.89,27.63c4.41,0,8.42,6.06,9.83,12.23a22,22,0,0,0-2.7-.45c-1.09-4.64-3.65-9.13-7.13-9.13s-6,4.49-7.12,9.13a21.72,21.72,0,0,0-2.7.45C72.48,33.69,76.49,27.63,80.89,27.63Zm4.48,11.64h-9c1-3.65,2.89-6.45,4.47-6.45S84.36,35.62,85.37,39.27ZM52.65,34.35l3.27-1.89a2.07,2.07,0,0,1,2.81.75l5.43,9.41a23.94,23.94,0,0,0-5.54,4.58L52.19,36.07A1.26,1.26,0,0,1,52.65,34.35Zm1.07,9.45,3.2,5.54a23.54,23.54,0,0,0-1.57,2.55Zm52.93,57.49a2.44,2.44,0,0,1-2.44,2.44H57.58a2.44,2.44,0,0,1-2.44-2.44V63A21.17,21.17,0,0,1,76.29,41.81H85.5A21.18,21.18,0,0,1,106.65,63Z"/>
    <path class="cls-2" d="M93.54,66.19a1.27,1.27,0,0,0-2.54,0v3.58a3.48,3.48,0,1,0,2.54,0Zm-1.27,7.74a.94.94,0,1,1,.94-.93A.93.93,0,0,1,92.27,73.93Z"/>
  </g>
</svg>
