<svg id="Capa_1" data-name="Capa 1" xmlns="http://www.w3.org/2000/svg" width="174" height="124" viewBox="0 0 174 124">
  <defs>
    <style>
      .cls-1 {
        fill: #f4f4f4;
      }

      .cls-2 {
        fill: #1f1b36;
      }
    </style>
  </defs>
  <title>rinonera</title>
  <g>
    <path id="Trazado_402" data-name="Trazado 402" class="cls-1" d="M126.52,111.75H27.67a64.25,64.25,0,1,1,98.85,0Z"/>
    <path id="Trazado_481" data-name="Trazado 481" class="cls-2" d="M136,117.55h-8.62a.54.54,0,0,1-.56-.52.55.55,0,0,1,.53-.56H136a.55.55,0,0,1,.53.56A.53.53,0,0,1,136,117.55Z"/>
    <path id="Trazado_482" data-name="Trazado 482" class="cls-2" d="M119,117.55H39.3a.54.54,0,0,1-.53-.55.55.55,0,0,1,.53-.53H119a.55.55,0,0,1,.53.56A.53.53,0,0,1,119,117.55Z"/>
    <g id="Grupo_252" data-name="Grupo 252">
      <path id="Trazado_473" data-name="Trazado 473" class="cls-2" d="M165.26,112.29H148.37a.5.5,0,0,1-.4-.56.49.49,0,0,1,.4-.53h16.89a.5.5,0,0,1,.4.56A.49.49,0,0,1,165.26,112.29Z"/>
    </g>
    <g id="Grupo_253" data-name="Grupo 253">
      <path id="Trazado_474" data-name="Trazado 474" class="cls-2" d="M145.07,112.29H139.2a.48.48,0,0,1-.43-.53.5.5,0,0,1,.4-.56h5.9c.23,0,.42.23.43.53a.51.51,0,0,1-.41.56Z"/>
    </g>
    <g id="Grupo_254" data-name="Grupo 254">
      <path id="Trazado_475" data-name="Trazado 475" class="cls-2" d="M135.67,112.29H8.69c-.2,0-.36-.26-.35-.56s.16-.52.35-.53h127c.21,0,.37.26.36.56s-.16.52-.36.53Z"/>
    </g>
    <path class="cls-2" d="M47.23,73.76A48.2,48.2,0,0,1,55,72.29c1.46-.19,2.66-.26,4.16-.48,1.32-.19,2.65-.4,4-.64a107.58,107.58,0,0,0,15.26-4,117.67,117.67,0,0,0,14.67-6c1.17-.59,2.33-1.19,3.47-1.83s2.3-1.33,3.5-1.92a23.58,23.58,0,0,1,3.64-1.31,15.82,15.82,0,0,0,3.6-1.52,4.26,4.26,0,0,1,1.57-.65,3.9,3.9,0,0,1,1.71.34l2,.71c.65.22,1.33.41,2,.68.15.07.28.13.33.29a1.44,1.44,0,0,1,0,.68,15.3,15.3,0,0,1-.41,1.75,17.29,17.29,0,0,1-1.34,3.21c-2.38,4.44-6.35,7.7-10.52,10.42-2.24,1.45-4.54,2.86-6.91,4.09a39.32,39.32,0,0,1-7.62,3,66.65,66.65,0,0,1-16.2,2.4,81.9,81.9,0,0,1-16.4-1.24c-1.34-.24-2.67-.5-4-.8a5.32,5.32,0,0,1-2.94-1.37,5.41,5.41,0,0,1-1-3,2.83,2.83,0,0,1,0-.82c0-.2.15-.27.32-.35a13.23,13.23,0,0,1,1.93-.64c.62-.17,1.24-.32,1.87-.43a18.89,18.89,0,0,1,2-.29c.8-.06.81-1.31,0-1.26s-1.44.07-2.16.19a21.08,21.08,0,0,0-2.06.46,16.92,16.92,0,0,0-2,.67,1.83,1.83,0,0,0-1.28,1.55,6.91,6.91,0,0,0,.18,1.86,7.29,7.29,0,0,0,.5,1.77,4.56,4.56,0,0,0,2.64,2.44,21,21,0,0,0,3.73.93c1.41.28,2.83.53,4.25.74a84.87,84.87,0,0,0,8.57.86,74,74,0,0,0,17.2-1.16,54.77,54.77,0,0,0,8.27-2.2,45.76,45.76,0,0,0,7.72-3.73c4.6-2.71,9.28-5.65,12.69-9.83a21.41,21.41,0,0,0,3.73-6.57,16.33,16.33,0,0,0,.48-1.73,4.55,4.55,0,0,0,.17-2,1.86,1.86,0,0,0-1.3-1.29c-.66-.26-1.34-.48-2-.71l-2.07-.73a4.86,4.86,0,0,0-2-.38c-1.3.12-2.43.91-3.66,1.31s-2.56.72-3.83,1.14a23,23,0,0,0-3.87,1.78c-2.41,1.33-4.83,2.63-7.34,3.77s-5,2.12-7.49,3A133.37,133.37,0,0,1,66.79,67.8c-2.67.58-5.35,1.08-8,1.56-1.37.25-2.73.58-4.08.9a31.3,31.3,0,0,0-4,1.2A38.19,38.19,0,0,0,47,73.08a.37.37,0,0,0,.28.68Z"/>
    <path class="cls-2" d="M118,63.9a30.21,30.21,0,0,0-.65-5.85c-.22-.9-.4-1.81-.63-2.71-.13-.53-.86-.29-.78.22.13.94.24,1.88.28,2.83s.15,1.85.2,2.78c.1,1.88.15,3.76.09,5.65a52.72,52.72,0,0,1-1.53,11c-.83,3.34-1.87,6.92-4.18,9.57s-5.34,4.29-8.31,5.85A65,65,0,0,1,82.3,99.84c-1.73.27-3.47.46-5.21.58a25.56,25.56,0,0,1-5.46,0,16.34,16.34,0,0,1-5.09-1.87A41.52,41.52,0,0,1,62.23,96a39.82,39.82,0,0,1-7.43-6.59c-.43-.5-.85-1-1.26-1.52a14.46,14.46,0,0,1-.71,1.55,39.92,39.92,0,0,0,6.44,6.29,38.33,38.33,0,0,0,9.19,5.42,14.38,14.38,0,0,0,5.66.95c1.84,0,3.68-.16,5.5-.36a66.67,66.67,0,0,0,21.28-6q2.47-1.17,4.83-2.55a30.31,30.31,0,0,0,4.38-3,15.27,15.27,0,0,0,3.44-4.07A25.68,25.68,0,0,0,115.66,81a53.32,53.32,0,0,0,2.2-11.4A49.47,49.47,0,0,0,118,63.9Z"/>
    <path class="cls-2" d="M49.19,79.19a4.55,4.55,0,0,1-1.54-1.34.92.92,0,0,0-.33,1c.21.86.5,1.69.79,2.53a21.41,21.41,0,0,0,1,2.53,24,24,0,0,0,1.76,3,4.7,4.7,0,0,1,.77-1.61,20.77,20.77,0,0,1-2.1-4.35A9.35,9.35,0,0,1,49.19,79.19Z"/>
    <path class="cls-2" d="M109.83,52.87c1.21.88,2.46,1.68,3.73,2.47l1.85,1.16a4.15,4.15,0,0,1,.73.51c.21.2.25.46.53.58a.32.32,0,0,0,.32-.08c.44-.56-.37-1.17-.8-1.44-.66-.41-1.33-.8-2-1.19-1.37-.82-2.74-1.63-4.17-2.34a.19.19,0,0,0-.19.33Z"/>
    <path class="cls-2" d="M117,60.81c-1.16,1.72-2.23,3.49-3.54,5.11a39.42,39.42,0,0,1-4.27,4.49,47.48,47.48,0,0,1-10.32,7A60.53,60.53,0,0,1,86.35,82,68.84,68.84,0,0,1,71.5,84.1a68,68,0,0,1-15-1.2l-.85-.17a6.37,6.37,0,0,0-1-.06c-.34,0-.53.53-.18.69a6.15,6.15,0,0,0,.84.34c.33.08.67.14,1,.2l1.88.34c1.25.2,2.52.38,3.79.51a67.36,67.36,0,0,0,7.65.41,70.42,70.42,0,0,0,15.24-1.7A63.35,63.35,0,0,0,98.07,79a46.69,46.69,0,0,0,10.77-6.9,32.89,32.89,0,0,0,7.85-9.74,11.67,11.67,0,0,0,.62-1.4c.07-.19-.21-.28-.31-.13Z"/>
    <path class="cls-2" d="M107.9,53.58a4.92,4.92,0,0,0,.82-.43c.25-.17.51-.35.75-.55a8.67,8.67,0,0,0,1.27-1.3,13.56,13.56,0,0,0,1.06-1.54q.23-.39.42-.78a6.53,6.53,0,0,0,.39-.85l0-.06h0c-.09.08-.07,0,0,0s.19,0,.28.06a2.14,2.14,0,0,1,.65.25,3.4,3.4,0,0,1,1.05.95,5.78,5.78,0,0,1,1,3,21.36,21.36,0,0,1,0,2.4c0,.4,0,.8,0,1.2a5.93,5.93,0,0,0,.11,1.33.52.52,0,0,0,1-.14c0-.39,0-.8,0-1.19s0-.8,0-1.2a22,22,0,0,0,0-2.3,7.19,7.19,0,0,0-1.1-3.56A4.15,4.15,0,0,0,112.82,47a1.16,1.16,0,0,0-1,.27,2.74,2.74,0,0,0-.48.91,12.74,12.74,0,0,1-.95,1.74,33,33,0,0,1-2.7,3.42.14.14,0,0,0,.17.22Z"/>
    <path class="cls-2" d="M114.5,51.33a4.08,4.08,0,0,0,.09,1.39c0,.45.09.91.11,1.37s0,1,0,1.47c0,.29,0,.91.43.91s.51-.78.53-1.1a10.41,10.41,0,0,0-.08-1.48,9.19,9.19,0,0,0-.26-1.37,2.61,2.61,0,0,0-.55-1.26.16.16,0,0,0-.27.07Z"/>
    <path class="cls-2" d="M48.83,73.35c.33-.75-1.26-.82-1.64-.87a29.26,29.26,0,0,0-3-.23c-1,0-1.95-.11-2.92-.1A1.46,1.46,0,0,0,40,72.8,3.64,3.64,0,0,0,39.62,74a3.39,3.39,0,0,0,.26,2.74,2.41,2.41,0,0,0,1.1.68l1.16.46a12.17,12.17,0,0,1,4.18,2.86c.62.68,1.12,1.44,1.67,2.17.28.38.56.75.83,1.14a4.43,4.43,0,0,0,.92,1A.2.2,0,0,0,50,85a6.32,6.32,0,0,0-.84-2.07,13.32,13.32,0,0,0-4.63-5.06,15.59,15.59,0,0,0-2.08-1l-1.16-.47c-.23-.09-.5-.17-.59-.42a2.62,2.62,0,0,1,0-1.08A5.88,5.88,0,0,1,41,73.66a.8.8,0,0,1,.15-.29.73.73,0,0,1,.33,0l1.34,0c1,0,2,0,3,0,.5,0,1,0,1.5-.06a6.48,6.48,0,0,0,.77-.07c.1,0,.47-.14.51,0a.14.14,0,0,0,.26,0Z"/>
    <path class="cls-2" d="M51.86,80.65l0,.09.09-.11c-.29.13-.34.57-.4.85a7.71,7.71,0,0,0-.17,1,.71.71,0,0,0,.38.74,3.63,3.63,0,0,0,1,.2l1,.19a1.56,1.56,0,0,0,1,0,1.09,1.09,0,0,0,.46-.81l.28-1.11c.13-.56-.73-.8-.87-.24l-.26,1a2,2,0,0,0-.1.41q.13-.07,0-.06h-.1l-.25,0-1-.14-.5-.07a.87.87,0,0,1-.42-.1l.15.15c0-.07,0-.27,0-.36s0-.36.07-.55.14-.74-.11-1l.06.14v-.1c0-.22-.31-.26-.37,0Z"/>
    <path class="cls-2" d="M51.82,82.72a2.37,2.37,0,0,1-.24.92c-.11.38-.23.76-.35,1.15-.2.7-.4,1.4-.61,2.1s-.47,1.42-.72,2.12-.56,1.39-.78,2.1a.67.67,0,0,0,.33.87,5.85,5.85,0,0,0,1,.28,1.81,1.81,0,0,0,1.08.07,1.78,1.78,0,0,0,.78-.63,7,7,0,0,0,.94-1.77q.39-1,.75-2a19.09,19.09,0,0,0,1.18-4.82.41.41,0,0,0-.41-.42.42.42,0,0,0-.41.42,22.83,22.83,0,0,1-1.51,5.37,12.18,12.18,0,0,1-1,2.37c-.17.27-.4.66-.76.62a3.42,3.42,0,0,1-.63-.16,2.2,2.2,0,0,1-.63-.19l.16.16v.2a7.41,7.41,0,0,1,.4-1.08l.42-1.12c.26-.75.52-1.51.75-2.27s.48-1.52.66-2.3.5-1.52.1-2.13c-.11-.18-.47-.13-.44.12Z"/>
    <path class="cls-2" d="M109.84,33.46A24.09,24.09,0,0,1,111.23,37a15.8,15.8,0,0,1,.55,4,25.7,25.7,0,0,1-.69,7.37c-.18.6-.38,1.19-.61,1.78s-.55,1.13-.78,1.72c-.07.19.17.34.32.25a5.62,5.62,0,0,0,2.08-3,14.8,14.8,0,0,0,.71-3.68,21.26,21.26,0,0,0-.53-8.33,9.9,9.9,0,0,0-2.16-3.91c-.15-.16-.35,0-.28.21Z"/>
    <path class="cls-2" d="M109.71,33.27a9.05,9.05,0,0,1,.65.74c.22.26.46.49.67.74a13.54,13.54,0,0,1,1.1,1.51A23.91,23.91,0,0,1,114,39.77,12.55,12.55,0,0,1,115.16,44c.11,1.59.11,3.19.15,4.78l.07,2.69c0,.45,0,.9,0,1.34a2.58,2.58,0,0,0,.36,1.39.3.3,0,0,0,.51,0,4.59,4.59,0,0,0,.27-2.47l-.07-2.49c0-1.66,0-3.33-.14-5a12.51,12.51,0,0,0-.36-2.43,16.53,16.53,0,0,0-.81-2.23A23.1,23.1,0,0,0,113.26,36a10.35,10.35,0,0,0-1.45-1.78,8.18,8.18,0,0,0-.82-.74,8.3,8.3,0,0,0-1-.54c-.21-.1-.45.16-.26.34Z"/>
    <path class="cls-2" d="M110.49,33.6a6.69,6.69,0,0,0-1-1c-.44-.32-.88-.63-1.35-.92a13.63,13.63,0,0,0-2.76-1.22,25.92,25.92,0,0,0-6-1.11,35.34,35.34,0,0,0-11.18.86A23.85,23.85,0,0,0,78.37,35a19.22,19.22,0,0,0-3.66,4.23,39.5,39.5,0,0,1-3.58,5.28,18.16,18.16,0,0,1-9.6,5.12c-4.25,1-8.61.76-12.92.48-2.39-.15-4.79-.31-7.19-.34a28.73,28.73,0,0,0-6.68.49,9.8,9.8,0,0,0-5.17,2.87,11.9,11.9,0,0,0-2.64,5.27,12.45,12.45,0,0,0,1.95,10.43,9.65,9.65,0,0,0,4.69,3.07c1.83.59,3.76.81,5.63,1.23.93.21,1.87.46,2.78.74a.63.63,0,0,0,.48-1.14c-3.33-1.84-7.51-1.22-10.75-3.33-2.87-1.86-3.84-5.54-3.59-8.79.28-3.61,2.13-7.24,5.71-8.49a18.72,18.72,0,0,1,6-.81c2.38,0,4.75.11,7.11.25,7.86.48,16.73.82,23.31-4.29A17.08,17.08,0,0,0,74,43a45.19,45.19,0,0,1,3.31-5,20,20,0,0,1,8.53-5.7,31.19,31.19,0,0,1,10.4-1.74A32.58,32.58,0,0,1,102,31a28.5,28.5,0,0,1,5.67,1.7q.63.25,1.23.57c.44.23.9.41,1.36.63a.19.19,0,0,0,.23-.3Z"/>
    <path class="cls-2" d="M27.06,60.55a10.65,10.65,0,0,0-.5,5.94,36.77,36.77,0,0,0,1.62,5.92,2.74,2.74,0,0,0,.75,1.27,3.46,3.46,0,0,0,1.28.58c.92.25,1.84.48,2.77.71,1.85.47,3.7.91,5.52,1.49a29.67,29.67,0,0,1,2.9,1.08c.49.21,1,.45,1.45.7.24.13.49.24.73.35a1.86,1.86,0,0,0,.37.14,1.3,1.3,0,0,0,.44,0,.3.3,0,0,0,.2-.36,1.08,1.08,0,0,0-.35-.54,4.55,4.55,0,0,0-.62-.43,9.67,9.67,0,0,0-1.2-.61,27.6,27.6,0,0,0-2.59-1.06c-1.74-.61-3.52-1.08-5.31-1.53l-2.69-.69c-.45-.11-.91-.23-1.36-.36a1.62,1.62,0,0,1-.91-.46,4.52,4.52,0,0,1-.49-1.25L28.62,70c-.3-1-.58-1.91-.8-2.89a25.09,25.09,0,0,1-.5-3.24,17.76,17.76,0,0,1,.07-3.26.18.18,0,0,0-.33-.09Z"/>
    <path class="cls-2" d="M112.31,44.32c1.08-3.18-1.42-6.19-3.86-7.91a16.36,16.36,0,0,0-8.77-2.74,26.12,26.12,0,0,0-10.14,1.89c-1.7.63-3.35,1.36-5,2.14s-3.13,1.54-4.62,2.45a21,21,0,0,0-4,3.08c-1.22,1.23-2.22,2.64-3.31,4A15.46,15.46,0,0,1,69,50.59a19.69,19.69,0,0,1-4.38,2.06A60.46,60.46,0,0,1,54,55.06c-3.74.56-7.55.63-11.26,1.37a16.11,16.11,0,0,0-8.49,4.21,9.11,9.11,0,0,0-2.45,8.49,6.79,6.79,0,0,0,.9,2c.43.65,1.48,0,1.05-.62a7.22,7.22,0,0,1,.48-8,12.84,12.84,0,0,1,7.4-4.63c3.49-.93,7.14-1,10.71-1.44A74.36,74.36,0,0,0,63,54.42a21,21,0,0,0,8.44-4.17c2.44-2.18,4-5.16,6.54-7.27a36.84,36.84,0,0,1,8.62-4.88,34.48,34.48,0,0,1,9.87-3,18.07,18.07,0,0,1,8.8,1.08A10.77,10.77,0,0,1,111.53,42a4.81,4.81,0,0,1,.29,2.22c0,.3.4.32.49.07Z"/>
    <path class="cls-2" d="M80.63,100.35c-.33-.32-.63-.67-1-1s-.64-.66-1-1a6.82,6.82,0,0,1-1.42-2.15,4.48,4.48,0,0,1-.23-2.4,3.32,3.32,0,0,1,1.44-2,37.92,37.92,0,0,1,9.65-4.72c3.42-1.2,6.92-2.15,10.38-3.25a53.89,53.89,0,0,0,10-4.11c.75-.42,1.47-.93,2.25-1.3s1.58-.62,2.1,0a2.66,2.66,0,0,1,.39,1.26,10.8,10.8,0,0,1,.1,1.5,15.91,15.91,0,0,1-.31,3,14.59,14.59,0,0,1-.39,1.44.15.15,0,0,0,.27.11,9.11,9.11,0,0,0,1-3,11.72,11.72,0,0,0,0-3.13c-.12-.9-.37-1.87-1.32-2.2a3.2,3.2,0,0,0-2.45.47c-.81.44-1.58,1-2.39,1.41s-1.7.87-2.58,1.26a55.47,55.47,0,0,1-5.31,2c-3.64,1.18-7.35,2.12-11,3.29a43.66,43.66,0,0,0-10.37,4.63,6.58,6.58,0,0,0-2.17,2,4.14,4.14,0,0,0-.53,2.71A5.73,5.73,0,0,0,77,97.94,9.6,9.6,0,0,0,79.11,100c.38.28.8.5,1.2.76a.27.27,0,0,0,.32-.43Z"/>
    <path class="cls-2" d="M85.21,92.18c3.35-.87,6.66-1.86,10-2.93S101.72,87,105,85.82l2.68-1a15.31,15.31,0,0,0,2.65-1.26.1.1,0,0,0-.08-.18A33.59,33.59,0,0,0,105.32,85c-1.61.6-3.22,1.18-4.83,1.76q-4.87,1.75-9.8,3.29c-1.86.59-3.71,1.19-5.58,1.76a.18.18,0,0,0,.1.35Z"/>
    <path class="cls-2" d="M111.44,82.17l.47-.62s0-.07-.06,0l-.46.62s0,.06,0,0Z"/>
    <path class="cls-2" d="M81.76,93.19c-.33-.06-.73.24-1,.45a3.35,3.35,0,0,0-.73,1c-.29.64-.54,1.76,0,2.32a.19.19,0,0,0,.32-.13c0-.34-.05-.67,0-1a2.85,2.85,0,0,1,.21-1,2.79,2.79,0,0,1,.53-.83,3.61,3.61,0,0,1,.35-.33c.12-.11.28-.18.37-.32a.12.12,0,0,0-.07-.17Z"/>
  </g>
</svg>
