<svg id="Capa_1" data-name="Capa 1" xmlns="http://www.w3.org/2000/svg" width="400" height="400" viewBox="0 0 400 400">
  <defs>
    <style>
      .cls-1 {
        fill: #f4f4f4;
      }

      .cls-2 {
        fill: #1f1b36;
      }
    </style>
  </defs>
  <title>rinonera</title>
  <g id="Grupo_279" data-name="Grupo 279">
    <g id="Sustracción_2" data-name="Sustracción 2">
      <path id="Trazado_402" data-name="Trazado 402" class="cls-1" d="M308.13,301.38h-246a159.88,159.88,0,1,1,246,0Z"/>
    </g>
    <g id="Grupo_261" data-name="Grupo 261">
      <path id="Trazado_481" data-name="Trazado 481" class="cls-2" d="M331.8,315.83H310.34a1.35,1.35,0,0,1-.07-2.7H331.8a1.35,1.35,0,0,1,0,2.7Z"/>
    </g>
    <g id="Grupo_262" data-name="Grupo 262">
      <path id="Trazado_482" data-name="Trazado 482" class="cls-2" d="M289.41,315.83H91.1a1.35,1.35,0,0,1,0-2.7H289.41a1.35,1.35,0,0,1,0,2.7Z"/>
    </g>
    <g id="Grupo_255" data-name="Grupo 255">
      <g id="Grupo_252" data-name="Grupo 252">
        <path id="Trazado_473" data-name="Trazado 473" class="cls-2" d="M404.53,302.72h-42a1.25,1.25,0,0,1-1-1.39,1.23,1.23,0,0,1,1-1.31h42a1.25,1.25,0,0,1,1,1.39A1.23,1.23,0,0,1,404.53,302.72Z"/>
      </g>
      <g id="Grupo_253" data-name="Grupo 253">
        <path id="Trazado_474" data-name="Trazado 474" class="cls-2" d="M354.29,302.72H339.67a1.2,1.2,0,0,1-1.06-1.31,1.24,1.24,0,0,1,1-1.39h14.67a1.2,1.2,0,0,1,1.06,1.31,1.24,1.24,0,0,1-1,1.39Z"/>
      </g>
      <g id="Grupo_254" data-name="Grupo 254">
        <path id="Trazado_475" data-name="Trazado 475" class="cls-2" d="M330.91,302.72h-316c-.5,0-.9-.64-.89-1.39s.41-1.29.89-1.31h316c.51,0,.91.64.9,1.39s-.41,1.29-.9,1.31Z"/>
      </g>
    </g>
  </g>
  <g>
    <path class="cls-2" d="M131.37,216.53a118.46,118.46,0,0,1,19.1-3.61c3.59-.47,6.56-.65,10.23-1.19,3.26-.47,6.51-1,9.76-1.56a263.84,263.84,0,0,0,37.5-9.74A284.12,284.12,0,0,0,244,185.63q4.3-2.16,8.53-4.49c2.86-1.58,5.66-3.28,8.6-4.72a57.5,57.5,0,0,1,9-3.22,39.49,39.49,0,0,0,8.84-3.73,10.57,10.57,0,0,1,3.86-1.61,9.55,9.55,0,0,1,4.2.85l4.95,1.73c1.59.56,3.25,1,4.8,1.69.37.15.68.3.8.69a3.78,3.78,0,0,1-.1,1.67,37.47,37.47,0,0,1-1,4.31,41.45,41.45,0,0,1-3.27,7.88c-5.87,10.93-15.62,18.94-25.86,25.61-5.51,3.58-11.16,7-17,10.07a97.09,97.09,0,0,1-18.72,7.36,163.64,163.64,0,0,1-39.84,5.89,198.79,198.79,0,0,1-40.31-3c-3.28-.58-6.55-1.22-9.8-2-2.59-.59-5.38-1.3-7.22-3.36-1.72-1.91-2.13-4.79-2.45-7.24a7.25,7.25,0,0,1-.14-2c.08-.48.37-.66.81-.86a30.18,30.18,0,0,1,4.73-1.58,45.65,45.65,0,0,1,4.6-1,47.06,47.06,0,0,1,4.86-.72c2-.14,2-3.22,0-3.09-1.78.12-3.53.18-5.29.47a48.77,48.77,0,0,0-5.07,1.12,44.06,44.06,0,0,0-4.86,1.64,4.53,4.53,0,0,0-3.14,3.81,17.75,17.75,0,0,0,.44,4.58,18.3,18.3,0,0,0,1.23,4.35,11.31,11.31,0,0,0,6.5,6,51.45,51.45,0,0,0,9.17,2.28q5.2,1,10.44,1.82c7,1,14,1.76,21.07,2.1A180.77,180.77,0,0,0,219.58,236a135,135,0,0,0,20.35-5.4,112.4,112.4,0,0,0,19-9.17c11.29-6.65,22.81-13.89,31.18-24.17a52.11,52.11,0,0,0,9.16-16.12,39.54,39.54,0,0,0,1.18-4.26,11.42,11.42,0,0,0,.42-4.85,4.62,4.62,0,0,0-3.19-3.18c-1.63-.62-3.31-1.16-5-1.74s-3.4-1.17-5.1-1.78a11.54,11.54,0,0,0-4.88-.94c-3.2.29-6,2.23-9,3.21s-6.3,1.77-9.4,2.8a57.91,57.91,0,0,0-9.54,4.38c-5.92,3.28-11.85,6.47-18,9.27s-12.17,5.22-18.42,7.41c-12.71,4.46-25.76,7.52-38.9,10.4-6.55,1.44-13.15,2.65-19.75,3.84-3.37.61-6.71,1.43-10,2.22a74.73,74.73,0,0,0-9.84,2.95,91.47,91.47,0,0,0-9.14,4,.92.92,0,0,0,.71,1.67Z"/>
    <g>
      <path class="cls-2" d="M305.21,192.29a74.68,74.68,0,0,0-1.59-14.38c-.53-2.21-1-4.45-1.54-6.66-.32-1.29-2.11-.7-1.94.54a67.69,67.69,0,0,1,.7,7c.1,2.27.38,4.55.5,6.82.24,4.63.37,9.25.21,13.89a131.15,131.15,0,0,1-3.74,27c-2.06,8.21-4.62,17-10.29,23.52-5.5,6.31-13.12,10.54-20.43,14.38a159.45,159.45,0,0,1-49.54,16.29c-4.25.66-8.53,1.14-12.81,1.44-4.43.31-9,.67-13.42,0s-8.56-2.56-12.5-4.6a99.43,99.43,0,0,1-10.6-6.32A97.37,97.37,0,0,1,150,255q-1.59-1.81-3.1-3.73a35.36,35.36,0,0,1-1.74,3.81A99.37,99.37,0,0,0,161,270.52a93.8,93.8,0,0,0,22.59,13.32,35.51,35.51,0,0,0,13.92,2.34c4.51-.07,9-.41,13.51-.9a163.44,163.44,0,0,0,52.3-14.82q6.06-2.86,11.86-6.25a75.29,75.29,0,0,0,10.76-7.37,37.73,37.73,0,0,0,8.47-10,62.28,62.28,0,0,0,5.17-12.46,129.93,129.93,0,0,0,5.41-28A119.43,119.43,0,0,0,305.21,192.29Z"/>
      <path class="cls-2" d="M136.17,229.87a10.86,10.86,0,0,1-3.77-3.3,2.29,2.29,0,0,0-.81,2.36c.5,2.12,1.23,4.16,1.93,6.22a52.67,52.67,0,0,0,2.57,6.21,61.78,61.78,0,0,0,4.33,7.43,11.8,11.8,0,0,1,1.9-4,50.58,50.58,0,0,1-5.16-10.68A24.16,24.16,0,0,1,136.17,229.87Z"/>
    </g>
    <path class="cls-2" d="M285.22,165.17c2.95,2.18,6,4.15,9.15,6.09l4.55,2.84a11.19,11.19,0,0,1,1.8,1.26c.51.49.6,1.14,1.3,1.43a.76.76,0,0,0,.78-.21c1.08-1.38-.9-2.87-1.95-3.53-1.62-1-3.28-2-4.92-2.93-3.37-2-6.73-4-10.25-5.75a.46.46,0,0,0-.46.8Z"/>
    <path class="cls-2" d="M302.82,184.69c-2.84,4.25-5.47,8.59-8.68,12.57a96.17,96.17,0,0,1-10.51,11,117.53,117.53,0,0,1-25.35,17.18,149,149,0,0,1-30.77,11.36A169.38,169.38,0,0,1,154.14,239l-2.08-.42a13.87,13.87,0,0,0-2.41-.15c-.84,0-1.3,1.31-.46,1.68a14.72,14.72,0,0,0,2.07.84c.82.21,1.67.34,2.5.5,1.53.3,3.06.57,4.6.82q4.63.76,9.32,1.28a168.69,168.69,0,0,0,18.81,1,172.09,172.09,0,0,0,37.44-4.19,155.44,155.44,0,0,0,32.37-11,115.53,115.53,0,0,0,26.48-17,81.27,81.27,0,0,0,19.3-23.94,31.07,31.07,0,0,0,1.51-3.45c.17-.47-.52-.7-.77-.33Z"/>
    <path class="cls-2" d="M280.47,166.93a12,12,0,0,0,2-1.05,22.08,22.08,0,0,0,1.85-1.37,21.81,21.81,0,0,0,3.13-3.17,33.92,33.92,0,0,0,2.59-3.8c.36-.63.71-1.27,1-1.92a15,15,0,0,0,1-2.08l.09-.15h0c-.22.18-.17,0,.05.1s.47.07.7.12a6.28,6.28,0,0,1,1.59.63,8.22,8.22,0,0,1,2.58,2.33,14.4,14.4,0,0,1,2.56,7.45c.16,2,.1,3.92.07,5.89,0,1,0,2,0,3a13.77,13.77,0,0,0,.28,3.27,1.26,1.26,0,0,0,2.47-.33c.06-1-.07-2-.08-2.94s0-2,0-3c0-1.88.09-3.77-.05-5.65a17.71,17.71,0,0,0-2.71-8.75,10.15,10.15,0,0,0-7-4.7,2.77,2.77,0,0,0-2.35.65A6.83,6.83,0,0,0,289,153.7,32.26,32.26,0,0,1,286.7,158a84.28,84.28,0,0,1-6.65,8.4.35.35,0,0,0,.42.54Z"/>
    <path class="cls-2" d="M296.69,161.41a10.83,10.83,0,0,0,.21,3.4c.11,1.12.22,2.24.28,3.36s0,2.42,0,3.63c0,.71,0,2.23,1.05,2.23s1.27-1.9,1.3-2.71a23.19,23.19,0,0,0-.2-3.63,20.27,20.27,0,0,0-.62-3.36,6.78,6.78,0,0,0-1.35-3.1.41.41,0,0,0-.67.18Z"/>
    <path class="cls-2" d="M135.28,215.52c.84-1.85-3.08-2-4-2.15-2.4-.32-4.84-.47-7.26-.56s-4.8-.27-7.19-.24a3.53,3.53,0,0,0-3.11,1.6,8.85,8.85,0,0,0-1,3.05c-.43,2.1-.79,4.91.64,6.72a5.85,5.85,0,0,0,2.7,1.67c1,.37,1.93.74,2.87,1.15a29.51,29.51,0,0,1,10.26,7,66,66,0,0,1,4.1,5.32c.7.93,1.39,1.86,2.06,2.8a10.5,10.5,0,0,0,2.25,2.58.49.49,0,0,0,.73-.41c-.18-1.79-1.25-3.52-2-5.09a31.73,31.73,0,0,0-2.93-4.63,30.77,30.77,0,0,0-8.47-7.81,40,40,0,0,0-5.1-2.58c-.94-.4-1.89-.78-2.85-1.15-.57-.21-1.24-.43-1.46-1a6.34,6.34,0,0,1-.08-2.64,12.65,12.65,0,0,1,.64-2.85c.07-.21.18-.59.36-.71s.58-.08.81-.08l3.3.08c2.46.06,4.92.11,7.39.08,1.24,0,2.46,0,3.7-.13.63-.05,1.26-.07,1.89-.18.23,0,1.15-.35,1.24.09a.35.35,0,0,0,.63.08Z"/>
    <path class="cls-2" d="M142.75,233.45l-.06.24.22-.29c-.71.33-.82,1.41-1,2.1a18.65,18.65,0,0,0-.42,2.35,1.72,1.72,0,0,0,.93,1.82,9.4,9.4,0,0,0,2.42.51l2.55.45a3.67,3.67,0,0,0,2.47,0,2.74,2.74,0,0,0,1.12-2l.67-2.72a1.11,1.11,0,0,0-2.13-.59l-.63,2.47a5,5,0,0,0-.25,1c.22-.11.25-.16.08-.15l-.26,0-.61-.09-2.45-.35-1.23-.17a2.31,2.31,0,0,1-1-.23l.36.36c-.13-.18,0-.67.06-.89.06-.45.14-.9.19-1.35.08-.73.32-1.83-.28-2.39l.14.34,0-.24a.47.47,0,0,0-.91-.13Z"/>
    <path class="cls-2" d="M142.64,238.54a5.92,5.92,0,0,1-.59,2.27c-.27.94-.57,1.88-.85,2.81-.51,1.73-1,3.46-1.52,5.17s-1.13,3.49-1.75,5.22-1.37,3.42-1.94,5.16a1.63,1.63,0,0,0,.84,2.12,14.42,14.42,0,0,0,2.43.71,4.5,4.5,0,0,0,2.64.16,4.43,4.43,0,0,0,1.91-1.54,17.59,17.59,0,0,0,2.33-4.36q1-2.41,1.84-4.85a47.1,47.1,0,0,0,2.91-11.86,1,1,0,0,0-1-1,1,1,0,0,0-1,1,55.65,55.65,0,0,1-3.69,13.19,31.35,31.35,0,0,1-2.56,5.84c-.42.65-1,1.63-1.88,1.53a9.43,9.43,0,0,1-1.54-.4,5.15,5.15,0,0,1-1.56-.48l.4.39,0-.07v.59a15.32,15.32,0,0,1,1-2.67c.34-.92.68-1.84,1-2.76q1-2.76,1.86-5.57c.58-1.87,1.17-3.75,1.62-5.65.37-1.58,1.22-3.73.25-5.24-.29-.44-1.17-.33-1.09.29Z"/>
    <path class="cls-2" d="M285.25,117.48a60.87,60.87,0,0,1,3.41,8.76A38.91,38.91,0,0,1,290,136c.08,6,0,12.29-1.7,18.12-.43,1.48-.93,2.94-1.5,4.37s-1.35,2.79-1.91,4.23c-.18.46.42.84.8.62,2.57-1.54,4.08-4.56,5.09-7.27a36.18,36.18,0,0,0,1.76-9c.65-6.8.74-13.89-1.3-20.48a24.51,24.51,0,0,0-5.32-9.61c-.36-.38-.86.1-.67.52Z"/>
    <path class="cls-2" d="M284.91,117a21.68,21.68,0,0,1,1.62,1.82c.52.62,1.11,1.19,1.64,1.81a35.22,35.22,0,0,1,2.71,3.71,60.42,60.42,0,0,1,4.5,8.63,30.6,30.6,0,0,1,2.92,10.42c.28,3.9.27,7.83.38,11.74l.18,6.61c0,1.11,0,2.21.09,3.31a6.45,6.45,0,0,0,.89,3.42.73.73,0,0,0,1.25,0c1.07-1.81.71-4.08.66-6.09l-.17-6.1c-.11-4.09-.12-8.19-.35-12.27a29.37,29.37,0,0,0-.88-6,39.93,39.93,0,0,0-2-5.48,55.53,55.53,0,0,0-4.7-8.89,27.78,27.78,0,0,0-3.57-4.38,11.81,11.81,0,0,0-4.54-3.12c-.51-.26-1.09.39-.63.83Z"/>
    <path class="cls-2" d="M286.82,117.83a15.15,15.15,0,0,0-2.5-2.56c-1.08-.8-2.17-1.56-3.31-2.26a33.28,33.28,0,0,0-6.77-3,62.75,62.75,0,0,0-14.89-2.73,86.07,86.07,0,0,0-27.47,2.12,58.66,58.66,0,0,0-24,11.81,47.58,47.58,0,0,0-9,10.39c-2.85,4.38-5.25,9.1-8.8,13-6.19,6.75-14.77,10.61-23.58,12.59-10.44,2.35-21.16,1.85-31.76,1.18-5.88-.37-11.77-.76-17.67-.84-5.47-.08-11.07,0-16.42,1.21a24,24,0,0,0-12.7,7,29.1,29.1,0,0,0-6.48,13c-2,8.66-.85,18.51,4.79,25.62a23.43,23.43,0,0,0,11.51,7.54c4.51,1.45,9.24,2,13.85,3,2.28.52,4.59,1.13,6.82,1.82a1.54,1.54,0,0,0,1.18-2.8c-8.19-4.52-18.45-3-26.41-8.18-7.06-4.58-9.45-13.63-8.83-21.6.68-8.87,5.25-17.81,14-20.89,4.69-1.64,9.71-1.9,14.63-2,5.83-.08,11.66.26,17.48.61,19.3,1.19,41.11,2,57.27-10.55a41.45,41.45,0,0,0,9.33-10.43c2.68-4.12,5-8.53,8.16-12.29a48.88,48.88,0,0,1,21-14,77.11,77.11,0,0,1,25.55-4.27A80,80,0,0,1,266,111.44a69.83,69.83,0,0,1,13.93,4.18,31.52,31.52,0,0,1,3,1.4c1.1.57,2.24,1,3.36,1.53a.46.46,0,0,0,.55-.72Z"/>
    <path class="cls-2" d="M81.78,184.05c-2,4.56-2,9.78-1.22,14.6a91.81,91.81,0,0,0,4,14.57,6.57,6.57,0,0,0,1.85,3.1,8.23,8.23,0,0,0,3.14,1.43c2.26.62,4.53,1.19,6.8,1.76,4.55,1.13,9.11,2.24,13.58,3.66a72.39,72.39,0,0,1,7.12,2.64c1.21.53,2.41,1.1,3.58,1.72.58.31,1.18.61,1.79.87a5,5,0,0,0,.91.35,3.16,3.16,0,0,0,1.06-.07.7.7,0,0,0,.49-.87,2.44,2.44,0,0,0-.84-1.33,13.52,13.52,0,0,0-1.53-1.07,32.68,32.68,0,0,0-2.95-1.5c-2.08-1-4.21-1.83-6.37-2.59-4.27-1.51-8.66-2.66-13-3.77-2.2-.56-4.41-1.11-6.61-1.68-1.11-.29-2.22-.58-3.33-.9a3.94,3.94,0,0,1-2.25-1.13,11,11,0,0,1-1.19-3.05c-.38-1.15-.75-2.29-1.12-3.44-.74-2.33-1.42-4.69-2-7.08a56.44,56.44,0,0,1-1.24-8,42.15,42.15,0,0,1,.18-8c0-.43-.66-.63-.83-.23Z"/>
    <path class="cls-2" d="M291.3,144.17c2.66-7.82-3.48-15.22-9.49-19.43-6.27-4.4-13.95-6.44-21.54-6.75-8.52-.34-17,1.68-24.94,4.64-4.15,1.56-8.22,3.37-12.22,5.28a128.29,128.29,0,0,0-11.36,6,52.36,52.36,0,0,0-9.82,7.57,127.2,127.2,0,0,0-8.14,9.79,38.89,38.89,0,0,1-8.87,8.31,48.8,48.8,0,0,1-10.77,5.06,150.34,150.34,0,0,1-26.1,5.92c-9.19,1.37-18.56,1.54-27.68,3.38-7.65,1.54-15.36,4.62-20.87,10.34-5.22,5.43-8,13.42-6,20.86a17,17,0,0,0,2.21,5c1.06,1.61,3.65.11,2.59-1.51-3.91-6-2.78-13.92,1.17-19.58,4.2-6,11.26-9.52,18.19-11.37,8.58-2.29,17.55-2.44,26.32-3.54a182.39,182.39,0,0,0,26.2-5.12c7.46-2.07,14.88-5,20.74-10.24,6-5.37,9.85-12.68,16.09-17.86s13.82-8.71,21.18-12c7.7-3.44,15.84-6.4,24.26-7.38a44.31,44.31,0,0,1,21.63,2.64c6.53,2.61,12.85,7.62,15.34,14.38a12.29,12.29,0,0,1,.71,5.47c-.08.72,1,.78,1.19.16Z"/>
    <path class="cls-2" d="M213.46,281.89c-.83-.8-1.55-1.67-2.37-2.47s-1.58-1.63-2.34-2.49a16.44,16.44,0,0,1-3.48-5.28,10.78,10.78,0,0,1-.56-5.89,8.1,8.1,0,0,1,3.53-4.82c7.13-5.17,15.45-8.69,23.71-11.6,8.41-3,17-5.28,25.51-8a133.84,133.84,0,0,0,24.6-10.11c1.86-1,3.61-2.28,5.52-3.2,1.55-.74,3.91-1.51,5.17.14a6.49,6.49,0,0,1,1,3.1A25.18,25.18,0,0,1,294,235a37.9,37.9,0,0,1-.76,7.36,31,31,0,0,1-1,3.55.36.36,0,0,0,.66.28,22.47,22.47,0,0,0,2.5-7.28,29.19,29.19,0,0,0,0-7.7c-.3-2.21-.92-4.58-3.25-5.41-2-.7-4.25.23-6,1.17-2,1.08-3.89,2.37-5.89,3.45s-4.18,2.15-6.33,3.1a137.14,137.14,0,0,1-13.05,4.86c-8.94,2.9-18.06,5.22-27,8.09s-17.64,6.31-25.5,11.37a16.31,16.31,0,0,0-5.31,4.84,10.14,10.14,0,0,0-1.33,6.66,14.38,14.38,0,0,0,2.73,6.66,24.24,24.24,0,0,0,5.26,5.1c.93.69,2,1.23,3,1.86.63.41,1.33-.52.8-1Z"/>
    <path class="cls-2" d="M224.7,261.8c8.24-2.15,16.37-4.57,24.47-7.21s16.12-5.42,24.08-8.43l6.59-2.54a39.44,39.44,0,0,0,6.49-3.1.25.25,0,0,0-.19-.45c-4.14.85-8.08,2.66-12,4.13s-7.9,2.91-11.86,4.33q-12,4.29-24.08,8.09c-4.57,1.43-9.13,2.91-13.71,4.32a.45.45,0,0,0,.24.86Z"/>
    <path class="cls-2" d="M289.16,237.2l1.17-1.53c.06-.08-.08-.17-.14-.08l-1.14,1.54c-.05.07.06.13.11.07Z"/>
    <path class="cls-2" d="M216.23,264.28a3.43,3.43,0,0,0-2.38,1.1,7.74,7.74,0,0,0-1.79,2.42c-.74,1.56-1.35,4.32.05,5.69a.46.46,0,0,0,.78-.32c.1-.82-.13-1.65-.09-2.48a7,7,0,0,1,.53-2.35,6.41,6.41,0,0,1,1.31-2c.26-.28.56-.55.85-.81a3.79,3.79,0,0,0,.9-.79.28.28,0,0,0-.16-.41Z"/>
  </g>
</svg>
