<svg id="Capa_1" data-name="Capa 1" xmlns="http://www.w3.org/2000/svg" width="174" height="124" viewBox="0 0 174 124">
  <defs>
    <style>
      .cls-1 {
        fill: #f4f4f4;
      }

      .cls-2, .cls-3 {
        fill: #1f1b36;
      }

      .cls-3 {
        fill-rule: evenodd;
      }
    </style>
  </defs>
  <title>setHerramientas</title>
  <g>
    <path id="Trazado_402" data-name="Trazado 402" class="cls-1" d="M126.52,111.75H27.67a64.25,64.25,0,1,1,98.85,0Z"/>
    <path id="Trazado_481" data-name="Trazado 481" class="cls-2" d="M136,117.55h-8.62a.54.54,0,0,1-.56-.52.55.55,0,0,1,.53-.56H136a.55.55,0,0,1,.53.56A.53.53,0,0,1,136,117.55Z"/>
    <path id="Trazado_482" data-name="Trazado 482" class="cls-2" d="M119,117.55H39.3a.54.54,0,0,1-.53-.55.55.55,0,0,1,.53-.53H119a.55.55,0,0,1,.53.56A.53.53,0,0,1,119,117.55Z"/>
    <g id="Grupo_252" data-name="Grupo 252">
      <path id="Trazado_473" data-name="Trazado 473" class="cls-2" d="M165.26,112.29H148.37a.5.5,0,0,1-.4-.56.49.49,0,0,1,.4-.53h16.89a.5.5,0,0,1,.4.56A.49.49,0,0,1,165.26,112.29Z"/>
    </g>
    <g id="Grupo_253" data-name="Grupo 253">
      <path id="Trazado_474" data-name="Trazado 474" class="cls-2" d="M145.07,112.29H139.2a.48.48,0,0,1-.43-.53.5.5,0,0,1,.4-.56h5.9c.23,0,.42.23.43.53a.51.51,0,0,1-.41.56Z"/>
    </g>
    <g id="Grupo_254" data-name="Grupo 254">
      <path id="Trazado_475" data-name="Trazado 475" class="cls-2" d="M135.67,112.29H8.69c-.2,0-.36-.26-.35-.56s.16-.52.35-.53h127c.21,0,.37.26.36.56s-.16.52-.36.53Z"/>
    </g>
    <path class="cls-3" d="M79.15,103.13h-38c-1.08,0-1.67-.56-1.66-1.64V85.63h-2.1v2.28H34.22V48.28c0-6.92,3.62-10.2,10.33-10.2h69.2c6.71,0,10.33,3.28,10.33,10.2V87.91h-3.16V85.63h-2.1v15.86c0,1.08-.58,1.59-1.66,1.64Zm41.77-22.36V48.28c0-5.16-2.22-7-7.17-7H44.55c-4.95,0-7.17,1.88-7.17,7V80.77h2.1V77.36h79.34v3.41Zm-19.77-5,3.57-13.83.77.21a1.31,1.31,0,0,0,1.6-.94,1.53,1.53,0,0,1,1.34.37l-.11.42a1.2,1.2,0,0,0,.84,1.46l3.54.95a1.19,1.19,0,0,0,1.46-.84l1.57-5.84a1.19,1.19,0,0,0-.84-1.46l-3.53-1a1.2,1.2,0,0,0-1.47.84l-.16.59a1.52,1.52,0,0,1-1.35-.38,1.3,1.3,0,0,0-1-1.37l-7.85-2.12c-5.44-1.47-12.44,0-14.09,6.17a10.93,10.93,0,0,0-.3,2.13l1.72,1a6.8,6.8,0,0,1,3.3-3.51,7,7,0,0,1,5.3-.32,1.3,1.3,0,0,0,1,1.41l.73.2L92.74,75.77Zm-36.41,0Q61.89,70.47,59,65.19l2-6.42-3.75-6.92L52,49.14l-1.11.6,3.71,6.84a.85.85,0,0,1-.34,1.14l-5.22,2.83a.85.85,0,0,1-1.14-.34L44.2,53.37l-1.1.6-.58,5.84,3.75,6.92,6.5,2,3.83,7.08Zm17.68,0a20.24,20.24,0,0,1,.33-6.41h.87V66.18H78.8V55.47L80.2,51c.25-.82-.45-3.37-.6-4.35H74.67c-.15,1-.85,3.53-.6,4.35l1.4,4.52V66.18H70.65v3.18h.87a20.24,20.24,0,0,1,.33,6.41Z"/>
  </g>
</svg>
