<svg id="Capa_1" data-name="Capa 1" xmlns="http://www.w3.org/2000/svg" width="400" height="400" viewBox="0 0 400 400">
  <defs>
    <style>
      .cls-1 {
        fill: #f4f4f4;
      }

      .cls-2 {
        fill: #1f1b36;
      }
    </style>
  </defs>
  <title>voucher</title>
  <g id="Grupo_279" data-name="Grupo 279">
    <g id="Sustracción_2" data-name="Sustracción 2">
      <path id="Trazado_402" data-name="Trazado 402" class="cls-1" d="M308.13,301.38h-246a159.88,159.88,0,1,1,246,0Z"/>
    </g>
    <g id="Grupo_261" data-name="Grupo 261">
      <path id="Trazado_481" data-name="Trazado 481" class="cls-2" d="M331.8,315.83H310.34a1.35,1.35,0,0,1-.07-2.7H331.8a1.35,1.35,0,0,1,0,2.7Z"/>
    </g>
    <g id="Grupo_262" data-name="Grupo 262">
      <path id="Trazado_482" data-name="Trazado 482" class="cls-2" d="M289.41,315.83H91.1a1.35,1.35,0,0,1,0-2.7H289.41a1.35,1.35,0,0,1,0,2.7Z"/>
    </g>
    <g id="Grupo_255" data-name="Grupo 255">
      <g id="Grupo_252" data-name="Grupo 252">
        <path id="Trazado_473" data-name="Trazado 473" class="cls-2" d="M404.53,302.72h-42a1.25,1.25,0,0,1-1-1.39,1.23,1.23,0,0,1,1-1.31h42a1.25,1.25,0,0,1,1,1.39A1.23,1.23,0,0,1,404.53,302.72Z"/>
      </g>
      <g id="Grupo_253" data-name="Grupo 253">
        <path id="Trazado_474" data-name="Trazado 474" class="cls-2" d="M354.29,302.72H339.67a1.2,1.2,0,0,1-1.06-1.31,1.24,1.24,0,0,1,1-1.39h14.67a1.2,1.2,0,0,1,1.06,1.31,1.24,1.24,0,0,1-1,1.39Z"/>
      </g>
      <g id="Grupo_254" data-name="Grupo 254">
        <path id="Trazado_475" data-name="Trazado 475" class="cls-2" d="M330.91,302.72h-316c-.5,0-.9-.64-.89-1.39s.41-1.29.89-1.31h316c.51,0,.91.64.9,1.39s-.41,1.29-.9,1.31Z"/>
      </g>
    </g>
  </g>
  <path class="cls-2" d="M278.26,152.5h-58.8c1.87-.43,3.8-.89,5.74-1.4,18.87-4.94,29.19-11.08,31.55-18.78,1.68-5.47-.71-11-7.08-16.58-7.65-6.64-15.52-9-23.4-7.09-15.26,3.75-25.62,23-29.31,31a12.38,12.38,0,0,0-7.14-2.27h-4.59a12.31,12.31,0,0,0-6.7,2c-3.81-8.15-14.09-27-29.16-30.68-7.89-1.94-15.76.44-23.4,7.08-6.36,5.52-8.75,11.08-7.1,16.53,2.21,7.36,11.69,13.29,29,18.13,2.81.79,5.61,1.49,8.31,2.1H96.79A3.51,3.51,0,0,0,93.28,156V188.8a3.51,3.51,0,0,0,3.51,3.51h11v89a3.51,3.51,0,0,0,3.51,3.51H263.75a3.51,3.51,0,0,0,3.51-3.51v-89h11a3.52,3.52,0,0,0,3.51-3.51V156A3.51,3.51,0,0,0,278.26,152.5Zm-72.4,32.79H169.19V159.52h36.67Zm22.08-69.82c5.62-1.38,11.22.44,17.13,5.56,4.09,3.56,5.76,6.66,5,9.23-.71,2.31-4.71,8.31-26.55,14-5.14,1.35-10.21,2.4-14.45,3.17,7.19-7.33,22.18-20,31.12-16.39a3.51,3.51,0,0,0,2.65-6.5c-14.88-6.06-34.41,13.23-40.1,19.35C206.32,135.64,216,118.4,227.94,115.47Zm-42.71,28.91h4.59a5.41,5.41,0,0,1,5.41,5.41v2.71H179.82v-2.71A5.41,5.41,0,0,1,185.23,144.38Zm-59.64-14.14c-.78-2.56.9-5.66,5-9.2,5.9-5.13,11.5-7,17.11-5.57,11,2.71,19.54,16.9,23.5,24.81-8.83-7.44-23.82-17.57-35.25-12.29a3.51,3.51,0,0,0,2.94,6.37c8.24-3.81,22.46,6.53,30.39,13.6C148.15,144.41,127.82,137.66,125.59,130.24ZM100.3,159.52h61.87v25.77H100.3Zm14.51,32.79h54.25v85.51H114.81Zm61.26,85.51V192.31H199v85.51Zm84.17,0H206V192.31h54.25Zm14.51-92.53H212.87V159.52h61.88Z"/>
</svg>
