<svg id="Capa_1" data-name="Capa 1" xmlns="http://www.w3.org/2000/svg" width="174" height="124" viewBox="0 0 174 124">
  <defs>
    <style>
      .cls-1 {
        fill: #f4f4f4;
      }

      .cls-2 {
        fill: #1f1b36;
      }
    </style>
  </defs>
  <title>voucher</title>
  <g>
    <path id="Trazado_402" data-name="Trazado 402" class="cls-1" d="M126.45,111.66H27.78a64.14,64.14,0,1,1,98.67,0Z"/>
    <path id="Trazado_481" data-name="Trazado 481" class="cls-2" d="M135.94,117.46h-8.6a.55.55,0,0,1,0-1.09h8.63a.55.55,0,0,1,0,1.09Z"/>
    <path id="Trazado_482" data-name="Trazado 482" class="cls-2" d="M118.94,117.46H39.39a.55.55,0,0,1,0-1.09h79.55a.55.55,0,0,1,.53.56A.55.55,0,0,1,118.94,117.46Z"/>
    <g id="Grupo_252" data-name="Grupo 252">
      <path id="Trazado_473" data-name="Trazado 473" class="cls-2" d="M165.12,112.2H148.27a.51.51,0,0,1-.41-.56c0-.29.18-.52.41-.52h16.85c.23,0,.41.25.41.55A.5.5,0,0,1,165.12,112.2Z"/>
    </g>
    <g id="Grupo_253" data-name="Grupo 253">
      <path id="Trazado_474" data-name="Trazado 474" class="cls-2" d="M145,112.2H139.1c-.23,0-.42-.23-.42-.53s.17-.55.4-.55H145c.23,0,.42.22.42.52a.5.5,0,0,1-.4.56Z"/>
    </g>
    <g id="Grupo_254" data-name="Grupo 254">
      <path id="Trazado_475" data-name="Trazado 475" class="cls-2" d="M135.59,112.2H8.83c-.2,0-.36-.26-.36-.56s.17-.52.36-.52H135.59c.2,0,.36.25.35.55s-.16.52-.35.53Z"/>
    </g>
    <path class="cls-2" d="M119.45,99.57,53.59,109,47.81,68.31l65.86-9.38ZM56,105.75l60.25-8.58-5-35L51,70.72Z"/>
    <rect class="cls-2" x="58.95" y="88.8" width="7.31" height="2.83" transform="translate(-12.09 9.73) rotate(-8.11)"/>
    <rect class="cls-2" x="69.69" y="87.27" width="7.31" height="2.83" transform="translate(-11.77 11.23) rotate(-8.11)"/>
    <rect class="cls-2" x="60.08" y="96.8" width="7.31" height="2.83" transform="translate(-13.21 9.97) rotate(-8.11)"/>
    <rect class="cls-2" x="70.83" y="95.27" width="7.31" height="2.83" transform="translate(-12.89 11.47) rotate(-8.11)"/>
    <rect class="cls-2" x="80.43" y="85.74" width="7.31" height="2.83" transform="translate(-11.45 12.73) rotate(-8.11)"/>
    <path class="cls-2" d="M102.45,94.87a6.43,6.43,0,1,1,5.46-7.27A6.44,6.44,0,0,1,102.45,94.87ZM101,84.94a3.6,3.6,0,1,0,4.07,3A3.6,3.6,0,0,0,101,84.94Z"/>
    <path class="cls-2" d="M115.84,74.21,50,83.59,48.8,75.28l65.86-9.38ZM52.39,80.39l60.25-8.58-.39-2.7L52,77.69Z"/>
    <path class="cls-2" d="M108.37,52.69H56.05V38.56h52.32ZM58.89,49.86h46.65V41.39H58.89Z"/>
    <path class="cls-2" d="M78.07,41.13c-4.39,0-10.15-.28-12.68-1.6-4.18-2.17-6.13-6.74-4.34-10.18a6.81,6.81,0,0,1,6.26-3.44,10,10,0,0,1,4.56,1.15C75.59,29,81.42,37.9,82.07,38.9L83.42,41l-2.49.1C80.88,41.09,79.75,41.13,78.07,41.13ZM67.31,28.74a4.06,4.06,0,0,0-3.75,1.92c-1.07,2.05.34,4.91,3.13,6.36,1.56.81,5.71,1.28,11.38,1.28h.18c-2.19-3.13-5.64-7.67-7.68-8.73A7.14,7.14,0,0,0,67.31,28.74Z"/>
    <path class="cls-2" d="M86.36,41.13h0c-1.68,0-2.82,0-2.86,0L81,41l1.35-2.09c.65-1,6.48-9.9,10.19-11.84a10,10,0,0,1,4.57-1.15,6.81,6.81,0,0,1,6.26,3.44c1.79,3.44-.16,8-4.34,10.18C96.51,40.85,90.75,41.13,86.36,41.13Zm-.18-2.83h.18c5.67,0,9.82-.47,11.38-1.28,2.79-1.45,4.2-4.31,3.13-6.36a4.06,4.06,0,0,0-3.75-1.92,7.14,7.14,0,0,0-3.26.83C91.82,30.63,88.37,35.17,86.18,38.3Z"/>
    <polygon class="cls-2" points="83.63 39.71 83.63 60.35 80.8 60.76 80.8 39.71 83.63 39.71"/>
    <path class="cls-2" d="M59.25,50V63.82l2.83-.4V52.82h40.27v4.87l2.83-.41V50Z"/>
  </g>
</svg>
