<?xml version="1.0" encoding="utf-8"?>
<!-- Generator: Adobe Illustrator 24.0.1, SVG Export Plug-In . SVG Version: 6.00 Build 0)  -->
<svg version="1.1" id="Capa_1" xmlns="http://www.w3.org/2000/svg" xmlns:xlink="http://www.w3.org/1999/xlink" x="0px" y="0px"
	 viewBox="0 0 587.9 587.9" style="enable-background:new 0 0 587.9 587.9;" xml:space="preserve">
<g>
	<path d="M97.6,492c25.5,25.7,55.2,45.9,88.3,60c34.3,14.6,70.6,22,108.1,22c37.5,0,73.8-7.4,108.1-22c33.1-14.1,62.8-34.3,88.3-60
		c25.5-25.7,45.5-55.6,59.5-89c14.5-34.6,21.8-71.2,21.8-109c0-37.8-7.3-74.5-21.8-109c-14-33.4-34-63.3-59.5-89
		c-25.5-25.7-55.2-45.9-88.3-60c-34.3-14.6-70.6-22-108.1-22c-37.5,0-73.8,7.4-108.1,22c-33.1,14.1-62.8,34.3-88.3,60
		s-45.5,55.6-59.5,89c-14.5,34.6-21.8,71.2-21.8,109c0,37.8,7.3,74.5,21.8,109C52.1,436.3,72.1,466.3,97.6,492z M294,54.8
		c131,0,237.1,107.1,237.1,239.2c0,132.1-106.2,239.2-237.1,239.2S56.8,426,56.8,294C56.8,161.9,163,54.8,294,54.8z"/>
	<path d="M294,574.5c-37.5,0-74-7.4-108.3-22.1c-33.1-14.1-62.9-34.4-88.4-60.1c-25.5-25.8-45.6-55.7-59.6-89.2
		C23.2,368.5,15.8,331.8,15.8,294c0-37.8,7.4-74.6,21.9-109.2c14-33.4,34.1-63.4,59.6-89.2s55.3-46,88.4-60.1
		C220,20.9,256.4,13.4,294,13.4c37.5,0,74,7.4,108.3,22.1c33.1,14.1,62.9,34.4,88.4,60.1c25.5,25.8,45.6,55.7,59.6,89.2
		c14.5,34.6,21.9,71.4,21.9,109.2c0,37.8-7.4,74.6-21.9,109.2c-14,33.4-34.1,63.4-59.6,89.2c-25.5,25.7-55.3,46-88.4,60.1
		C367.9,567,331.5,574.5,294,574.5z M294,14.4c-37.4,0-73.7,7.4-107.9,22c-33,14.1-62.7,34.2-88.1,59.9
		c-25.4,25.7-45.4,55.6-59.4,88.8C24.1,219.6,16.7,256.2,16.7,294c0,37.7,7.3,74.3,21.8,108.8c14,33.3,33.9,63.2,59.4,88.8
		c25.4,25.7,55.1,45.8,88.1,59.9c34.2,14.6,70.5,22,107.9,22s73.7-7.4,107.9-22c33-14.1,62.7-34.2,88.1-59.9
		c25.4-25.7,45.4-55.6,59.4-88.8c14.5-34.5,21.8-71.1,21.8-108.8c0-37.7-7.3-74.3-21.8-108.8c-14-33.3-33.9-63.2-59.4-88.8
		c-25.4-25.7-55.1-45.8-88.1-59.9C367.7,21.8,331.4,14.4,294,14.4z M294,533.6c-63.5,0-123.1-24.9-168-70.2
		C81.1,418.1,56.3,358,56.3,294s24.7-124.2,69.6-169.4c44.9-45.3,104.6-70.2,168-70.2s123.1,24.9,168,70.2
		c44.9,45.3,69.6,105.4,69.6,169.4S506.9,418.1,462,463.4C417.1,508.7,357.4,533.6,294,533.6z M294,55.3
		c-63.2,0-122.7,24.8-167.4,69.9c-44.7,45.1-69.3,105-69.3,168.8s24.6,123.7,69.3,168.8c44.7,45.1,104.1,69.9,167.4,69.9
		s122.7-24.8,167.4-69.9c44.7-45.1,69.3-105,69.3-168.8c0-63.8-24.6-123.7-69.3-168.8C416.6,80.1,357.2,55.3,294,55.3z"/>
</g>
<g>
	<path d="M190.8,398c4,4,9.1,6,14.3,6c5.2,0,10.4-2,14.3-6l74.5-75.1l74.5,75.1c4,4,9.1,6,14.3,6c5.2,0,10.4-2,14.3-6
		c7.9-8,7.9-20.9,0-28.9L322.6,294l74.5-75.1c7.9-8,7.9-20.9,0-28.9c-7.9-8-20.7-8-28.7,0L294,265l-74.5-75.1c-7.9-8-20.7-8-28.7,0
		c-7.9,8-7.9,20.9,0,28.9l74.5,75.1l-74.5,75.1C182.9,377.1,182.9,390,190.8,398z"/>
	<path d="M382.8,404.5c-5.5,0-10.7-2.2-14.7-6.1L294,323.5l-74.2,74.8c-3.9,4-9.1,6.1-14.7,6.1s-10.7-2.2-14.7-6.1
		c-3.9-4-6.1-9.2-6.1-14.8c0-5.6,2.2-10.8,6.1-14.8l74.2-74.8l-74.2-74.8c-8.1-8.2-8.1-21.4,0-29.6c3.9-4,9.1-6.1,14.7-6.1
		c5.5,0,10.7,2.2,14.7,6.1l74.2,74.8l74.2-74.8c3.9-4,9.1-6.1,14.7-6.1c5.5,0,10.7,2.2,14.7,6.1c3.9,4,6.1,9.2,6.1,14.8
		s-2.2,10.8-6.1,14.8L323.3,294l74.2,74.8c3.9,4,6.1,9.2,6.1,14.8c0,5.6-2.2,10.8-6.1,14.8C393.5,402.3,388.3,404.5,382.8,404.5z
		 M294,322.2l74.8,75.5c3.7,3.8,8.7,5.8,14,5.8c5.3,0,10.3-2.1,14-5.8c3.7-3.8,5.8-8.8,5.8-14.1s-2.1-10.3-5.8-14.1L321.9,294
		l74.8-75.5c3.7-3.8,5.8-8.8,5.8-14.1s-2.1-10.3-5.8-14.1c-3.7-3.8-8.7-5.8-14-5.8c-5.3,0-10.3,2.1-14,5.8L294,265.7l-74.8-75.5
		c-3.7-3.8-8.7-5.8-14-5.8c-5.3,0-10.3,2.1-14,5.8c-7.7,7.8-7.7,20.4,0,28.2L266,294l-74.8,75.5c-3.7,3.8-5.8,8.8-5.8,14.1
		s2.1,10.3,5.8,14.1c3.7,3.8,8.7,5.8,14,5.8s10.3-2.1,14-5.8L294,322.2z"/>
</g>
</svg>
