<svg id="Capa_1" data-name="Capa 1" xmlns="http://www.w3.org/2000/svg" xmlns:xlink="http://www.w3.org/1999/xlink" width="70" height="70" viewBox="0 0 70 70">
  <defs>
    <style>
      .cls-1 {
        fill: none;
      }

      .cls-2 {
        clip-path: url(#clip-path);
      }

      .cls-3 {
        fill: #fff;
      }
    </style>
    <clipPath id="clip-path">
      <rect class="cls-1" x="3.35" y="9.88" width="63.3" height="50.24"/>
    </clipPath>
  </defs>
  <title>iconoCasita</title>
  <g class="cls-2">
    <path class="cls-3" d="M34.77,20,12.36,38.46a.89.89,0,0,1,0,.11.74.74,0,0,0,0,.12V57.4a2.35,2.35,0,0,0,.74,1.75,2.38,2.38,0,0,0,1.75.75h15v-15h10v15h15a2.53,2.53,0,0,0,2.5-2.5V38.69a.45.45,0,0,0,0-.23Zm0,0"/>
    <path class="cls-3" d="M65.76,34.25l-8.53-7.1V11.24A1.2,1.2,0,0,0,56,10H48.5a1.18,1.18,0,0,0-.9.35,1.21,1.21,0,0,0-.35.89v7.61l-9.51-8a4.86,4.86,0,0,0-5.93,0l-28,23.36a1.12,1.12,0,0,0-.43.83,1.3,1.3,0,0,0,.28.92L6,38.88a1.29,1.29,0,0,0,.82.43A1.42,1.42,0,0,0,7.8,39l27-22.49L61.75,39a1.21,1.21,0,0,0,.82.27h.12a1.32,1.32,0,0,0,.82-.43L65.92,36a1.25,1.25,0,0,0,.27-.92,1.09,1.09,0,0,0-.43-.83Zm0,0"/>
  </g>
</svg>
