<?xml version="1.0" encoding="utf-8"?>
<!-- Generator: Adobe Illustrator 24.0.1, SVG Export Plug-In . SVG Version: 6.00 Build 0)  -->
<svg version="1.1" id="Capa_1" xmlns="http://www.w3.org/2000/svg" xmlns:xlink="http://www.w3.org/1999/xlink" x="0px" y="0px"
	 viewBox="0 0 174.9 203.1" style="enable-background:new 0 0 174.9 203.1;" xml:space="preserve">
<style type="text/css">
	.st0{enable-background:new    ;}
	.st1{fill:#C82F42;}
	.st2{fill:none;}
	.st3{fill:#1F1B36;}
	.st4{fill:none;stroke:#000000;stroke-width:2.13;stroke-miterlimit:10;}
	.st5{fill:none;stroke:#CD1931;stroke-miterlimit:10;}
	.st6{fill:none;stroke:#52FFBD;stroke-width:2.13;stroke-linecap:round;stroke-linejoin:round;}
	.st7{fill:none;stroke:#000000;stroke-linecap:round;stroke-linejoin:round;}
	.st8{fill:none;stroke:#CD1931;stroke-width:2.83;stroke-linecap:round;stroke-linejoin:round;}
	.st9{fill:#52FFBD;}
</style>
<g id="TEXTO">
	<g class="st0">
		<path class="st1" d="M30,163.5h2.5v11.9H30V163.5z"/>
		<path class="st1" d="M36.9,166.7l0.2,1h0.1c0.6-0.8,1.5-1.3,2.6-1.3c1.7,0,2.8,1,2.8,2.8v6.1h-2.4v-5.6c0-0.9-0.5-1.3-1.3-1.3
			c-0.5,0-1.2,0.3-1.6,0.9v5.9H35v-8.7H36.9z"/>
		<path class="st1" d="M50.2,174.3c-0.4,0.7-1.3,1.1-2.2,1.1c-2.4,0-3.4-1.8-3.4-4.5c0-2.9,1-4.5,3.4-4.5c1.1,0,1.9,0.5,2.5,1.3h0.1
			l0.2-1h1.9v7.9c0,3-1.4,4.6-4.4,4.6c-1.8,0-3.1-0.5-3.1-0.5v-2c0,0,1.1,0.6,2.9,0.6c1.7,0,2.2-1,2.2-1.9
			C50.2,175.1,50.2,174.3,50.2,174.3L50.2,174.3z M50.2,169.4c-0.2-0.4-0.7-1-1.5-1c-1.3,0-1.8,0.6-1.8,2.5c0,1.9,0.5,2.5,1.8,2.5
			c0.6,0,1.3-0.4,1.5-1V169.4z"/>
	</g>
	<g class="st0">
		<path class="st1" d="M57.2,168.1c0.4-1.2,1.2-1.7,2-1.7c0.4,0,0.7,0.1,1,0.2v2c-0.3-0.1-0.5-0.1-0.8-0.1c-1,0-1.7,0.5-2.1,1.6v5.2
			h-2.4v-8.7h1.9L57.2,168.1L57.2,168.1z"/>
	</g>
	<g class="st0">
		<path class="st1" d="M60.9,170.7c0-2.7,1.4-4.3,4-4.3c2.3,0,3.8,1.3,3.8,4.1c0,0.4,0,0.8-0.1,1.2h-5.4c0.1,1.4,0.7,2,2.2,2
			c1,0,2-0.2,2.8-0.6v1.9c-0.8,0.4-1.8,0.6-3,0.6C62.2,175.6,60.9,174,60.9,170.7z M66.5,170.1c0-1.3-0.6-1.8-1.6-1.8
			c-1.1,0-1.5,0.6-1.6,1.8H66.5z"/>
		<path class="st1" d="M70.2,173c0,0,0.9,0.7,2.4,0.7c0.7,0,1.4-0.2,1.4-0.9c0-0.7-0.8-0.9-1.7-1.2c-1-0.3-2.2-0.8-2.2-2.5
			c0-2.3,2-2.7,3.3-2.7c1.3,0,2.4,0.3,2.4,0.3v2c0,0-1.1-0.5-2.1-0.5c-1,0-1.4,0.3-1.4,0.7c0,0.6,0.9,0.7,1.9,1c1,0.3,2,0.9,2,2.7
			c0,2.2-1.5,2.8-3.3,2.8c-1.8,0-2.7-0.6-2.7-0.6V173z"/>
		<path class="st1" d="M81.8,175.6c-2.9,0-4.2-1.4-4.2-4.6c0-3.2,1.3-4.6,4.2-4.6s4.2,1.4,4.2,4.6C85.9,174.2,84.6,175.6,81.8,175.6
			z M81.8,173.6c1.3,0,1.8-0.7,1.8-2.6c0-2-0.5-2.6-1.8-2.6S80,169,80,171C80,173,80.5,173.6,81.8,173.6z"/>
		<path class="st1" d="M100.9,165.9c-0.6-0.3-1.8-0.5-2.8-0.5c-2.1,0-3,1-3,3.9c0,3.1,0.9,4.1,3.1,4.1c1,0,2.1-0.2,2.8-0.6v2.1
			c-0.8,0.4-2,0.6-3.1,0.6c-3.6,0-5.4-2-5.4-6.3c0-4.1,1.7-6.1,5.4-6.1c1,0,2.3,0.2,2.9,0.5V165.9z"/>
		<path class="st1" d="M102.8,162.6h2.4v12.8h-2.4V162.6z"/>
		<path class="st1" d="M108.7,162.8c0.9,0,1.3,0.3,1.3,1.2c0,0.9-0.4,1.2-1.3,1.2c-0.9,0-1.3-0.3-1.3-1.2
			C107.4,163.1,107.9,162.8,108.7,162.8z M107.5,166.7h2.4v8.7h-2.4V166.7z"/>
		<path class="st1" d="M111.8,170.7c0-2.7,1.4-4.3,4-4.3c2.3,0,3.8,1.3,3.8,4.1c0,0.4,0,0.8-0.1,1.2h-5.4c0.1,1.4,0.7,2,2.2,2
			c1,0,2-0.2,2.8-0.6v1.9c-0.8,0.4-1.8,0.6-3,0.6C113.2,175.6,111.8,174,111.8,170.7z M117.4,170.1c0-1.3-0.6-1.8-1.6-1.8
			c-1.1,0-1.5,0.6-1.6,1.8H117.4z"/>
		<path class="st1" d="M123.5,166.7l0.2,1h0.1c0.6-0.8,1.5-1.3,2.6-1.3c1.7,0,2.8,1,2.8,2.8v6.1h-2.4v-5.6c0-0.9-0.5-1.3-1.3-1.3
			c-0.5,0-1.2,0.3-1.6,0.9v5.9h-2.4v-8.7H123.5z"/>
	</g>
	<g class="st0">
		<path class="st1" d="M134.2,168.6v3.6c0,1.1,0.6,1.5,1.5,1.5c0.3,0,0.7-0.1,0.9-0.1v1.8c-0.4,0.2-1.1,0.3-1.7,0.3
			c-2,0-3-1.1-3-2.9v-4h-1.3v-1.9h1.4v-2.5h2.3v2.5h2.4v1.9H134.2z"/>
	</g>
	<g class="st0">
		<path class="st1" d="M137.6,170.7c0-2.7,1.4-4.3,4-4.3c2.3,0,3.8,1.3,3.8,4.1c0,0.4,0,0.8-0.1,1.2H140c0.1,1.4,0.7,2,2.2,2
			c1,0,2-0.2,2.8-0.6v1.9c-0.8,0.4-1.8,0.6-3,0.6C139,175.6,137.6,174,137.6,170.7z M143.3,170.1c0-1.3-0.6-1.8-1.6-1.8
			c-1.1,0-1.5,0.6-1.6,1.8H143.3z"/>
		<path class="st1" d="M147,173c0,0,0.9,0.7,2.4,0.7c0.7,0,1.4-0.2,1.4-0.9c0-0.7-0.8-0.9-1.7-1.2c-1-0.3-2.2-0.8-2.2-2.5
			c0-2.3,2-2.7,3.3-2.7s2.4,0.3,2.4,0.3v2c0,0-1.1-0.5-2.1-0.5c-1,0-1.4,0.3-1.4,0.7c0,0.6,0.9,0.7,1.9,1c1,0.3,2,0.9,2,2.7
			c0,2.2-1.5,2.8-3.3,2.8c-1.8,0-2.7-0.6-2.7-0.6V173z"/>
	</g>
</g>
<g id="LINEAS">
	<g id="Grupo_261">
		<line id="Línea_24" class="st2" x1="49.2" y1="134" x2="40.7" y2="134"/>
		<path id="Trazado_481" class="st3" d="M40.7,134.5h8.5c0.3,0,0.5-0.2,0.5-0.5l0,0c0-0.3-0.2-0.5-0.5-0.6h-8.5
			c-0.3,0-0.5,0.2-0.5,0.5C40.2,134.3,40.4,134.5,40.7,134.5z"/>
	</g>
	<g id="Grupo_262">
		<line id="Línea_25" class="st2" x1="135.7" y1="134" x2="57.4" y2="134"/>
		<path id="Trazado_482" class="st3" d="M57.4,134.5h78.3c0.3,0,0.5-0.2,0.5-0.5s-0.2-0.5-0.5-0.5H57.4c-0.3,0-0.5,0.3-0.5,0.6
			C56.9,134.3,57.1,134.5,57.4,134.5z"/>
	</g>
	<g id="Grupo_255">
		<g id="Grupo_252">
			<line id="Línea_20" class="st2" x1="28.6" y1="128.8" x2="12" y2="128.8"/>
			<path id="Trazado_473" class="st3" d="M12,129.4h16.6c0.3-0.1,0.5-0.4,0.4-0.7c-0.1-0.2-0.2-0.3-0.4-0.4H12
				c-0.3,0.1-0.5,0.4-0.4,0.7C11.7,129.2,11.8,129.3,12,129.4z"/>
		</g>
		<g id="Grupo_253">
			<line id="Línea_21" class="st2" x1="37.6" y1="128.8" x2="31.8" y2="128.8"/>
			<path id="Trazado_474" class="st3" d="M31.8,129.4h5.8c0.2,0,0.4-0.2,0.4-0.5s-0.1-0.5-0.4-0.6h-5.8c-0.2,0-0.4,0.2-0.4,0.5
				C31.3,129.1,31.5,129.3,31.8,129.4L31.8,129.4z"/>
		</g>
		<g id="Grupo_254">
			<line id="Línea_22" class="st2" x1="165.7" y1="128.8" x2="25.1" y2="128.8"/>
			<path id="Trazado_475" class="st3" d="M41,129.4h124.8c0.2,0,0.4-0.2,0.4-0.6s-0.2-0.5-0.4-0.5H41c-0.2,0-0.4,0.3-0.3,0.6
				S40.8,129.3,41,129.4z"/>
		</g>
	</g>
</g>
<g id="MISC_x5F_1">
	<circle class="st4" cx="40.7" cy="100.4" r="1.8"/>
</g>
<g id="MISC_x5F_3">
	<circle class="st5" cx="53.8" cy="49.8" r="1.8"/>
</g>
<g id="MISC_x5F_2">
	<line id="Línea_58" class="st6" x1="28.2" y1="69.6" x2="28.6" y2="70.1"/>
	<line id="Línea_60" class="st6" x1="21.5" y1="63" x2="22" y2="63.5"/>
	<line id="Línea_59" class="st6" x1="28.2" y1="63.5" x2="28.6" y2="63"/>
	<line id="Línea_65" class="st6" x1="21.5" y1="70.1" x2="22" y2="69.6"/>
</g>
<g id="MISC_x5F_4">
	<line id="Línea_62" class="st7" x1="123.8" y1="24.3" x2="124.3" y2="23.8"/>
	<line id="Línea_63" class="st7" x1="124.3" y1="26.9" x2="123.8" y2="26.5"/>
	<line id="Línea_63-2" class="st7" x1="121.2" y1="26.9" x2="121.7" y2="26.5"/>
	<line id="Línea_64" class="st7" x1="121.7" y1="24.3" x2="121.2" y2="23.8"/>
</g>
<g id="MISC_x5F_6">
	<line id="Línea_53" class="st8" x1="141.4" y1="107" x2="142.4" y2="106"/>
	<line id="Línea_54" class="st8" x1="146.9" y1="101.5" x2="148" y2="100.5"/>
	<line id="Línea_55" class="st8" x1="148" y1="107" x2="146.9" y2="106"/>
	<line id="Línea_56" class="st8" x1="142.4" y1="101.5" x2="141.4" y2="100.5"/>
</g>
<g id="MISC_x5F_5">
	<path id="Trazado_349" class="st9" d="M150.8,63.3h-16c-0.5,0-0.9-0.4-0.9-0.9s0.4-0.9,0.9-0.9h16c0.5,0,0.9,0.4,0.9,0.9l0,0
		C151.6,63,151.2,63.4,150.8,63.3C150.8,63.4,150.8,63.4,150.8,63.3z"/>
	<path id="Trazado_352" class="st3" d="M151.1,68.3h-10.8c-0.5,0-0.9-0.4-0.9-0.9s0.4-0.9,0.9-0.9l0,0h10.8c0.5,0,0.9,0.4,0.9,0.9
		S151.5,68.3,151.1,68.3L151.1,68.3z"/>
	<path id="Trazado_353" class="st3" d="M156.4,68.3H155c-0.5,0-0.9-0.4-0.9-0.9s0.4-0.9,0.9-0.9h1.4c0.5,0,0.9,0.4,0.9,0.9
		S156.9,68.3,156.4,68.3L156.4,68.3z"/>
</g>
<g id="PERSONA">
	<path class="st3" d="M120.1,112.7L120.1,112.7c-1.1-4-3-6.3-6-7.3L96.3,99v-3.5c0.9,0.1,1.8,0.1,2.8,0.1c4.5-0.1,8.9-0.8,13.2-2
		c1.6-0.6,5.4-2.3,5.2-4.3c-0.1-0.7-0.6-1.5-2.7-1.7c-6.4-0.6-6.5-14.1-6.5-14.8l0,0c0-0.4,0-7.2,0-7.7c0-7.5-4.6-14-12-16.8
		c-11.4-4.4-19.9,0-20.2,0.1c-6.9,3.7-11,9.9-11,16.7c0,1.3,0,4.8,0,5.3c0,4.8-1.2,17.2-6.7,17.7c-2.4,0.2-2.7,1.3-2.7,2
		c0.2,2.7,8,6.3,19.7,6.3H77V99l-17.7,6.4c-3,1.1-4.9,3.4-6,7.3l-2.7,15c-0.1,0.4,0.1,0.9,0.6,1c0.4,0.1,0.9-0.1,1-0.6V128l2.6-14.9
		c1-3.3,2.5-5.3,5-6.2l0.4-0.1c2.4,4.8,15,7.4,26.8,7.4c13.4,0,24.3-3,26.7-7.1c2.3,0.9,3.8,2.9,4.8,6.1l2.6,14.8
		c0.1,0.4,0.5,0.7,0.9,0.6l0,0c0.4-0.1,0.7-0.5,0.6-0.9l0,0L120.1,112.7z M87.1,105.7c0.3,0,0.6,0.4,0.6,0.8s-0.3,0.8-0.6,0.8
		s-0.6-0.4-0.6-0.8S86.7,105.7,87.1,105.7L87.1,105.7z M88.2,104.5c-0.3-0.2-0.7-0.4-1.1-0.4s-0.9,0.2-1.2,0.4l-7.2-5.4v-8.6
		c2.5,1.4,5.3,2,8.1,2c2.8,0,5.5-0.5,8.1-1.6v8.3L88.2,104.5z M57.3,90c0,0,0.2-0.3,1.3-0.4c8-0.8,8.1-18.5,8.1-19.2l0,0
		c0-0.3,0-4.1,0-5.2c0-6.2,3.8-11.9,10.2-15.3c0.1,0,8.2-4.2,19-0.1c6.8,2.6,11,8.5,11,15.3c0,0.4,0,7.3,0,7.6l0,0l0,0
		c0,0.7-0.1,15.7,7.9,16.5c0.4,0,0.9,0.1,1.2,0.3c0,0.2-0.8,1.4-4.1,2.6c-0.1,0-8.4,2.5-15.5,1.8v-4.1c3.2-2.5,5.3-6.2,5.8-10.3
		c1.3,0.7,2.8,0.3,3.5-1c0.6-1.1,0.4-2.4-0.5-3.2c0.2-0.4,0.3-0.9,0.3-1.4v-3.3c0-1.4-1.1-2.5-2.5-2.5l0,0h-0.6v-1.3l1,0.1l0,0
		c0.4,0,0.8-0.4,0.8-0.8s-0.4-0.8-0.8-0.8c-13.6-0.6-18.5-13.5-18.5-13.6c-0.2-0.4-0.6-0.6-1-0.5c-0.4,0.2-0.6,0.6-0.5,1
		c0.5,1.2,1,2.3,1.7,3.3c-0.9,5-12,8.1-16.1,8.8c-0.4,0.1-0.7,0.5-0.6,0.9s0.4,0.7,0.8,0.6c0.6-0.1,14.1-2.6,17-8.7
		c3.4,5,8.6,8.4,14.6,9.4v11.2c0,5.4-3,13.1-14,13.1c-8.5,0-13.3-5.7-13.3-13.1V67.6c0-0.4-0.3-0.8-0.7-0.9c-0.4,0-0.8,0.3-0.9,0.7
		c0,0.1,0,0.1,0,0.2v0.3h-0.2c-1.7,0-3,1.3-3,3v3.4c0,0.4,0.1,0.8,0.2,1.1c-0.4,0.5-0.7,1.1-0.7,1.8c0,1.4,1.1,2.6,2.6,2.6
		c0.4,0,0.8-0.1,1.2-0.3c0.3,3.8,2.1,7.4,5.1,9.9v5.2C64.1,95.1,57.4,91,57.3,90z M103.3,76.2c0.6,0,1,0.5,1,1s-0.5,1-1,1
		s-1-0.5-1-1S102.7,76.2,103.3,76.2z M103.8,74c0,0.2-0.1,0.5-0.2,0.7c-0.1,0-0.3,0-0.4,0c-0.3,0-0.7,0.1-1,0.2v-5.1h0.6
		c0.5,0,1,0.3,1,0.8v0.1V74z M70.8,78.3c-0.6,0-1-0.5-1-1s0.5-1,1-1s1,0.5,1,1S71.4,78.3,70.8,78.3z M70.2,74.4V71
		c0-0.8,0.6-1.4,1.4-1.4l0,0h0.2v5.3c-0.3-0.1-0.7-0.2-1-0.2c-0.2,0-0.3,0-0.5,0C70.3,74.5,70.2,74.4,70.2,74.4L70.2,74.4z
		 M87,112.5c-13.8,0-23.5-3.2-25.4-6.3l16-5.7l7.3,5.4c-0.1,0.2-0.1,0.5-0.1,0.7c-0.1,1.2,0.8,2.3,2,2.4s2.3-0.8,2.4-2
		c0-0.1,0-0.3,0-0.4c0-0.3-0.1-0.5-0.1-0.8l6.6-5.3l16.5,5.9C110.1,109.4,100.4,112.5,87,112.5z"/>
	<path class="st3" d="M82.6,72.2c0-0.8-0.7-1.5-1.5-1.5s-1.5,0.7-1.5,1.5s0.7,1.5,1.5,1.5l0,0C81.9,73.7,82.6,73,82.6,72.2z"/>
	<path class="st3" d="M92.5,70.6c-0.8,0-1.5,0.6-1.6,1.5s0.6,1.5,1.5,1.6c0.8,0,1.5-0.6,1.6-1.5l0,0C94,71.3,93.3,70.7,92.5,70.6z"
		/>
	<path class="st3" d="M85.5,79.1h2.4c0.4,0,0.7-0.4,0.7-0.9c0-0.4-0.3-0.7-0.7-0.7h-2.4c-0.4,0-0.8,0.3-0.9,0.7
		c0,0.4,0.3,0.8,0.7,0.9C85.4,79.1,85.4,79.1,85.5,79.1z"/>
	<path class="st3" d="M76.9,69.8c0.5-0.1,5.1-1.4,5.3-1.4c0.4-0.1,0.7-0.6,0.6-1l0,0c-0.1-0.4-0.5-0.7-1-0.6l0,0
		c-1.7,0.4-4.9,1.3-5.2,1.4c-0.4,0.1-0.6,0.6-0.5,1C76.2,69.6,76.5,69.8,76.9,69.8L76.9,69.8z"/>
	<path class="st3" d="M91.1,68.3c0.2,0.1,4.9,1.3,5.3,1.4s0.9-0.1,1-0.5s-0.1-0.9-0.5-1h-0.1c-0.4-0.1-3.6-1-5.3-1.4
		c-0.4-0.1-0.8,0.2-0.9,0.6S90.7,68.2,91.1,68.3z"/>
</g>
<g id="BOCA">
	<path class="st3" d="M81.3,82.4C81,82.7,81,83.1,81,83.5c0.6,2,2.9,3.5,5.6,3.5s5.1-1.4,5.6-3.5c0.1-0.4,0-0.8-0.2-1.1
		c-0.3-0.4-0.8-0.6-1.4-0.6h-8.1C82.1,81.8,81.6,82,81.3,82.4z M90.7,83.4c-0.5,0-2.2,0-4,0s-3.5,0-4,0H90.7z"/>
</g>
</svg>
