<?xml version="1.0" encoding="utf-8"?>
<!-- Generator: Adobe Illustrator 24.0.1, SVG Export Plug-In . SVG Version: 6.00 Build 0)  -->
<svg version="1.1" id="Capa_1" xmlns="http://www.w3.org/2000/svg" xmlns:xlink="http://www.w3.org/1999/xlink" x="0px" y="0px"
	 viewBox="0 0 174.9 203.1" style="enable-background:new 0 0 174.9 203.1;" xml:space="preserve">
<style type="text/css">
	.st0{enable-background:new    ;}
	.st1{fill:#C82F42;}
	.st2{fill:#1F1B36;}
	.st3{fill:none;stroke:#CD1931;stroke-width:2.13;stroke-miterlimit:10;}
	.st4{fill:none;stroke:#52FFBD;stroke-miterlimit:10;}
	.st5{fill:none;stroke:#CD1931;stroke-width:2.13;stroke-linecap:round;stroke-linejoin:round;}
	.st6{fill:none;stroke:#000000;stroke-linecap:round;stroke-linejoin:round;}
	.st7{fill:#52FFBD;}
	.st8{fill:#CD1931;}
</style>
<g id="TEXTO">
	<g class="st0">
		<path class="st1" d="M11.4,155.8h2.5v11.9h-2.5V155.8z"/>
		<path class="st1" d="M18.3,159l0.2,1h0.1c0.6-0.8,1.5-1.3,2.6-1.3c1.7,0,2.8,1,2.8,2.8v6.1h-2.4v-5.6c0-0.9-0.5-1.3-1.3-1.3
			c-0.5,0-1.2,0.3-1.6,0.9v5.9h-2.4V159H18.3z"/>
		<path class="st1" d="M31.5,166.7c-0.4,0.7-1.3,1.1-2.2,1.1c-2.4,0-3.4-1.8-3.4-4.5c0-2.9,1-4.5,3.4-4.5c1.1,0,1.9,0.5,2.5,1.3h0.1
			l0.2-1h1.9v7.9c0,3-1.4,4.6-4.4,4.6c-1.8,0-3.1-0.5-3.1-0.5v-2c0,0,1.1,0.6,2.9,0.6c1.7,0,2.2-1,2.2-1.9
			C31.5,167.5,31.6,166.7,31.5,166.7L31.5,166.7z M31.5,161.8c-0.2-0.4-0.7-1-1.5-1c-1.3,0-1.8,0.6-1.8,2.5c0,1.9,0.5,2.5,1.8,2.5
			c0.6,0,1.3-0.4,1.5-1V161.8z"/>
	</g>
	<g class="st0">
		<path class="st1" d="M38.6,160.5c0.4-1.2,1.2-1.7,2-1.7c0.4,0,0.7,0.1,1,0.2v2c-0.3-0.1-0.5-0.1-0.8-0.1c-1,0-1.7,0.5-2.1,1.6v5.2
			h-2.4V159h1.9L38.6,160.5L38.6,160.5z"/>
	</g>
	<g class="st0">
		<path class="st1" d="M42.2,163.1c0-2.7,1.4-4.3,4-4.3c2.3,0,3.8,1.3,3.8,4.1c0,0.4,0,0.8-0.1,1.2h-5.4c0.1,1.4,0.7,2,2.2,2
			c1,0,2-0.2,2.8-0.6v1.9c-0.8,0.4-1.8,0.6-3,0.6C43.6,168,42.2,166.4,42.2,163.1z M47.8,162.5c0-1.3-0.6-1.8-1.6-1.8
			c-1.1,0-1.5,0.6-1.6,1.8H47.8z"/>
		<path class="st1" d="M51.6,165.4c0,0,0.9,0.7,2.4,0.7c0.7,0,1.4-0.2,1.4-0.9c0-0.7-0.8-0.9-1.7-1.2c-1-0.3-2.2-0.8-2.2-2.5
			c0-2.3,2-2.7,3.3-2.7c1.3,0,2.4,0.3,2.4,0.3v2c0,0-1.1-0.5-2.1-0.5c-1,0-1.4,0.3-1.4,0.7c0,0.6,0.9,0.7,1.9,1c1,0.3,2,0.9,2,2.7
			c0,2.2-1.5,2.8-3.3,2.8c-1.8,0-2.7-0.6-2.7-0.6V165.4z"/>
		<path class="st1" d="M63.1,168c-2.9,0-4.2-1.4-4.2-4.6c0-3.2,1.3-4.6,4.2-4.6s4.2,1.4,4.2,4.6C67.3,166.6,66,168,63.1,168z
			 M63.1,166c1.3,0,1.8-0.7,1.8-2.6c0-2-0.5-2.6-1.8-2.6s-1.8,0.7-1.8,2.6C61.4,165.4,61.8,166,63.1,166z"/>
		<path class="st1" d="M78.7,163.6h-1.8v4.1h-2.5v-11.9h4.3c3,0,4.4,1.1,4.4,3.9C83.1,162.5,81.7,163.6,78.7,163.6z M78.5,158h-1.6
			v3.5h1.6c1.5,0,2.1-0.5,2.1-1.7C80.6,158.5,80,158,78.5,158z"/>
	</g>
	<g class="st0">
		<path class="st1" d="M87,160.5c0.4-1.2,1.2-1.7,2-1.7c0.4,0,0.7,0.1,1,0.2v2c-0.3-0.1-0.5-0.1-0.8-0.1c-1,0-1.7,0.5-2.1,1.6v5.2
			h-2.4V159h1.9L87,160.5L87,160.5z"/>
	</g>
	<g class="st0">
		<path class="st1" d="M94.8,168c-2.9,0-4.2-1.4-4.2-4.6c0-3.2,1.3-4.6,4.2-4.6s4.2,1.4,4.2,4.6C99,166.6,97.7,168,94.8,168z
			 M94.8,166c1.3,0,1.8-0.7,1.8-2.6c0-2-0.5-2.6-1.8-2.6c-1.3,0-1.8,0.7-1.8,2.6C93,165.4,93.5,166,94.8,166z"/>
		<path class="st1" d="M106.3,166.7h-0.1c-0.5,0.8-1.3,1.3-2.5,1.3c-2.4,0-3.4-1.6-3.4-4.6c0-2.8,1.1-4.6,3.4-4.6
			c0.9,0,1.8,0.4,2.2,1.1h0.1c0,0-0.1-1.2-0.1-1.7V155h2.4v12.8h-1.9L106.3,166.7z M106.1,161.8c-0.2-0.6-0.9-1-1.5-1
			c-1.2,0-1.8,0.6-1.8,2.6c0,1.9,0.5,2.6,1.8,2.6c0.9,0,1.3-0.6,1.5-1V161.8z"/>
		<path class="st1" d="M116.5,167.7l-0.2-1h-0.1c-0.6,0.8-1.5,1.3-2.6,1.3c-1.7,0-2.8-1-2.8-2.8V159h2.4v5.6c0,0.9,0.5,1.3,1.3,1.3
			c0.5,0,1.2-0.3,1.6-0.9V159h2.4v8.7H116.5z"/>
		<path class="st1" d="M127,161.3c-0.6-0.3-1.4-0.5-2.1-0.5c-1.7,0-2.2,0.8-2.2,2.6c0,2,0.7,2.7,2.1,2.7c0.7,0,1.6-0.2,2.2-0.7v2
			c-0.6,0.3-1.6,0.6-2.6,0.6c-2.7,0-4.1-1.4-4.1-4.7c0-3,1.4-4.5,4.3-4.5c0.8,0,1.7,0.2,2.4,0.4V161.3z"/>
	</g>
	<g class="st0">
		<path class="st1" d="M131.5,161v3.6c0,1.1,0.6,1.5,1.5,1.5c0.3,0,0.7-0.1,0.9-0.1v1.8c-0.4,0.2-1.1,0.3-1.7,0.3c-2,0-3-1.1-3-2.9
			v-4h-1.3V159h1.4v-2.5h2.3v2.5h2.4v1.9H131.5z"/>
	</g>
	<g class="st0">
		<path class="st1" d="M139.1,168c-2.9,0-4.2-1.4-4.2-4.6c0-3.2,1.3-4.6,4.2-4.6s4.2,1.4,4.2,4.6C143.3,166.6,142,168,139.1,168z
			 M139.1,166c1.3,0,1.8-0.7,1.8-2.6c0-2-0.5-2.6-1.8-2.6c-1.3,0-1.8,0.7-1.8,2.6C137.3,165.4,137.8,166,139.1,166z"/>
	</g>
	<g class="st0">
		<path class="st1" d="M147.4,160.5c0.4-1.2,1.2-1.7,2-1.7c0.4,0,0.7,0.1,1,0.2v2c-0.3-0.1-0.5-0.1-0.8-0.1c-1,0-1.7,0.5-2.1,1.6
			v5.2h-2.4V159h1.9L147.4,160.5L147.4,160.5z"/>
	</g>
	<g class="st0">
		<path class="st1" d="M151.1,163.1c0-2.7,1.4-4.3,4-4.3c2.3,0,3.8,1.3,3.8,4.1c0,0.4,0,0.8-0.1,1.2h-5.4c0.1,1.4,0.7,2,2.2,2
			c1,0,2-0.2,2.8-0.6v1.9c-0.8,0.4-1.8,0.6-3,0.6C152.4,168,151.1,166.4,151.1,163.1z M156.7,162.5c0-1.3-0.6-1.8-1.6-1.8
			c-1.1,0-1.5,0.6-1.6,1.8H156.7z"/>
		<path class="st1" d="M160.4,165.4c0,0,0.9,0.7,2.4,0.7c0.7,0,1.4-0.2,1.4-0.9c0-0.7-0.8-0.9-1.7-1.2c-1-0.3-2.2-0.8-2.2-2.5
			c0-2.3,2-2.7,3.3-2.7c1.3,0,2.4,0.3,2.4,0.3v2c0,0-1.1-0.5-2.1-0.5c-1,0-1.4,0.3-1.4,0.7c0,0.6,0.9,0.7,1.9,1c1,0.3,2,0.9,2,2.7
			c0,2.2-1.5,2.8-3.3,2.8c-1.8,0-2.7-0.6-2.7-0.6V165.4z"/>
	</g>
	<g class="st0">
		<path class="st1" d="M62.3,182.3h-4.5l-0.8,2.5h-2.6l4.4-11.9h2.6l4.4,11.9h-2.7L62.3,182.3z M58.5,180.1h3.1l-1.5-4.6H60
			L58.5,180.1z"/>
		<path class="st1" d="M66.4,182.5c0,0,0.9,0.7,2.4,0.7c0.7,0,1.4-0.2,1.4-0.9c0-0.7-0.8-0.9-1.7-1.2c-1-0.3-2.2-0.8-2.2-2.5
			c0-2.3,2-2.7,3.3-2.7c1.3,0,2.4,0.3,2.4,0.3v2c0,0-1.1-0.5-2.1-0.5c-1,0-1.4,0.3-1.4,0.7c0,0.6,0.9,0.7,1.9,1c1,0.3,2,0.9,2,2.7
			c0,2.2-1.5,2.8-3.3,2.8c-1.8,0-2.7-0.6-2.7-0.6V182.5z"/>
		<path class="st1" d="M73.8,180.2c0-2.7,1.4-4.3,4-4.3c2.3,0,3.8,1.3,3.8,4.1c0,0.4,0,0.8-0.1,1.2h-5.4c0.1,1.4,0.7,2,2.2,2
			c1,0,2-0.2,2.8-0.6v1.9c-0.8,0.4-1.8,0.6-3,0.6C75.1,185,73.8,183.5,73.8,180.2z M79.4,179.5c0-1.3-0.6-1.8-1.6-1.8
			c-1.1,0-1.5,0.6-1.6,1.8H79.4z"/>
		<path class="st1" d="M83.1,182.5c0,0,0.9,0.7,2.4,0.7c0.7,0,1.4-0.2,1.4-0.9c0-0.7-0.8-0.9-1.7-1.2c-1-0.3-2.2-0.8-2.2-2.5
			c0-2.3,2-2.7,3.3-2.7c1.3,0,2.4,0.3,2.4,0.3v2c0,0-1.1-0.5-2.1-0.5c-1,0-1.4,0.3-1.4,0.7c0,0.6,0.9,0.7,1.9,1c1,0.3,2,0.9,2,2.7
			c0,2.2-1.5,2.8-3.3,2.8c-1.8,0-2.7-0.6-2.7-0.6V182.5z"/>
		<path class="st1" d="M94.7,185c-2.9,0-4.2-1.4-4.2-4.6c0-3.2,1.3-4.6,4.2-4.6s4.2,1.4,4.2,4.6C98.9,183.6,97.6,185,94.7,185z
			 M94.7,183.1c1.3,0,1.8-0.7,1.8-2.6c0-2-0.5-2.6-1.8-2.6c-1.3,0-1.8,0.7-1.8,2.6C92.9,182.4,93.4,183.1,94.7,183.1z"/>
	</g>
	<g class="st0">
		<path class="st1" d="M103,177.5c0.4-1.2,1.2-1.7,2-1.7c0.4,0,0.7,0.1,1,0.2v2c-0.3-0.1-0.5-0.1-0.8-0.1c-1,0-1.7,0.5-2.1,1.6v5.2
			h-2.4v-8.7h1.9L103,177.5L103,177.5z"/>
	</g>
	<g class="st0">
		<path class="st1" d="M106.7,180.2c0-2.7,1.4-4.3,4-4.3c2.3,0,3.8,1.3,3.8,4.1c0,0.4,0,0.8-0.1,1.2h-5.4c0.1,1.4,0.7,2,2.2,2
			c1,0,2-0.2,2.8-0.6v1.9c-0.8,0.4-1.8,0.6-3,0.6C108,185,106.7,183.5,106.7,180.2z M112.3,179.5c0-1.3-0.6-1.8-1.6-1.8
			c-1.1,0-1.5,0.6-1.6,1.8H112.3z"/>
		<path class="st1" d="M116.1,182.5c0,0,0.9,0.7,2.4,0.7c0.7,0,1.4-0.2,1.4-0.9c0-0.7-0.8-0.9-1.7-1.2c-1-0.3-2.2-0.8-2.2-2.5
			c0-2.3,2-2.7,3.3-2.7c1.3,0,2.4,0.3,2.4,0.3v2c0,0-1.1-0.5-2.1-0.5c-1,0-1.4,0.3-1.4,0.7c0,0.6,0.9,0.7,1.9,1c1,0.3,2,0.9,2,2.7
			c0,2.2-1.5,2.8-3.3,2.8c-1.8,0-2.7-0.6-2.7-0.6V182.5z"/>
	</g>
</g>
<g id="LINEA">
	<g id="Grupo_261">
		<path id="Trazado_481" class="st2" d="M136.3,134.4h-8.5c-0.3,0-0.5-0.2-0.6-0.5c0-0.3,0.2-0.5,0.5-0.6h8.5c0.3,0,0.5,0.3,0.5,0.6
			C136.7,134.2,136.6,134.4,136.3,134.4z"/>
	</g>
	<g id="Grupo_262">
		<path id="Trazado_482" class="st2" d="M119.6,134.4H41.3c-0.3,0-0.5-0.2-0.5-0.5l0,0c0-0.3,0.2-0.5,0.5-0.5h78.3
			c0.3,0,0.5,0.3,0.5,0.6C120.1,134.2,119.9,134.4,119.6,134.4z"/>
	</g>
	<g id="Grupo_255">
		<g id="Grupo_252">
			<path id="Trazado_473" class="st2" d="M165,129.2h-16.6c-0.3-0.1-0.4-0.3-0.4-0.6c0-0.2,0.1-0.5,0.4-0.5H165
				c0.3,0.1,0.5,0.4,0.4,0.7C165.3,129,165.2,129.2,165,129.2z"/>
		</g>
		<g id="Grupo_253">
			<path id="Trazado_474" class="st2" d="M145.2,129.2h-5.8c-0.3-0.1-0.5-0.4-0.4-0.7c0-0.2,0.2-0.4,0.4-0.4h5.8
				c0.2,0,0.4,0.2,0.4,0.5C145.7,129,145.5,129.2,145.2,129.2L145.2,129.2z"/>
		</g>
		<g id="Grupo_254">
			<path id="Trazado_475" class="st2" d="M136,129.2H11.2c-0.2,0-0.4-0.3-0.4-0.6s0.2-0.5,0.4-0.5H136c0.2,0,0.4,0.2,0.4,0.6
				S136.2,129.2,136,129.2z"/>
		</g>
	</g>
</g>
<g id="MISC_x5F_3">
	<circle class="st3" cx="36.5" cy="36.5" r="1.8"/>
</g>
<g id="MISC_x5F_6">
	<circle class="st4" cx="134.5" cy="108.5" r="1.8"/>
</g>
<g id="MISC_x5F_4">
	<line id="Línea_58" class="st5" x1="109.9" y1="50.7" x2="110.3" y2="51.2"/>
	<line id="Línea_60" class="st5" x1="103.2" y1="44.1" x2="103.7" y2="44.5"/>
	<line id="Línea_59" class="st5" x1="109.9" y1="44.5" x2="110.3" y2="44.1"/>
	<line id="Línea_65" class="st5" x1="103.2" y1="51.2" x2="103.7" y2="50.7"/>
</g>
<g id="MISC_x5F_5">
	<line id="Línea_62" class="st6" x1="119.4" y1="33.1" x2="119.9" y2="32.6"/>
	<line id="Línea_63" class="st6" x1="119.9" y1="35.7" x2="119.4" y2="35.2"/>
	<line id="Línea_63-2" class="st6" x1="116.8" y1="35.7" x2="117.3" y2="35.2"/>
	<line id="Línea_64" class="st6" x1="117.3" y1="33.1" x2="116.8" y2="32.6"/>
</g>
<g id="MISC_x5F_2">
	<g id="Línea_53">
		<path class="st7" d="M15.9,84.9c-0.3,0-0.7-0.1-1-0.4c-0.6-0.5-0.6-1.4-0.1-2l1-1.1c0.5-0.6,1.4-0.6,2-0.1c0.6,0.5,0.6,1.4,0.1,2
			l-1,1.1C16.7,84.8,16.3,84.9,15.9,84.9z"/>
	</g>
	<g id="Línea_54">
		<path class="st7" d="M21.4,79.3c-0.4,0-0.8-0.2-1-0.5c-0.5-0.6-0.5-1.5,0.1-2l1.1-1c0.6-0.5,1.5-0.5,2,0.1c0.5,0.6,0.5,1.5-0.1,2
			l-1.1,1C22.1,79.2,21.7,79.3,21.4,79.3z"/>
	</g>
	<g id="Línea_55">
		<path class="st7" d="M22.5,84.9c-0.4,0-0.7-0.1-1-0.4l-1.1-1.1c-0.6-0.6-0.6-1.4,0-2s1.4-0.6,2,0l1.1,1.1c0.6,0.6,0.6,1.4,0,2
			C23.2,84.8,22.9,84.9,22.5,84.9z"/>
	</g>
	<g id="Línea_56">
		<path class="st7" d="M16.9,79.3c-0.4,0-0.7-0.1-1-0.4l-1-1c-0.6-0.6-0.6-1.4,0-2s1.4-0.6,2,0l1,1c0.6,0.6,0.6,1.4,0,2
			C17.6,79.2,17.3,79.3,16.9,79.3z"/>
	</g>
</g>
<g id="MISC_x5F_1">
	<path id="Trazado_349" class="st2" d="M51.6,118.8h-16c-0.5,0-0.9-0.4-0.9-0.9s0.4-0.9,0.9-0.9h16c0.5,0,0.9,0.4,0.9,0.9
		S52.1,118.8,51.6,118.8z"/>
	<path id="Trazado_352" class="st8" d="M51.9,123.7H41.1c-0.5,0-0.8-0.5-0.8-0.9s0.4-0.7,0.8-0.8h10.8c0.5,0,0.8,0.5,0.8,0.9l0,0
		C52.7,123.3,52.3,123.7,51.9,123.7z"/>
	<path id="Trazado_353" class="st8" d="M57.2,123.7h-1.4c-0.5,0-0.9-0.4-0.9-0.9s0.4-0.9,0.9-0.9h1.4c0.5,0,0.9,0.4,0.9,0.9
		S57.7,123.7,57.2,123.7z"/>
</g>
<g id="BOCA">
	<path class="st2" d="M80.3,85.7c2.8,0,5.2-1.4,5.8-3.5c0.1-0.4,0-0.8-0.2-1.1c-0.3-0.4-0.9-0.7-1.4-0.6h-8.3
		c-0.5,0-1.1,0.2-1.4,0.6c-0.2,0.3-0.3,0.7-0.2,1.1C75.1,84.2,77.5,85.7,80.3,85.7z M84.4,82c-0.5,0-2.2,0-4.1,0s-3.6,0-4.1,0H84.4z
		"/>
</g>
<g id="PERSONA">
	<path class="st2" d="M114.5,112.1L114.5,112.1c-1.1-4.1-3.1-6.4-6.1-7.5l-13.5-4.8c0-0.1,0-0.2,0-0.3c-0.1-0.5-0.4-1-0.9-1.2
		l-3.5-1.5c-0.1,0-0.2-0.1-0.2-0.1v-8c2.5-2,4.4-4.6,5.3-7.7c0,0,0,0,0-0.1v-0.1c0.4-1.4,0.7-3,0.7-4.5v-0.8h0.2h0.4
		c1.6-0.3,2.7-1.6,2.7-3.2V69c0-0.7-0.3-1.3-0.8-1.8s-1.2-0.7-1.9-0.7h-0.6v-0.3c0.4-1.1,2.6-8.7-1.3-14.3C92.2,48,87.3,46,80.3,46
		S68.6,47.8,66,51.6c-3.9,5.6-1.3,13.2-0.9,14.4v0.2h-0.2c-1.7,0-3.1,1.4-3.1,3.1v3.5c0,1.7,1.4,3.1,3.1,3.1l0,0h0.2v0.5
		c-0.1,4.6,1.8,8.9,5.3,11.9v8.4l-0.2,0.1l-3.5,1.5c-0.5,0.2-0.8,0.7-0.9,1.2c0,0.1,0,0.2,0,0.3l-2.1,0.8l0,0l-11.4,4.1
		c-3.1,1.1-5,3.5-6.1,7.5l-2.7,15.2c-0.1,0.4,0.2,0.9,0.7,0.9h0.1c0.4,0,0.7-0.3,0.8-0.7l2.7-15.2c1-3.4,2.6-5.5,5.1-6.4l10.9-3.9
		c1.4,1.8,7.1,9.7,15.2,20.9c0.3,0.5,0.9,0.7,1.4,0.7l0,0c0.6,0,1.1-0.3,1.4-0.7l15-21l11.2,4c2.5,0.9,4.1,2.9,5.1,6.3l2.7,15.2
		c0.1,0.4,0.4,0.7,0.8,0.7h0.1c0.4-0.1,0.7-0.5,0.7-0.9L114.5,112.1z M93.2,99.7l-8.8,7.1l-2.7-2l8.2-6.5L93.2,99.7z M66.7,76.4
		V66.1c0.5-1,3.1-6.1,4.8-9.7c2,0.8,8.5,2.8,18.7,3.5c1.2,2.3,2.7,4.5,4.4,6.5v10c0,1.8-0.3,3.6-0.9,5.2c0,0-2.8,8.2-13.2,8.2
		s-13.1-8.7-13.1-8.7C67,79.6,66.8,78,66.7,76.4z M96.9,68.1c0.3,0,0.5,0.1,0.7,0.3c0.2,0.2,0.3,0.4,0.3,0.7v3.3
		c0,0.8-0.5,1.5-1.3,1.6c-0.1,0-0.2,0-0.4,0v-5.9H96.9z M67.3,52.5c2.3-3.3,6.6-4.9,13-4.9s10.9,1.8,13.3,5.1
		c2.8,3.9,2,9.1,1.5,11.6c-1.5-1.9-4.3-5.8-4.6-8.7c-0.1-0.4-0.5-0.7-0.9-0.7c-0.4,0.1-0.7,0.4-0.7,0.8c0.1,0.8,0.3,1.6,0.6,2.4
		c-5.9-0.3-11.7-1.4-17.2-3.3c0.3-0.6,0.6-1.3,0.8-1.9c0.1-0.4-0.1-0.9-0.5-1s-0.9,0.1-1,0.5l0,0c-0.1,0.4-0.6,1.4-1.1,2.6l0,0
		c-1.1,2.4-2.9,5.9-4.2,8.6C65.5,61.1,64.8,56.2,67.3,52.5z M64.9,74.2c-0.8,0-1.5-0.7-1.5-1.5l0,0v-3.5c0-0.8,0.7-1.5,1.5-1.5l0,0
		h0.2v6.4L64.9,74.2z M80.3,91.4c2.8,0,5.7-0.6,8.3-1.7v7.4l-8.3,6.6L72,97.2v-7.8C74.6,90.8,77.4,91.5,80.3,91.4z M70.8,98.2
		l8.2,6.5l-2.7,2l-8.8-7.1L70.8,98.2z M80.3,122.2L80.3,122.2L80.3,122.2c-0.1,0-0.2,0-0.2,0l-2-2.8l2.1-4l0,0l2,4L80.3,122.2z
		 M80.3,113.5l-2.3-2.4l2.4-2.4l2.4,2.4L80.3,113.5z M83.3,117.9l-1.7-3.4l2.4-2.4c0.5-0.6,0.5-1.4,0-2l-2.7-2.7
		c-0.6-0.5-1.4-0.5-2,0l-2.7,2.7c-0.5,0.6-0.5,1.4,0,2l2.3,2.3l-1.9,3.5l-5.9-8.2c-3.3-4.6-5-6.9-6-8.2l1.4-0.5l8.6,7
		c0.3,0.2,0.6,0.4,1,0.3c0.3,0,0.7-0.1,0.9-0.3l3.2-2.4l3.2,2.4c0.5,0.4,1.3,0.4,1.9,0l8.6-7l1.1,0.4L83.3,117.9z"/>
	<path class="st2" d="M74.3,67.7c-0.9,0-1.6,0.7-1.6,1.6s0.7,1.6,1.6,1.6s1.6-0.7,1.6-1.6l0,0C75.9,68.4,75.2,67.7,74.3,67.7z"/>
	<path class="st2" d="M86.1,67.7c-0.9,0-1.6,0.7-1.6,1.6s0.7,1.6,1.6,1.6s1.6-0.7,1.6-1.6l0,0C87.6,68.4,86.9,67.7,86.1,67.7z"/>
	<path class="st2" d="M82.4,75.7c0-0.4-0.4-0.8-0.8-0.8h-2.5c-0.4,0-0.8,0.3-0.9,0.7s0.3,0.8,0.7,0.9c0.1,0,0.1,0,0.2,0h2.5
		C82,76.5,82.4,76.1,82.4,75.7z"/>
	<path class="st2" d="M75.1,63.8l-6,1.5c-0.4,0.1-0.7,0.5-0.6,1c0.1,0.4,0.5,0.7,1,0.6l0,0c0.6-0.1,5.8-1.4,6.1-1.5
		c0.4-0.1,0.7-0.5,0.6-1C76,64,75.5,63.7,75.1,63.8L75.1,63.8z"/>
	<path class="st2" d="M85.1,65.2c0.2,0,5.4,1.3,6,1.5c0.4,0.1,0.9-0.2,1-0.6l0,0c0.1-0.4-0.1-0.9-0.6-1l0,0c-0.4-0.1-4.1-1-6-1.5
		c-0.4-0.1-0.9,0.1-1,0.5C84.3,64.5,84.6,65,85.1,65.2C85,65.1,85.1,65.1,85.1,65.2L85.1,65.2z"/>
</g>
<rect x="18.2" y="79.1" class="st7" width="2.1" height="2.1"/>
</svg>
