<svg id="Capa_1" data-name="Capa 1" xmlns="http://www.w3.org/2000/svg" width="179" height="126" viewBox="0 0 179 126">
  <defs>
    <style>
      .cls-1 {
        fill: #f4f4f4;
      }

      .cls-2 {
        fill: #1f1b36;
      }

      .cls-3, .cls-4, .cls-5, .cls-6, .cls-7 {
        fill: none;
      }

      .cls-3, .cls-7 {
        stroke: #52ffbd;
      }

      .cls-3, .cls-4 {
        stroke-miterlimit: 10;
      }

      .cls-3 {
        stroke-width: 2.13px;
      }

      .cls-4, .cls-5 {
        stroke: #cd1931;
      }

      .cls-5, .cls-6, .cls-7 {
        stroke-linecap: round;
        stroke-linejoin: round;
      }

      .cls-5 {
        stroke-width: 2.13px;
      }

      .cls-6 {
        stroke: #000;
      }

      .cls-7 {
        stroke-width: 2.83px;
      }

      .cls-8 {
        fill: #cd1931;
      }

      .cls-9 {
        fill: #52ffbd;
      }
    </style>
  </defs>
  <title>item1</title>
  <g>
    <g id="Grupo_279" data-name="Grupo 279">
      <g id="Sustracción_2" data-name="Sustracción 2">
        <path id="Trazado_402" data-name="Trazado 402" class="cls-1" d="M131,118.09H27.26a67.4,67.4,0,1,1,103.7,0Z"/>
      </g>
      <g id="Grupo_261" data-name="Grupo 261">
        <path id="Trazado_481" data-name="Trazado 481" class="cls-2" d="M140.93,124.18h-9a.57.57,0,1,1,0-1.13h9.07a.57.57,0,0,1,0,1.13Z"/>
      </g>
      <g id="Grupo_262" data-name="Grupo 262">
        <path id="Trazado_482" data-name="Trazado 482" d="M123.06,124.18H39.47a.57.57,0,0,1,0-1.13h83.59a.56.56,0,0,1,.56.58A.57.57,0,0,1,123.06,124.18Z"/>
      </g>
      <g id="Grupo_255" data-name="Grupo 255">
        <g id="Grupo_252" data-name="Grupo 252">
          <path id="Trazado_473" data-name="Trazado 473" d="M171.59,118.66H153.88a.52.52,0,0,1-.42-.59.51.51,0,0,1,.42-.55h17.71a.59.59,0,0,1,0,1.14Z"/>
        </g>
        <g id="Grupo_253" data-name="Grupo 253">
          <path id="Trazado_474" data-name="Trazado 474" d="M150.41,118.66h-6.16c-.24,0-.44-.24-.45-.56a.53.53,0,0,1,.43-.58h6.18a.5.5,0,0,1,.45.55.52.52,0,0,1-.42.59Z"/>
        </g>
        <g id="Grupo_254" data-name="Grupo 254">
          <path id="Trazado_475" data-name="Trazado 475" d="M140.56,118.66H7.36c-.22,0-.38-.27-.38-.59s.17-.54.38-.55h133.2c.21,0,.38.27.37.58s-.17.55-.37.56Z"/>
        </g>
      </g>
    </g>
    <g id="Elipse_28" data-name="Elipse 28">
      <circle class="cls-3" cx="29.91" cy="16.27" r="1.92"/>
    </g>
    <g id="Elipse_27" data-name="Elipse 27">
      <circle class="cls-4" cx="137.88" cy="95.67" r="1.92"/>
    </g>
    <g>
      <line id="Línea_58" data-name="Línea 58" class="cls-5" x1="110.76" y1="31.88" x2="111.27" y2="32.39"/>
      <line id="Línea_60" data-name="Línea 60" class="cls-5" x1="103.45" y1="24.57" x2="103.96" y2="25.08"/>
      <line id="Línea_59" data-name="Línea 59" class="cls-5" x1="110.76" y1="25.08" x2="111.27" y2="24.57"/>
      <line id="Línea_65" data-name="Línea 65" class="cls-5" x1="103.45" y1="32.39" x2="103.96" y2="31.88"/>
    </g>
    <g>
      <line id="Línea_62" data-name="Línea 62" class="cls-6" x1="121.29" y1="12.51" x2="121.83" y2="11.97"/>
      <line id="Línea_63" data-name="Línea 63" class="cls-6" x1="121.83" y1="15.39" x2="121.29" y2="14.85"/>
      <line id="Línea_63-2" data-name="Línea 63" class="cls-6" x1="118.41" y1="15.39" x2="118.95" y2="14.85"/>
      <line id="Línea_64" data-name="Línea 64" class="cls-6" x1="118.95" y1="12.51" x2="118.41" y2="11.97"/>
    </g>
    <g id="Grupo_292" data-name="Grupo 292">
      <line id="Línea_53" data-name="Línea 53" class="cls-7" x1="11.71" y1="105.33" x2="12.84" y2="104.2"/>
      <line id="Línea_54" data-name="Línea 54" class="cls-7" x1="17.81" y1="99.23" x2="18.94" y2="98.1"/>
      <line id="Línea_55" data-name="Línea 55" class="cls-7" x1="18.94" y1="105.33" x2="17.81" y2="104.2"/>
      <line id="Línea_56" data-name="Línea 56" class="cls-7" x1="12.84" y1="99.23" x2="11.71" y2="98.1"/>
    </g>
    <g id="Grupo_291" data-name="Grupo 291">
      <path id="Trazado_349" data-name="Trazado 349" class="cls-2" d="M39.82,61.1H22.22a1,1,0,1,1,0-1.9h17.6a1,1,0,0,1,0,1.9Z"/>
      <path id="Trazado_352" data-name="Trazado 352" class="cls-8" d="M40.14,66.52H28.26a1,1,0,0,1,0-1.9H40.14a1,1,0,0,1,0,1.9Z"/>
      <path id="Trazado_353" data-name="Trazado 353" class="cls-8" d="M46,66.52H44.43a1,1,0,0,1-1-1,1,1,0,0,1,1-.95H46a1,1,0,0,1,0,1.9Z"/>
    </g>
    <g>
      <path d="M98.65,93.47a3.11,3.11,0,0,1-1.16-.22V112.4A3.48,3.48,0,0,1,94,115.88H63.24a3.49,3.49,0,0,1-3.48-3.48V51.83a3.49,3.49,0,0,1,3.48-3.48H94a3.48,3.48,0,0,1,3.48,3.48v28a3.72,3.72,0,0,1,2.19.13V51.83A5.68,5.68,0,0,0,94,46.16H63.24a5.68,5.68,0,0,0-5.67,5.67V112.4a5.68,5.68,0,0,0,5.67,5.67H94a5.67,5.67,0,0,0,5.67-5.67V93.28A3,3,0,0,1,98.65,93.47Z"/>
      <path d="M98.48,59H58.78a1.1,1.1,0,1,1,0-2.19h39.7a1.1,1.1,0,1,1,0,2.19Z"/>
      <path d="M98.48,107H58.78a1.1,1.1,0,1,1,0-2.19h39.7a1.1,1.1,0,1,1,0,2.19Z"/>
      <path d="M85.07,53.54H72.18a1.1,1.1,0,0,1,0-2.2H85.07a1.1,1.1,0,1,1,0,2.2Z"/>
      <path d="M78.63,114.28a3,3,0,1,1,3-3A3,3,0,0,1,78.63,114.28Zm0-3.73a.77.77,0,0,0,0,1.54.77.77,0,0,0,0-1.54Z"/>
      <path d="M87.47,81.59H70.57a5.36,5.36,0,0,1-5.34-5.35,5.35,5.35,0,0,1,5.34-5.34h16.9a5.36,5.36,0,0,1,5.34,5.34,2.24,2.24,0,0,1,0,.41,1.11,1.11,0,0,1-1.3.86,1.09,1.09,0,0,1-.86-1.24A3.18,3.18,0,0,0,89.69,74a3.09,3.09,0,0,0-2.22-.93H70.57a3.16,3.16,0,0,0-3.15,3.15,3.16,3.16,0,0,0,3.15,3.15H87.42a1.1,1.1,0,0,1,.39,2.16A1.37,1.37,0,0,1,87.47,81.59Zm-.2-2.17Zm3.36-3.21v0Z"/>
      <path d="M90.49,89.42H68.19a1.1,1.1,0,1,1,0-2.19h22.3a1.1,1.1,0,1,1,0,2.19Z"/>
      <path d="M83.7,96H74.33a1.1,1.1,0,0,1,0-2.2H83.7a1.1,1.1,0,0,1,0,2.2Z"/>
      <path class="cls-9" d="M107.12,101.72a3.27,3.27,0,0,1-2.33-1l-6.86-6.87-1.6,3.7a2.19,2.19,0,0,1-2.11,1.32,2.17,2.17,0,0,1-2-1.52L86.19,78.5a2.73,2.73,0,0,1,3.44-3.43l18.89,6.05a2.17,2.17,0,0,1,1.51,2,2.15,2.15,0,0,1-1.32,2.11L105,86.8l6.87,6.87a3.3,3.3,0,0,1,0,4.65l-2.44,2.44A3.25,3.25,0,0,1,107.12,101.72ZM97.71,91.21a1.54,1.54,0,0,1,1.1.46l7.53,7.53a1.11,1.11,0,0,0,1.55,0l2.44-2.43a1.1,1.1,0,0,0,0-1.55l-7.54-7.54a1.53,1.53,0,0,1-.42-1.38,1.51,1.51,0,0,1,.9-1.13l4.58-2h0l-18.9-6a.51.51,0,0,0-.55.13.52.52,0,0,0-.13.54l6,18.89,2-4.57a1.56,1.56,0,0,1,1.13-.91Z"/>
    </g>
  </g>
</svg>
