<svg id="Capa_1" data-name="Capa 1" xmlns="http://www.w3.org/2000/svg" width="179" height="126" viewBox="0 0 179 126">
  <defs>
    <style>
      .cls-1 {
        fill: #f4f4f4;
      }

      .cls-2 {
        fill: #1f1b36;
      }

      .cls-3, .cls-4, .cls-5, .cls-6 {
        fill: none;
      }

      .cls-3, .cls-5, .cls-6 {
        stroke: #cd1931;
      }

      .cls-3, .cls-8 {
        stroke-miterlimit: 10;
      }

      .cls-3 {
        stroke-width: 2.13px;
      }

      .cls-4 {
        stroke: #000;
      }

      .cls-4, .cls-5, .cls-6 {
        stroke-linecap: round;
        stroke-linejoin: round;
      }

      .cls-5 {
        stroke-width: 2.13px;
      }

      .cls-6 {
        stroke-width: 2.83px;
      }

      .cls-7 {
        fill: #cd1931;
      }

      .cls-8 {
        fill: #52ffbd;
        stroke: #52ffbd;
      }
    </style>
  </defs>
  <title>item4</title>
  <g>
    <g id="Grupo_279" data-name="Grupo 279">
      <g id="Sustracción_2" data-name="Sustracción 2">
        <path id="Trazado_402" data-name="Trazado 402" class="cls-1" d="M134.05,117.89H27a69.58,69.58,0,1,1,107.05,0Z"/>
      </g>
      <g id="Grupo_261" data-name="Grupo 261">
        <path id="Trazado_481" data-name="Trazado 481" class="cls-2" d="M144.35,124.18H135a.59.59,0,1,1,0-1.17h9.36a.59.59,0,0,1,.58.6A.59.59,0,0,1,144.35,124.18Z"/>
      </g>
      <g id="Grupo_262" data-name="Grupo 262">
        <path id="Trazado_482" data-name="Trazado 482" class="cls-2" d="M125.91,124.18H39.6a.58.58,0,0,1-.57-.6.59.59,0,0,1,.57-.57h86.31a.59.59,0,0,1,.57.6A.58.58,0,0,1,125.91,124.18Z"/>
      </g>
      <g id="Grupo_255" data-name="Grupo 255">
        <g id="Grupo_252" data-name="Grupo 252">
          <path id="Trazado_473" data-name="Trazado 473" class="cls-2" d="M176,118.48H157.72a.55.55,0,0,1-.44-.6.54.54,0,0,1,.44-.58H176a.54.54,0,0,1,.44.61A.54.54,0,0,1,176,118.48Z"/>
        </g>
        <g id="Grupo_253" data-name="Grupo 253">
          <path id="Trazado_474" data-name="Trazado 474" class="cls-2" d="M154.14,118.48h-6.36c-.25,0-.45-.25-.46-.57a.54.54,0,0,1,.44-.61h6.38c.25,0,.46.25.47.58a.55.55,0,0,1-.44.6Z"/>
        </g>
        <g id="Grupo_254" data-name="Grupo 254">
          <path id="Trazado_475" data-name="Trazado 475" class="cls-2" d="M144,118.48H6.45c-.22,0-.39-.28-.39-.6s.18-.57.39-.58H144c.22,0,.39.28.38.61s-.17.56-.38.57Z"/>
        </g>
      </g>
    </g>
    <g id="Elipse_28" data-name="Elipse 28">
      <circle class="cls-3" cx="73.47" cy="28.21" r="1.92"/>
    </g>
    <g id="Elipse_27" data-name="Elipse 27">
      <circle class="cls-4" cx="147.32" cy="70.04" r="1.92"/>
    </g>
    <g>
      <line id="Línea_58" data-name="Línea 58" class="cls-5" x1="125.54" y1="22.5" x2="126.05" y2="23.01"/>
      <line id="Línea_60" data-name="Línea 60" class="cls-5" x1="118.24" y1="15.19" x2="118.75" y2="15.7"/>
      <line id="Línea_59" data-name="Línea 59" class="cls-5" x1="125.54" y1="15.7" x2="126.05" y2="15.19"/>
      <line id="Línea_65" data-name="Línea 65" class="cls-5" x1="118.24" y1="23.01" x2="118.75" y2="22.5"/>
    </g>
    <g>
      <line id="Línea_62" data-name="Línea 62" class="cls-4" x1="40.77" y1="7.22" x2="41.3" y2="6.69"/>
      <line id="Línea_63" data-name="Línea 63" class="cls-4" x1="41.3" y1="10.1" x2="40.77" y2="9.56"/>
      <line id="Línea_63-2" data-name="Línea 63" class="cls-4" x1="37.89" y1="10.1" x2="38.43" y2="9.56"/>
      <line id="Línea_64" data-name="Línea 64" class="cls-4" x1="38.43" y1="7.22" x2="37.89" y2="6.69"/>
    </g>
    <g id="Grupo_292" data-name="Grupo 292">
      <line id="Línea_53" data-name="Línea 53" class="cls-6" x1="15.37" y1="103.4" x2="16.5" y2="102.27"/>
      <line id="Línea_54" data-name="Línea 54" class="cls-6" x1="21.47" y1="97.3" x2="22.6" y2="96.17"/>
      <line id="Línea_55" data-name="Línea 55" class="cls-6" x1="22.6" y1="103.4" x2="21.47" y2="102.27"/>
      <line id="Línea_56" data-name="Línea 56" class="cls-6" x1="16.5" y1="97.3" x2="15.37" y2="96.17"/>
    </g>
    <g id="Grupo_291" data-name="Grupo 291">
      <path id="Trazado_349" data-name="Trazado 349" class="cls-2" d="M21.09,51.43H3.5a.95.95,0,1,1,0-1.89H21.09a.95.95,0,1,1,0,1.89Z"/>
      <path id="Trazado_352" data-name="Trazado 352" class="cls-7" d="M21.42,56.86H9.53a1,1,0,0,1-.86-1A.94.94,0,0,1,9.53,55H21.42a1,1,0,0,1,0,1.9Z"/>
      <path id="Trazado_353" data-name="Trazado 353" class="cls-7" d="M27.24,56.86H25.71a1,1,0,0,1-.95-1,1,1,0,0,1,.95-.94h1.53a1,1,0,0,1,0,1.9Z"/>
    </g>
    <g>
      <path class="cls-8" d="M68,117.85a1.38,1.38,0,0,1-1.38-1.39V102.84a1.38,1.38,0,1,1,2.76,0v13.62A1.38,1.38,0,0,1,68,117.85Z"/>
      <path class="cls-8" d="M94,117.85a1.38,1.38,0,0,1-1.38-1.39V102.84a1.38,1.38,0,1,1,2.76,0v13.62A1.38,1.38,0,0,1,94,117.85Z"/>
      <path class="cls-8" d="M100.24,117.85a1.38,1.38,0,0,1-1.38-1.39v-9.18a1.38,1.38,0,0,1,2.76,0v9.18A1.38,1.38,0,0,1,100.24,117.85Z"/>
      <path class="cls-8" d="M61.36,117.85A1.38,1.38,0,0,1,60,116.46v-9.18a1.38,1.38,0,0,1,2.76,0v9.18A1.38,1.38,0,0,1,61.36,117.85Z"/>
      <g>
        <path class="cls-8" d="M92.88,60.72H81.68a1.37,1.37,0,0,1-1.25-.81c-1.47-3.22-.3-7.53,2.89-10.72a11.28,11.28,0,0,1,7.75-3.51h0a6.33,6.33,0,0,1,6.59,6.59A11.2,11.2,0,0,1,94.16,60h0l-1-1,1,1a4.64,4.64,0,0,1-.4.36A1.35,1.35,0,0,1,92.88,60.72Zm0-2,.31.3-.31-.31ZM82.68,58h9.65a8.53,8.53,0,0,0,2.58-5.68,3.6,3.6,0,0,0-3.84-3.83h0a8.59,8.59,0,0,0-5.79,2.7C83.25,53.17,82.24,55.9,82.68,58Z"/>
        <path class="cls-8" d="M80.52,60.72H69.33a1.38,1.38,0,0,1-.87-.31,4.73,4.73,0,0,1-.4-.37,11.22,11.22,0,0,1-3.53-7.75,6.55,6.55,0,0,1,1.85-4.76c3-3,8.6-2.25,12.5,1.66,3.2,3.19,4.36,7.5,2.9,10.72A1.38,1.38,0,0,1,80.52,60.72ZM69.88,58h9.65c.44-2.06-.57-4.78-2.6-6.81a9.06,9.06,0,0,0-4.86-2.63,4.25,4.25,0,0,0-3.74,1,3.91,3.91,0,0,0-1,2.8A8.52,8.52,0,0,0,69.88,58Z"/>
      </g>
      <path d="M99.42,117.85H62.78a10.29,10.29,0,0,1-10.27-10.28V73.21a1.37,1.37,0,0,1,1.38-1.38h54.42a1.38,1.38,0,0,1,1.39,1.38v34.36A10.29,10.29,0,0,1,99.42,117.85ZM55.27,74.59v33a7.52,7.52,0,0,0,7.51,7.51H99.42a7.52,7.52,0,0,0,7.51-7.51v-33Z"/>
      <path d="M109.92,74.59H52.29a8.32,8.32,0,0,1,0-16.64h57.63a8.32,8.32,0,0,1,0,16.64ZM52.29,60.72a5.56,5.56,0,1,0,0,11.11h57.63a5.56,5.56,0,0,0,0-11.11Z"/>
      <path d="M87.78,74.59H74.42A1.38,1.38,0,0,1,73,73.21V59.33A1.38,1.38,0,0,1,74.42,58H87.78a1.38,1.38,0,0,1,1.39,1.38V73.21A1.38,1.38,0,0,1,87.78,74.59Zm-12-2.76H86.4V60.72H75.8Z"/>
      <path d="M87.78,117.85H74.42A1.38,1.38,0,0,1,73,116.46V73.21a1.38,1.38,0,0,1,1.38-1.38H87.78a1.38,1.38,0,0,1,1.39,1.38v43.25A1.39,1.39,0,0,1,87.78,117.85Zm-12-2.77H86.4V74.59H75.8Z"/>
    </g>
  </g>
</svg>
