<svg id="Capa_1" data-name="Capa 1" xmlns="http://www.w3.org/2000/svg" width="179" height="126" viewBox="0 0 179 126">
  <defs>
    <style>
      .cls-1 {
        fill: #f4f4f4;
      }

      .cls-2 {
        fill: #1f1b36;
      }

      .cls-3, .cls-4, .cls-5, .cls-6, .cls-7 {
        fill: none;
      }

      .cls-3, .cls-4, .cls-5, .cls-7 {
        stroke: #cd1931;
      }

      .cls-10, .cls-3, .cls-4, .cls-9 {
        stroke-miterlimit: 10;
      }

      .cls-3 {
        stroke-width: 2.13px;
      }

      .cls-5, .cls-6, .cls-7 {
        stroke-linecap: round;
        stroke-linejoin: round;
      }

      .cls-5 {
        stroke-width: 2.13px;
      }

      .cls-6, .cls-9 {
        stroke: #000;
      }

      .cls-7 {
        stroke-width: 2.83px;
      }

      .cls-8 {
        fill: #cd1931;
      }

      .cls-10 {
        fill: #52ffbd;
        stroke: #52ffbd;
      }
    </style>
  </defs>
  <title>item3</title>
  <g>
    <g id="Grupo_279" data-name="Grupo 279">
      <g id="Sustracción_2" data-name="Sustracción 2">
        <path id="Trazado_402" data-name="Trazado 402" class="cls-1" d="M132.3,117.89h-107a69.58,69.58,0,1,1,107.05,0Z"/>
      </g>
      <g id="Grupo_261" data-name="Grupo 261">
        <path id="Trazado_481" data-name="Trazado 481" class="cls-2" d="M142.6,124.18h-9.34a.58.58,0,0,1-.6-.57.59.59,0,0,1,.57-.6h9.37a.59.59,0,0,1,.57.6A.58.58,0,0,1,142.6,124.18Z"/>
      </g>
      <g id="Grupo_262" data-name="Grupo 262">
        <path id="Trazado_482" data-name="Trazado 482" class="cls-2" d="M124.15,124.18H37.84a.58.58,0,0,1-.57-.6.59.59,0,0,1,.57-.57h86.31a.59.59,0,0,1,0,1.17Z"/>
      </g>
      <g id="Grupo_255" data-name="Grupo 255">
        <g id="Grupo_252" data-name="Grupo 252">
          <path id="Trazado_473" data-name="Trazado 473" class="cls-2" d="M174.25,118.48H156a.62.62,0,0,1,0-1.18h18.28a.54.54,0,0,1,.44.61A.53.53,0,0,1,174.25,118.48Z"/>
        </g>
        <g id="Grupo_253" data-name="Grupo 253">
          <path id="Trazado_474" data-name="Trazado 474" class="cls-2" d="M152.39,118.48H146c-.25,0-.46-.25-.47-.57s.19-.6.44-.61h6.39c.25,0,.46.25.46.58a.54.54,0,0,1-.44.6Z"/>
        </g>
        <g id="Grupo_254" data-name="Grupo 254">
          <path id="Trazado_475" data-name="Trazado 475" class="cls-2" d="M142.21,118.48H4.7c-.23,0-.4-.28-.39-.6s.17-.57.39-.58H142.21c.22,0,.4.28.39.61s-.18.56-.39.57Z"/>
        </g>
      </g>
    </g>
    <g id="Elipse_28" data-name="Elipse 28">
      <circle class="cls-3" cx="9.19" cy="75.57" r="1.92"/>
    </g>
    <g id="Elipse_27" data-name="Elipse 27">
      <circle class="cls-4" cx="152.85" cy="64.09" r="1.92"/>
    </g>
    <g>
      <line id="Línea_58" data-name="Línea 58" class="cls-5" x1="27.48" y1="34.56" x2="27.99" y2="35.07"/>
      <line id="Línea_60" data-name="Línea 60" class="cls-5" x1="20.17" y1="27.26" x2="20.68" y2="27.77"/>
      <line id="Línea_59" data-name="Línea 59" class="cls-5" x1="27.48" y1="27.77" x2="27.99" y2="27.26"/>
      <line id="Línea_65" data-name="Línea 65" class="cls-5" x1="20.17" y1="35.07" x2="20.68" y2="34.56"/>
    </g>
    <g>
      <line id="Línea_62" data-name="Línea 62" class="cls-6" x1="38.01" y1="15.19" x2="38.54" y2="14.66"/>
      <line id="Línea_63" data-name="Línea 63" class="cls-6" x1="38.54" y1="18.07" x2="38.01" y2="17.54"/>
      <line id="Línea_63-2" data-name="Línea 63" class="cls-6" x1="35.13" y1="18.07" x2="35.66" y2="17.54"/>
      <line id="Línea_64" data-name="Línea 64" class="cls-6" x1="35.66" y1="15.19" x2="35.13" y2="14.66"/>
    </g>
    <g id="Grupo_292" data-name="Grupo 292">
      <line id="Línea_53" data-name="Línea 53" class="cls-7" x1="138.33" y1="104.16" x2="139.46" y2="103.03"/>
      <line id="Línea_54" data-name="Línea 54" class="cls-7" x1="144.43" y1="98.06" x2="145.56" y2="96.93"/>
      <line id="Línea_55" data-name="Línea 55" class="cls-7" x1="145.56" y1="104.16" x2="144.43" y2="103.03"/>
      <line id="Línea_56" data-name="Línea 56" class="cls-7" x1="139.46" y1="98.06" x2="138.33" y2="96.93"/>
    </g>
    <g id="Grupo_291" data-name="Grupo 291">
      <path id="Trazado_349" data-name="Trazado 349" class="cls-2" d="M130.82,29.15h-17.6a.94.94,0,0,1-1-.95,1,1,0,0,1,1-.94h17.6a.95.95,0,0,1,0,1.89Z"/>
      <path id="Trazado_352" data-name="Trazado 352" class="cls-8" d="M131.14,34.58H119.26a1,1,0,0,1,0-1.9h11.88a1,1,0,0,1,.87,1A1,1,0,0,1,131.14,34.58Z"/>
      <path id="Trazado_353" data-name="Trazado 353" class="cls-8" d="M137,34.58h-1.53a1,1,0,1,1,0-1.9H137a1,1,0,0,1,1,.94,1,1,0,0,1-.95,1Z"/>
    </g>
    <g>
      <g>
        <path class="cls-9" d="M46.66,94.51a1.13,1.13,0,0,1-1-.7,35,35,0,0,1,60.83-33.52,1.14,1.14,0,1,1-1.86,1.32A32.67,32.67,0,0,0,47.72,92.93a1.15,1.15,0,0,1-.62,1.5A1.11,1.11,0,0,1,46.66,94.51Z"/>
        <path class="cls-9" d="M79.76,117.85a35,35,0,0,1-28.51-14.73,1.15,1.15,0,1,1,1.87-1.33,32.66,32.66,0,0,0,59.3-18.9A32.32,32.32,0,0,0,110,70.47a1.15,1.15,0,0,1,2.12-.87,35,35,0,0,1-32.33,48.25Z"/>
        <path class="cls-9" d="M105.79,63.85a2.57,2.57,0,0,1-.72-.11L92.65,59.86a1.14,1.14,0,0,1,.68-2.18l12.42,3.88a.1.1,0,0,0,.1,0,.12.12,0,0,0,.05-.1L104.77,49A1.14,1.14,0,0,1,107,48.8l1.13,12.44a2.42,2.42,0,0,1-.88,2.08A2.37,2.37,0,0,1,105.79,63.85Z"/>
        <path class="cls-9" d="M51.93,115.87a1.14,1.14,0,0,1-1.14-1L49.66,102.4a2.4,2.4,0,0,1,3.1-2.51l12.42,3.88A1.14,1.14,0,1,1,64.5,106l-12.42-3.87a.09.09,0,0,0-.1,0,.11.11,0,0,0,0,.1l1.13,12.43a1.16,1.16,0,0,1-1,1.25Z"/>
      </g>
      <g>
        <path class="cls-10" d="M90.38,99.34H67.32a5.11,5.11,0,0,1-5.11-5.11V78.37a5.11,5.11,0,0,1,5.11-5.1H90.38a5.11,5.11,0,0,1,5.1,5.1V94.23A5.11,5.11,0,0,1,90.38,99.34ZM67.32,75.55a2.82,2.82,0,0,0-2.82,2.82V94.23a2.82,2.82,0,0,0,2.82,2.82H90.38a2.82,2.82,0,0,0,2.82-2.82V78.37a2.83,2.83,0,0,0-2.82-2.82Z"/>
        <path class="cls-10" d="M94.34,87.39h-31a1.15,1.15,0,1,1,0-2.29h31a1.15,1.15,0,0,1,0,2.29Z"/>
        <path class="cls-10" d="M81.77,75.57a4.32,4.32,0,0,1-3.12-1.23h0c-2-2-1.52-5.5,1-8s6.07-3,8-1,1.53,5.49-1,8A7.13,7.13,0,0,1,81.77,75.57Zm-1.5-2.85c1,1,3.22.57,4.8-1s2-3.77,1-4.8-3.23-.56-4.8,1-2,3.77-1,4.79Z"/>
        <path class="cls-10" d="M75.29,75.55a5.19,5.19,0,0,1-.87-.07,7.46,7.46,0,0,1-4-2.15c-2.53-2.54-3-6.06-1-8a4.59,4.59,0,0,1,4-1.15,7.89,7.89,0,0,1,6.2,6.21,4.52,4.52,0,0,1-1.14,4h0A4.35,4.35,0,0,1,75.29,75.55Zm-2.82-9.18a2.08,2.08,0,0,0-1.49.54c-1,1-.56,3.23,1,4.8a5.35,5.35,0,0,0,2.79,1.52,2.35,2.35,0,0,0,2-.51h0a2.3,2.3,0,0,0,.5-2,5.6,5.6,0,0,0-4.3-4.3A3.67,3.67,0,0,0,72.47,66.37Z"/>
        <path class="cls-10" d="M78.85,99.34a1.16,1.16,0,0,1-1.15-1.15V73.53a1.15,1.15,0,0,1,2.29,0V98.19A1.15,1.15,0,0,1,78.85,99.34Z"/>
      </g>
    </g>
  </g>
</svg>
