<svg id="Capa_1" data-name="Capa 1" xmlns="http://www.w3.org/2000/svg" viewBox="0 0 216 86"><defs><style>.cls-1{fill:#fff;}</style></defs><title>logo</title><path class="cls-1" d="M17.86,81.9a19.75,19.75,0,0,1-4.48.62C7,82.52,2.6,79.34,2.6,72.69S6.71,62.18,13.38,62.18a13.12,13.12,0,0,1,4.46.82l-.29,3.32a8.14,8.14,0,0,0-4.25-1c-4.06,0-6.59,3.1-6.59,7.13s2.48,7,6.67,7a11,11,0,0,0,4.31-.82Z"/><path class="cls-1" d="M20.77,62.52h3.94V79.08h7.63v3.1H20.77Z"/><path class="cls-1" d="M34.71,62.52h3.94V73.87c0,3.35,1.07,5.55,4.09,5.55s4.08-2.2,4.08-5.55V62.52h4V75.08c0,5.27-3,7.44-8,7.44s-8-2.17-8-7.44Z"/><path class="cls-1" d="M55.19,62.52h6.87c2.54,0,6.34.73,6.34,5A4.4,4.4,0,0,1,64.49,72V72c2.67.26,4.5,2.06,4.5,4.48,0,5-4.45,5.69-6.93,5.69H55.19Zm3.94,7.94h1.61c1.66,0,3.72-.36,3.72-2.39,0-2.28-2-2.45-3.8-2.45H59.13Zm0,8.62H61c1.83,0,4.06-.45,4.06-2.73,0-2.56-2.08-3-4.06-3H59.13Z"/><path class="cls-1" d="M85.87,62.52h4.45L98,82.18H93.67L92,77.68H84l-1.72,4.5H78.21ZM88,66.46H88l-2.84,8.12h5.74Z"/><path class="cls-1" d="M111.14,66.13a10.11,10.11,0,0,0-4-.85c-1.35,0-3.1.59-3.1,2.73,0,3.41,8.62,2,8.62,8.57,0,4.31-3.41,5.94-7.38,5.94a17.26,17.26,0,0,1-5-.76l.36-3.55a9.51,9.51,0,0,0,4.45,1.21c1.5,0,3.5-.76,3.5-2.53,0-3.75-8.62-2.2-8.62-8.71,0-4.39,3.41-6,6.87-6a14.75,14.75,0,0,1,4.7.71Z"/><path class="cls-1" d="M124.91,62.18c6.17,0,9.64,4.17,9.64,10.12s-3.41,10.22-9.64,10.22-9.63-4.2-9.63-10.22S118.66,62.18,124.91,62.18Zm0,17.24c4,0,5.53-3.58,5.53-7.12s-1.61-7-5.53-7-5.52,3.55-5.52,7S120.89,79.42,124.91,79.42Z"/><path class="cls-1" d="M152.47,81.9a19.91,19.91,0,0,1-4.48.62c-6.37,0-10.79-3.18-10.79-9.83S141.31,62.18,148,62.18a13.11,13.11,0,0,1,4.45.82l-.28,3.32a8.2,8.2,0,0,0-4.26-1c-4.05,0-6.59,3.1-6.59,7.13s2.48,7,6.68,7a11,11,0,0,0,4.31-.82Z"/><path class="cls-1" d="M155,62.52H159V82.18H155Z"/><path class="cls-1" d="M168.83,62.52h4.45L181,82.18h-4.36L175,77.68h-8l-1.71,4.5h-4.09ZM171,66.46H171l-2.85,8.12h5.75Z"/><path class="cls-1" d="M183.2,62.52h4.25c4.23,0,9.27-.14,9.27,5.32a4.51,4.51,0,0,1-4.05,4.57v0c1.07.09,1.69,1.16,2.08,2l3.16,7.69h-4.4L191.14,76c-.56-1.46-1.07-2-2.73-2h-1.27v8.17H183.2Zm3.94,8.39h1.3c1.94,0,4.17-.28,4.17-2.73s-2.2-2.56-4.17-2.56h-1.3Z"/><path class="cls-1" d="M203.83,65.62h-5.64v-3.1H213.4v3.1h-5.63V82.18h-3.94Z"/><path class="cls-1" d="M122.6,3.61l.27-.13-36.45.06c-3.79,0-5.2,1.92-7,6.72l-2.69,6.9Z"/><path class="cls-1" d="M136.07,8.17C132.5,9.38,101.66,19.7,95.33,21.81c-4.58,1.53-3.72,4.45-3.72,4.45L93.77,32c1.91,4.74,7.1,2.41,7.1,2.41l39.29-14.26-3.35-9.8a21.49,21.49,0,0,0-.74-2.15Z"/><path class="cls-1" d="M149.24,46.7l-4.62-13.57-52,20.43,49.7,0C146.14,53.58,150.87,51,149.24,46.7Z"/><path class="cls-1" d="M71.32,39.64l-.79-4.45L66.68,46.7c-1.37,5,3.1,6.89,6.89,6.89l5.74,0C73.37,49.11,71.32,39.64,71.32,39.64Z"/></svg>