<svg id="Capa_1" data-name="Capa 1" xmlns="http://www.w3.org/2000/svg" viewBox="0 0 216 86"><defs><style>.cls-1{fill:#fff;}</style></defs><title>logo</title><g id="sc-colorasociart"><path id="Trazado_1" data-name="Trazado 1" class="cls-1" d="M114.43,3.33a13.52,13.52,0,0,0-2.29-.19H104a12.87,12.87,0,0,0-2,.19,13.15,13.15,0,0,0-10.94,13v7a13.18,13.18,0,0,0,10.94,13,12.36,12.36,0,0,0,2.27.2h8.2A13.18,13.18,0,0,0,125.35,23.3v-7a13.15,13.15,0,0,0-10.92-13M107.79,7V6.65h4.35a9.71,9.71,0,0,1,9,6.12l.52,1.31-1.09-.9a13.19,13.19,0,0,0-6.17-2.87,13.53,13.53,0,0,0-2.29-.2h-4.4l.05-.4c0-.14,0-1.73,0-2.7M94.6,16a9.48,9.48,0,0,1,2.82-6.52A11.55,11.55,0,0,1,101.85,7a9.5,9.5,0,0,1,2.05-.31l.38,0,0,2.66a8.57,8.57,0,0,1-1.69,5.3,3.89,3.89,0,0,1-.38.43,3.93,3.93,0,0,1-2.77,1.32l-2,0H94.59Zm14,17h-4.37a10.34,10.34,0,0,1-2.42-.29,9.86,9.86,0,0,1-6.61-5.84l-.51-1.31,1.08.91a13.15,13.15,0,0,0,8.46,3.06h4.37V33Zm.83-7.21-.09.23h-5.11a9.76,9.76,0,0,1-8.82-5.67l-.24-.51h4.21a7.25,7.25,0,0,0,2.4-.41A9.19,9.19,0,0,0,107,13.87l.09-.23h5.09a10.57,10.57,0,0,1,2.44.29A9.78,9.78,0,0,1,119,16.47,9.31,9.31,0,0,1,121,19.29l.23.51H117a6.81,6.81,0,0,0-2.37.43,9.23,9.23,0,0,0-5.15,5.55m12.34-2.15a9.62,9.62,0,0,1-7.23,9.05,9.74,9.74,0,0,1-2.08.29h-.37l0-2.64A8.6,8.6,0,0,1,113.84,25a5,5,0,0,1,.4-.43A3.91,3.91,0,0,1,117,23.29l2,0h2.85Z"/><path id="Trazado_2" data-name="Trazado 2" class="cls-1" d="M40,47.19h5L53.82,69.5h-5L47,64.39h-9L36,69.5H31.32Zm2.46,4.48h-.07l-3.23,9.2h6.53Z"/><path id="Trazado_3" data-name="Trazado 3" class="cls-1" d="M68.68,51.28a11.59,11.59,0,0,0-4.54-1c-1.53,0-3.51.68-3.51,3.1,0,3.87,9.78,2.24,9.78,9.72,0,4.89-3.87,6.74-8.37,6.74A19.85,19.85,0,0,1,56.31,69l.42-4a10.79,10.79,0,0,0,5.05,1.37c1.69,0,4-.86,4-2.87C65.74,59.24,56,61,56,53.62c0-5,3.87-6.81,7.8-6.81a17,17,0,0,1,5.34.8Z"/><path id="Trazado_4" data-name="Trazado 4" class="cls-1" d="M84.31,46.81c7,0,10.93,4.73,10.93,11.47s-3.87,11.6-10.93,11.6-10.93-4.76-10.93-11.6,3.84-11.47,10.93-11.47m0,19.55c4.57,0,6.26-4,6.26-8.08s-1.82-8-6.26-8-6.26,4-6.26,8,1.69,8.08,6.26,8.08"/><path id="Trazado_5" data-name="Trazado 5" class="cls-1" d="M115.56,69.18a22.86,22.86,0,0,1-5.08.7c-7.22,0-12.24-3.61-12.24-11.15s4.67-11.92,12.24-11.92a14.7,14.7,0,0,1,5,.92l-.32,3.77a9.28,9.28,0,0,0-4.82-1.18c-4.61,0-7.48,3.52-7.48,8.09s2.81,8,7.57,8a12.48,12.48,0,0,0,4.89-.93Z"/><rect id="Rect치ngulo_2" data-name="Rect치ngulo 2" class="cls-1" x="118.47" y="47.19" width="4.47" height="22.31"/><path id="Trazado_6" data-name="Trazado 6" class="cls-1" d="M134.13,47.19h5.05l8.76,22.31H143l-1.93-5.11h-9l-2,5.11h-4.63Zm2.46,4.48h-.06l-3.23,9.2h6.52Z"/><path id="Trazado_7" data-name="Trazado 7" class="cls-1" d="M150.43,47.19h4.82c4.8,0,10.52-.16,10.52,6a5.11,5.11,0,0,1-4.6,5.18v.06c1.21.1,1.91,1.31,2.36,2.3l3.58,8.73h-5l-2.69-7c-.64-1.66-1.21-2.3-3.1-2.3H154.9V69.5h-4.47V47.19Zm4.47,9.52h1.47c2.21,0,4.73-.32,4.73-3.1s-2.49-2.91-4.73-2.91H154.9v6Z"/><path id="Trazado_8" data-name="Trazado 8" class="cls-1" d="M174.39,50.7H168V47.19h17.26V50.7h-6.39V69.5h-4.48Z"/><path id="Trazado_9" data-name="Trazado 9" class="cls-1" d="M32.87,78.11h1.36l1.6,4.16H34.62l-.32-.89H32.75l-.34.89H31.29Zm.68.86h0L33,80.6h1Z"/><path id="Trazado_10" data-name="Trazado 10" class="cls-1" d="M37.05,81.25a2.43,2.43,0,0,0,1.15.27c.35,0,.68-.07.68-.4,0-.78-2-.29-2-1.8,0-1,1-1.28,1.81-1.28a3.84,3.84,0,0,1,1.07.15l-.07.86a2.23,2.23,0,0,0-.92-.19c-.28,0-.75,0-.75.39,0,.67,2,.22,2,1.72,0,1.08-.91,1.38-1.83,1.38A4.34,4.34,0,0,1,37,82.16Z"/><path id="Trazado_11" data-name="Trazado 11" class="cls-1" d="M41.43,78.11h2.93v.79H42.54v.86h1.72v.78H42.54v.95h1.89v.78h-3Z"/><path id="Trazado_12" data-name="Trazado 12" class="cls-1" d="M49.72,82.15a6.18,6.18,0,0,1-1.61.2,2.15,2.15,0,0,1-2.39-2.14c0-1.57,1.11-2.17,2.63-2.17a4.14,4.14,0,0,1,1.26.19l-.09.9a2.25,2.25,0,0,0-1-.27c-.9,0-1.63.38-1.63,1.35a1.26,1.26,0,0,0,1.38,1.31,1.09,1.09,0,0,0,.4-.07v-.82H48v-.79h1.72Z"/><path id="Trazado_13" data-name="Trazado 13" class="cls-1" d="M54.88,80.69c0,1.14-.74,1.65-1.83,1.65s-1.82-.51-1.82-1.65V78.11h1.11v2.4c0,.55.15,1,.71,1s.72-.46.72-1v-2.4h1.11v2.58Z"/><path id="Trazado_14" data-name="Trazado 14" class="cls-1" d="M56.34,78.11h2c.74,0,1.34.34,1.34,1a1,1,0,0,1-.8,1h0c.36.1.38.42.59.92l.41,1.14H58.7l-.24-.76c-.23-.71-.37-.89-.78-.89h-.23v1.65H56.34V78.11Zm1.11,1.73h.29c.36,0,.81,0,.81-.48s-.39-.46-.81-.46h-.29Z"/><path id="Trazado_15" data-name="Trazado 15" class="cls-1" d="M62.36,78.11h1.36l1.6,4.16H64.11l-.32-.89H62.23l-.32.89H60.78ZM63,79h0l-.54,1.63h1Z"/><path id="Trazado_16" data-name="Trazado 16" class="cls-1" d="M66.53,78.11h1.52c1.44,0,2.46.46,2.46,2.07s-1,2.09-2.46,2.09H66.53Zm1.11,3.34h.43a1.26,1.26,0,1,0,0-2.52h-.43Z"/><path id="Trazado_17" data-name="Trazado 17" class="cls-1" d="M73.88,78a2.16,2.16,0,0,1,0,4.31,2.16,2.16,0,0,1,0-4.31m0,3.48c.67,0,.94-.64.94-1.33s-.27-1.32-.94-1.32-.95.6-.95,1.32.27,1.33.95,1.33"/><path id="Trazado_18" data-name="Trazado 18" class="cls-1" d="M77.33,78.11h2c.74,0,1.34.34,1.34,1a1,1,0,0,1-.8,1h0c.36.1.38.42.59.92l.41,1.14H79.69l-.24-.76c-.23-.71-.37-.89-.78-.89h-.23v1.65H77.33V78.11Zm1.11,1.73h.29c.36,0,.81,0,.81-.48s-.39-.46-.81-.46h-.29Z"/><path id="Trazado_19" data-name="Trazado 19" class="cls-1" d="M83.35,78.11h1.36l1.6,4.16H85.1l-.31-.89H83.22l-.32.89H81.77ZM84,79h0l-.54,1.63h1Z"/><path id="Trazado_20" data-name="Trazado 20" class="cls-1" d="M90.12,78.11h1.51c1.45,0,2.47.46,2.47,2.07s-1,2.09-2.47,2.09H90.12Zm1.11,3.34h.43a1.26,1.26,0,1,0,0-2.52h-.43Z"/><path id="Trazado_21" data-name="Trazado 21" class="cls-1" d="M95.51,78.11h2.93v.79H96.61v.86h1.73v.78H96.61v.95H98.5v.78h-3Z"/><path id="Trazado_22" data-name="Trazado 22" class="cls-1" d="M102.52,78.11h2c.74,0,1.34.34,1.34,1a1,1,0,0,1-.8,1h0c.36.1.39.42.59.92l.41,1.14h-1.16l-.24-.76c-.22-.71-.36-.89-.78-.89h-.23v1.65h-1.11V78.11Zm1.11,1.73h.29c.36,0,.81,0,.81-.48s-.38-.46-.81-.46h-.29Z"/><rect id="Rect치ngulo_3" data-name="Rect치ngulo 3" class="cls-1" x="107.36" y="78.11" width="1.11" height="4.16"/><path id="Trazado_23" data-name="Trazado 23" class="cls-1" d="M110,78.11H113v.79h-1.82v.86h1.72v.78h-1.72v.95H113v.78h-3Z"/><path id="Trazado_24" data-name="Trazado 24" class="cls-1" d="M114.5,81.25a2.37,2.37,0,0,0,1.14.27c.35,0,.68-.07.68-.4,0-.78-2-.29-2-1.8,0-1,1-1.28,1.81-1.28a3.89,3.89,0,0,1,1.07.15l-.07.86a2.23,2.23,0,0,0-.92-.19c-.28,0-.75,0-.75.39,0,.67,2,.22,2,1.72,0,1.08-.91,1.38-1.83,1.38a4.34,4.34,0,0,1-1.24-.19Z"/><path id="Trazado_25" data-name="Trazado 25" class="cls-1" d="M122.75,82.15a6.29,6.29,0,0,1-1.61.2,2.15,2.15,0,0,1-2.39-2.14c0-1.57,1.1-2.17,2.63-2.17a4.19,4.19,0,0,1,1.26.19l-.1.9a2.21,2.21,0,0,0-1-.27c-.9,0-1.64.38-1.64,1.35a1.27,1.27,0,0,0,1.39,1.31,1,1,0,0,0,.39-.07v-.82H121v-.79h1.72v2.31Z"/><path id="Trazado_26" data-name="Trazado 26" class="cls-1" d="M126.25,78a2.16,2.16,0,0,1,0,4.31,2.16,2.16,0,0,1,0-4.31m0,3.48c.67,0,.94-.64.94-1.33s-.27-1.32-.94-1.32-.94.6-.94,1.32.26,1.33.94,1.33"/><path id="Trazado_27" data-name="Trazado 27" class="cls-1" d="M129.74,81.25a2.39,2.39,0,0,0,1.14.27c.36,0,.69-.07.69-.4,0-.78-2-.29-2-1.8,0-1,1-1.28,1.82-1.28a3.89,3.89,0,0,1,1.07.15l-.07.86a2.28,2.28,0,0,0-.93-.19c-.28,0-.74,0-.74.39,0,.67,2,.22,2,1.72,0,1.08-.9,1.38-1.83,1.38a4.39,4.39,0,0,1-1.24-.19Z"/><path id="Trazado_28" data-name="Trazado 28" class="cls-1" d="M136.74,78.11h1.52c1.45,0,2.46.46,2.46,2.07s-1,2.09-2.46,2.09h-1.52Zm1.11,3.34h.43a1.26,1.26,0,1,0,0-2.52h-.43Z"/><path id="Trazado_29" data-name="Trazado 29" class="cls-1" d="M142.13,78.11h2.93v.79h-1.82v.86H145v.78h-1.72v.95h1.89v.78h-3Z"/><path id="Trazado_30" data-name="Trazado 30" class="cls-1" d="M146.57,78.11h1.11v3.34h1.72v.82h-2.83Z"/><path id="Trazado_31" data-name="Trazado 31" class="cls-1" d="M154,78.94h-1v-.83h3.16v.83h-1v3.33H154Z"/><path id="Trazado_32" data-name="Trazado 32" class="cls-1" d="M157.32,78.11h2c.74,0,1.34.34,1.34,1a1,1,0,0,1-.8,1h0c.36.1.39.42.6.92l.4,1.14h-1.16l-.23-.76c-.23-.71-.37-.89-.79-.89h-.23v1.65h-1.11V78.11Zm1.11,1.73h.3c.35,0,.8,0,.8-.48s-.38-.46-.8-.46h-.3Z"/><path id="Trazado_33" data-name="Trazado 33" class="cls-1" d="M163.35,78.11h1.35l1.61,4.16h-1.22l-.31-.89h-1.56l-.33.89h-1.13ZM164,79h0l-.53,1.63h1Z"/><path id="Trazado_34" data-name="Trazado 34" class="cls-1" d="M167.49,78.11h1.91c.78,0,1.35.34,1.35,1.06a.94.94,0,0,1-.73,1h0a.88.88,0,0,1,.84.92c0,1-.88,1.2-1.62,1.2h-1.75Zm1.11,1.65h.31c.36,0,.74-.09.74-.44s-.36-.42-.73-.42h-.32v.86Zm0,1.73h.32c.41,0,.83-.06.83-.48s-.43-.5-.81-.5h-.34v1Z"/><path id="Trazado_35" data-name="Trazado 35" class="cls-1" d="M173.51,78.11h1.36l1.6,4.16h-1.21l-.32-.89h-1.56l-.33.89h-1.12Zm.68.86h0l-.53,1.63h1Z"/><path id="Trazado_36" data-name="Trazado 36" class="cls-1" d="M177.38,81.32a1.44,1.44,0,0,0,.5.1c.33,0,.56-.24.56-.92V78.11h1.11v2.73a1.32,1.32,0,0,1-1.49,1.51,3.11,3.11,0,0,1-.68-.11v-.92Z"/><path id="Trazado_37" data-name="Trazado 37" class="cls-1" d="M183,78A2.16,2.16,0,1,1,181,80.19,1.92,1.92,0,0,1,183,78m0,3.48c.67,0,.94-.64.94-1.33s-.27-1.32-.94-1.32-.95.6-.95,1.32.27,1.33.95,1.33"/></g></svg>