<svg id="Capa_1" data-name="Capa 1" xmlns="http://www.w3.org/2000/svg" width="579.27" height="115.92" viewBox="0 0 579.27 115.92">
  <defs>
    <style>
      .cls-1 {
        fill: #fff;
      }
    </style>
  </defs>
  <title>logo-wellcome</title>
  <g>
    <g>
      <path class="cls-1" d="M20.26,18.82V19c3,.83,5.17,2.76,5.17,7.24C25.43,31.68,22,34,17.17,34H6.24V5.3H16.89c4.6,0,7.56,2.18,7.56,7.15C24.45,16.07,22.76,18,20.26,18.82ZM7.72,18.41h8.8c3.57,0,6.45-1.56,6.45-5.84S20.79,6.7,16.52,6.7H7.72Zm0,14.18h9.41c4.36,0,6.82-1.94,6.82-6.37s-2.46-6.41-6.82-6.41H7.72Z"/>
      <path class="cls-1" d="M32,4.52c.82,0,.82.7.82,1.56s0,1.52-.82,1.52-.83-.66-.83-1.52S31.18,4.52,32,4.52ZM31.31,13h1.4V34h-1.4Z"/>
      <path class="cls-1" d="M40.22,23.75c.21,7,2.76,9.41,7.81,9.41a12.68,12.68,0,0,0,6.33-1.68v1.39A11.86,11.86,0,0,1,48,34.48c-6.41,0-9.16-3.54-9.16-11.18,0-7.11,3-10.77,8.5-10.77,5.3,0,8,3,8,9.62,0,.49-.05,1.15-.09,1.6Zm0-1.31H54c0-6.46-2.59-8.59-6.49-8.59C43.14,13.85,40.47,16.31,40.22,22.44Z"/>
      <path class="cls-1" d="M62.78,16.56a8.38,8.38,0,0,1,7.48-4c5.18,0,7.23,3,7.23,7.44V34H76.1V20.18c0-2-.21-6.33-6-6.33a7.71,7.71,0,0,0-7.36,4.72V34H61.39V13h1l.21,3.53Z"/>
      <path class="cls-1" d="M98.37,13h1.52L91.22,34.11h-1L81.56,13h1.56l7.6,19Z"/>
      <path class="cls-1" d="M104.24,23.75c.21,7,2.76,9.41,7.81,9.41a12.68,12.68,0,0,0,6.33-1.68v1.39A11.86,11.86,0,0,1,112,34.48c-6.41,0-9.17-3.54-9.17-11.18,0-7.11,3-10.77,8.51-10.77,5.3,0,8,3,8,9.62,0,.49,0,1.15-.08,1.6Zm0-1.31H118c0-6.46-2.59-8.59-6.5-8.59C107.16,13.85,104.49,16.31,104.24,22.44Z"/>
      <path class="cls-1" d="M126.8,16.56a8.36,8.36,0,0,1,7.48-4c5.18,0,7.23,3,7.23,7.44V34h-1.4V20.18c0-2-.2-6.33-6-6.33a7.7,7.7,0,0,0-7.36,4.72V34h-1.4V13h1l.21,3.53Z"/>
      <path class="cls-1" d="M149.23,4.52c.83,0,.83.7.83,1.56s0,1.52-.83,1.52-.82-.66-.82-1.52S148.41,4.52,149.23,4.52ZM148.54,13h1.39V34h-1.39Z"/>
      <path class="cls-1" d="M171.42,16.23h.17V3.16H173V34h-1l-.21-3.53h-.16a8.27,8.27,0,0,1-7.44,4c-5.34,0-8.14-3.37-8.14-11s2.84-11,8.14-11A8.45,8.45,0,0,1,171.42,16.23Zm.17,2.22a7.81,7.81,0,0,0-7.24-4.6c-5.34,0-6.9,3.61-6.9,9.65s1.52,9.66,6.86,9.66a7.66,7.66,0,0,0,7.28-4.68Z"/>
      <path class="cls-1" d="M187.9,34.48c-6.16,0-8.84-3.33-8.84-11s2.72-11,8.84-11,8.83,3.33,8.83,11S194.06,34.48,187.9,34.48Zm0-1.32c5.38,0,7.4-3.08,7.4-9.66s-2-9.65-7.4-9.65-7.4,3.08-7.4,9.65S182.52,33.16,187.9,33.16Z"/>
      <path class="cls-1" d="M215.63,13.68a16.79,16.79,0,0,1,6-1.15c5.8,0,7.85,2.26,7.85,6.7V34h-1l-.2-3.49H228a8.34,8.34,0,0,1-7.56,4c-4.39,0-6.74-2.26-6.74-6.17s2.39-6.49,8.22-6.49a31.37,31.37,0,0,1,6.08.62V18.9c0-2.92-1.15-5-6.32-5a16.66,16.66,0,0,0-6.09,1.23ZM228,23.75a27.3,27.3,0,0,0-5.95-.62c-4.73,0-7,1.73-7,5.14,0,3.66,2.34,4.89,5.63,4.89A7.55,7.55,0,0,0,228,28.44Z"/>
      <path class="cls-1" d="M24.45,60.44a19.19,19.19,0,0,0-6.86-1.19c-5.18,0-7.28,2.47-7.28,9.45,0,7.48,2.14,10,7.4,10a16.94,16.94,0,0,0,6.86-1.4v5a18.18,18.18,0,0,1-7.36,1.57c-8.79,0-12.9-4.73-12.9-15.17C4.31,58.8,8.46,54,17.38,54a19.33,19.33,0,0,1,7.07,1.32Z"/>
      <path class="cls-1" d="M29,52.47h5.75V83.29H29Z"/>
      <path class="cls-1" d="M54.15,83.29l-.49-2.51h-.29A7.79,7.79,0,0,1,47,83.87c-4.2,0-6.75-2.35-6.75-6.87V62.33H46V75.77c0,2.18,1.15,3.08,3.24,3.08A4.53,4.53,0,0,0,53,76.67V62.33h5.76v21Z"/>
      <path class="cls-1" d="M69.11,83.29h-4.6V52.47h5.75v7.89c0,1-.16,4-.16,4h.16a6.44,6.44,0,0,1,5.38-2.63c5.76,0,8.3,4.27,8.3,11.05,0,7.15-2.46,11.06-8.17,11.06a6.58,6.58,0,0,1-5.92-3.09H69.6Zm1.15-6.7A4,4,0,0,0,74,79.06c3.08,0,4.23-1.48,4.23-6.17s-1.27-6.32-4.27-6.32a4.07,4.07,0,0,0-3.66,2.5Z"/>
      <path class="cls-1" d="M116.69,77.25H105.84l-2,6h-6.2l10.72-28.68h6.21l10.56,28.68h-6.5ZM107.57,72H115L111.43,60.9h-.16Z"/>
      <path class="cls-1" d="M126.68,77.74a9.89,9.89,0,0,0,5.71,1.69c1.76,0,3.29-.37,3.29-2.1s-2-2.18-4.16-2.87c-2.5-.83-5.26-2-5.26-6.13,0-5.5,4.81-6.57,8.06-6.57a20.87,20.87,0,0,1,5.79.82v4.73a15.15,15.15,0,0,0-5-1.11c-2.3,0-3.29.7-3.29,1.76,0,1.52,2.26,1.69,4.56,2.47s4.85,2.26,4.85,6.57c0,5.22-3.61,6.87-8,6.87a13.07,13.07,0,0,1-6.57-1.4Z"/>
      <path class="cls-1" d="M154.54,83.87c-6.91,0-10-3.41-10-11.06s3.12-11.05,10-11.05,10,3.41,10,11.05S161.44,83.87,154.54,83.87Zm0-4.69c3.12,0,4.27-1.64,4.27-6.37s-1.15-6.37-4.27-6.37-4.28,1.65-4.28,6.37S151.41,79.18,154.54,79.18Z"/>
      <path class="cls-1" d="M184,67.68a13,13,0,0,0-5-1.24c-4,0-5.26,1.85-5.26,6.17,0,4.85,1.73,6.57,5.18,6.57a9.4,9.4,0,0,0,5.26-1.6v4.85a13.39,13.39,0,0,1-6.28,1.44c-6.46,0-9.91-3.5-9.91-11.26,0-7.15,3.29-10.85,10.36-10.85a16.9,16.9,0,0,1,5.67,1Z"/>
      <path class="cls-1" d="M191.47,53.09c2.14,0,3.21.78,3.21,2.92s-1.07,2.87-3.21,2.87-3.2-.78-3.2-2.87S189.34,53.09,191.47,53.09Zm-2.87,9.24h5.75v21H188.6Z"/>
      <path class="cls-1" d="M211.9,80.78h-.21a7.68,7.68,0,0,1-6.45,3.09c-3.49,0-6.29-2.14-6.29-6.78,0-4.36,3-7,8.43-7a16.56,16.56,0,0,1,3.9.45v-1c0-2-1.11-3.08-3.9-3.08a15.73,15.73,0,0,0-6.54,1.44V63a21.59,21.59,0,0,1,7.52-1.27c6.17,0,8.67,2.46,8.67,8.09V83.29h-4.6Zm-.62-6.41a11.63,11.63,0,0,0-3.33-.49c-2.3,0-3.25,1.07-3.25,2.71,0,1.81,1,2.59,2.76,2.59a4.4,4.4,0,0,0,3.82-2.46Z"/>
      <path class="cls-1" d="M228,65.74c1-2.83,3-4,4.77-4a5.13,5.13,0,0,1,2.51.53v4.89a7.44,7.44,0,0,0-1.81-.16c-2.47,0-4,1.19-5.1,3.82V83.29h-5.75v-21h4.6l.58,3.41Z"/>
      <path class="cls-1" d="M245,67v8.59c0,2.54,1.36,3.57,3.58,3.57a6.59,6.59,0,0,0,2.14-.33v4.32a12.25,12.25,0,0,1-4.15.7c-4.73,0-7.32-2.55-7.32-7.11V67H236V62.33h3.37V56.25H245v6.08h5.88V67Z"/>
    </g>
    <g id="Grupo_262" data-name="Grupo 262">
      <path id="Trazado_482" data-name="Trazado 482" class="cls-1" d="M572.65,112.76H187.06c-2.46,0-4.4-.85-4.33-1.84s2-1.72,4.33-1.75H572.65c2.46,0,4.4.85,4.33,1.84S575,112.73,572.65,112.76Z"/>
    </g>
  </g>
</svg>
