<?xml version="1.0" encoding="utf-8"?>
<!-- Generator: Adobe Illustrator 24.0.1, SVG Export Plug-In . SVG Version: 6.00 Build 0)  -->
<svg version="1.1" id="Capa_1" xmlns="http://www.w3.org/2000/svg" xmlns:xlink="http://www.w3.org/1999/xlink" x="0px" y="0px"
	 viewBox="0 0 178 63.6" style="enable-background:new 0 0 178 63.6;" xml:space="preserve">
<style type="text/css">
	.st0{fill:none;stroke:#CD1931;stroke-width:0.75;stroke-miterlimit:10;}
	.st1{fill:#CD1931;}
</style>
<g id="item1">
	<g>
		<path class="st0" d="M18.8,48.5c-11.1,0-15.9-6.6-15.9-23.2C2.9,8.1,7.6,2,18.8,2s15.9,6.1,15.9,23.2
			C34.6,41.9,29.8,48.5,18.8,48.5z M18.8,9.9c-4.6,0-6.9,3.2-6.9,15.2c0,12.3,2.3,15.4,6.9,15.4s6.9-3.2,6.9-15.4S23.4,9.9,18.8,9.9
			z"/>
		<path class="st0" d="M41.5,39.4h11.6V12.9l-10.4,3.3V8.5l12.7-5.6h7.1v36.5h10.8v8.1H41.5V39.4z"/>
	</g>
	<rect x="2.6" y="59.1" class="st1" width="172.9" height="0.2"/>
</g>
</svg>
