<?xml version="1.0" encoding="utf-8"?>
<!-- Generator: Adobe Illustrator 24.0.1, SVG Export Plug-In . SVG Version: 6.00 Build 0)  -->
<svg version="1.1" id="Capa_1" xmlns="http://www.w3.org/2000/svg" xmlns:xlink="http://www.w3.org/1999/xlink" x="0px" y="0px"
	 viewBox="0 0 178 63.6" style="enable-background:new 0 0 178 63.6;" xml:space="preserve">
<style type="text/css">
	.st0{fill:none;stroke:#CD1931;stroke-width:0.75;stroke-miterlimit:10;}
	.st1{fill:#CD1931;}
</style>
<g id="item3">
	<g>
		<path class="st0" d="M18.8,48.5c-11.1,0-15.9-6.6-15.9-23.2C2.9,8.1,7.6,2,18.8,2s15.9,6.1,15.9,23.2
			C34.6,41.9,29.8,48.5,18.8,48.5z M18.8,9.9c-4.6,0-6.9,3.2-6.9,15.2c0,12.3,2.3,15.4,6.9,15.4s6.9-3.2,6.9-15.4S23.4,9.9,18.8,9.9
			z"/>
		<path class="st0" d="M42,2.9h28.8v6.5l-9.5,9.1l0.1,0.3c7.4,0.9,10.8,6.1,10.8,14.3c0,11.5-8.6,15.4-16.4,15.4
			c-8.6,0-13.8-3.3-13.8-3.3V37c3.9,2.2,8.2,3.4,12.7,3.3c4.7,0,8.3-2.2,8.3-7.5c0-6.1-3.4-7.2-6.3-7.2c-2.3,0.1-4.6,0.9-6.6,2.2
			l-3.7-5l12-11.7H42V2.9z"/>
	</g>
	<rect x="3.3" y="58.7" class="st1" width="172.9" height="0.2"/>
</g>
</svg>
