<?xml version="1.0" encoding="utf-8"?>
<!-- Generator: Adobe Illustrator 23.1.1, SVG Export Plug-In . SVG Version: 6.00 Build 0)  -->
<svg version="1.1" xmlns="http://www.w3.org/2000/svg" xmlns:xlink="http://www.w3.org/1999/xlink" x="0px" y="0px"
	 viewBox="0 0 62 90" style="enable-background:new 0 0 62 90;" xml:space="preserve">
<style type="text/css">
	.st0{fill:#FFFFFF;}
</style>
<g id="Flechita">
	<path id="flechita_x5F_contorno" class="st0" d="M31,87.8L1.6,58.4c-0.7-0.8-0.6-2.1,0.2-2.8c0.7-0.6,1.9-0.6,2.6,0L31,82.2
		l26.6-26.6c0.8-0.7,2.1-0.6,2.8,0.2c0.6,0.7,0.6,1.9,0,2.6L31,87.8z"/>
</g>
<g id="Mouse">
	<path id="mouse_x5F_contorno" class="st0" d="M34,45h-6c-6.6,0-12-5.4-12-12V14.5c0-6.6,5.4-12,12-12h6c6.6,0,12,5.4,12,12V33
		C46,39.6,40.6,45,34,45z M28,6.5c-4.4,0-8,3.6-8,8V33c0,4.4,3.6,8,8,8h6c4.4,0,8-3.6,8-8V14.5c0-4.4-3.6-8-8-8H28z"/>
	<path id="mouse_x5F_boton" class="st0" d="M31,22c-1.1,0-2-0.9-2-2v-7c0-1.1,0.9-2,2-2c1.1,0,2,0.9,2,2v7C33,21.1,32.1,22,31,22z"
		/>
</g>
</svg>
